<svg width="302" height="304" viewBox="0 0 302 304" fill="none" xmlns="http://www.w3.org/2000/svg">
<path d="M68.9167 265.775C68.9167 265.775 109.512 292.576 158.852 277.785C208.193 262.994 241.757 217.919 269.916 182.115C298.074 146.31 296.727 102.55 267.874 75.6892C239.021 48.8283 210.078 70.9387 163.225 60.8984C116.373 50.8582 105.398 41.0482 60.6238 58.2627C15.8493 75.4771 -5.67124 136.724 14.0433 190.779C33.7579 244.834 68.9167 265.775 68.9167 265.775Z" fill="#00C29C"/>
<path opacity="0.7" d="M68.9167 265.775C68.9167 265.775 109.512 292.576 158.852 277.785C208.193 262.994 241.757 217.919 269.916 182.115C298.074 146.31 296.727 102.55 267.874 75.6892C239.021 48.8283 210.078 70.9387 163.225 60.8984C116.373 50.8582 105.398 41.0482 60.6238 58.2627C15.8493 75.4771 -5.67124 136.724 14.0433 190.779C33.7579 244.834 68.9167 265.775 68.9167 265.775Z" fill="white"/>
<path d="M124.242 40.0241C121.409 38.4729 120.117 39.7696 119.084 38.4729C118.051 37.1762 121.923 33.8133 114.186 30.4504C114.186 30.4504 113.666 23.1793 103.09 22.943C92.514 22.7066 95.3528 30.2141 92.514 32.0319C89.6752 33.8497 88.89 30.9958 86.0633 32.8075C83.2366 34.6192 84.5171 38.2609 82.1917 38.7638C79.8663 39.2667 76.7557 36.431 73.941 38.2427C71.1264 40.0544 71.1022 41.6117 69.8097 41.6117C68.5171 41.6117 65.9441 40.5755 64.3737 41.6117C62.8033 42.6478 61.0215 43.9384 61.0215 43.9384H126.308C126.308 43.9384 127.081 41.5814 124.242 40.0241Z" fill="#00C29C"/>
<g opacity="0.5">
<path d="M124.242 40.0241C121.409 38.4729 120.117 39.7696 119.084 38.4729C118.051 37.1762 121.923 33.8133 114.186 30.4504C114.186 30.4504 113.666 23.1793 103.09 22.943C92.514 22.7066 95.3528 30.2141 92.514 32.0319C89.6752 33.8497 88.89 30.9958 86.0633 32.8075C83.2366 34.6192 84.5171 38.2609 82.1917 38.7638C79.8663 39.2667 76.7557 36.431 73.941 38.2427C71.1264 40.0544 71.1022 41.6117 69.8097 41.6117C68.5171 41.6117 65.9441 40.5755 64.3737 41.6117C62.8033 42.6478 61.0215 43.9384 61.0215 43.9384H126.308C126.308 43.9384 127.081 41.5814 124.242 40.0241Z" fill="white"/>
</g>
<path d="M70.4261 35.8493C68.6866 34.898 67.9014 35.6918 67.2672 34.898C66.633 34.1042 69.0067 32.0441 64.2472 29.99C64.2472 29.99 63.927 25.5546 57.4582 25.397C50.9894 25.2395 52.7228 29.8324 50.9833 30.9352C49.2438 32.038 48.7787 30.3293 47.0392 31.4139C45.2997 32.4985 46.1151 34.7405 44.6957 35.0555C43.2763 35.3706 41.3797 33.6316 39.6462 34.7405C37.9128 35.8493 37.9067 36.7946 37.1215 36.7946C36.3363 36.7946 34.7478 36.1886 33.8056 36.7946C32.8633 37.4005 31.752 38.2246 31.752 38.2246H71.6884C71.6884 38.2246 72.1596 36.7946 70.4261 35.8493Z" fill="#00C29C"/>
<g opacity="0.5">
<path d="M70.4261 35.8493C68.6866 34.898 67.9014 35.6918 67.2672 34.898C66.633 34.1042 69.0067 32.0441 64.2472 29.99C64.2472 29.99 63.927 25.5546 57.4582 25.397C50.9894 25.2395 52.7228 29.8324 50.9833 30.9352C49.2438 32.038 48.7787 30.3293 47.0392 31.4139C45.2997 32.4985 46.1151 34.7405 44.6957 35.0555C43.2763 35.3706 41.3797 33.6316 39.6462 34.7405C37.9128 35.8493 37.9067 36.7946 37.1215 36.7946C36.3363 36.7946 34.7478 36.1886 33.8056 36.7946C32.8633 37.4005 31.752 38.2246 31.752 38.2246H71.6884C71.6884 38.2246 72.1596 36.7946 70.4261 35.8493Z" fill="white"/>
</g>
<path d="M286.706 90.3891C284.967 89.4378 284.181 90.2316 283.547 89.4378C282.913 88.644 285.287 86.5899 280.527 84.5298C280.527 84.5298 280.207 80.0944 273.738 79.9368C267.269 79.7793 269.003 84.3722 267.263 85.4811C265.524 86.5899 265.059 84.8448 263.319 85.9537C261.58 87.0625 262.371 89.2802 260.952 89.5893C259.532 89.8983 257.636 88.1653 255.902 89.2742C254.169 90.383 254.163 91.3344 253.377 91.3344C252.592 91.3344 251.004 90.7284 250.061 91.3344C249.119 91.9403 248.008 92.7583 248.008 92.7583H287.944C287.944 92.7583 288.44 91.3404 286.706 90.3891Z" fill="#00C29C"/>
<g opacity="0.5">
<path d="M286.706 90.3891C284.967 89.4378 284.181 90.2316 283.547 89.4378C282.913 88.644 285.287 86.5899 280.527 84.5298C280.527 84.5298 280.207 80.0944 273.738 79.9368C267.269 79.7793 269.003 84.3722 267.263 85.4811C265.524 86.5899 265.059 84.8448 263.319 85.9537C261.58 87.0625 262.371 89.2802 260.952 89.5893C259.532 89.8983 257.636 88.1653 255.902 89.2742C254.169 90.383 254.163 91.3344 253.377 91.3344C252.592 91.3344 251.004 90.7284 250.061 91.3344C249.119 91.9403 248.008 92.7583 248.008 92.7583H287.944C287.944 92.7583 288.44 91.3404 286.706 90.3891Z" fill="white"/>
</g>
<path d="M151.356 108.203C151.356 108.203 175.703 110.627 188.043 125.775C188.043 125.775 201.077 108.234 224.495 108.591C230.216 101.666 233.858 93.2534 234.998 84.3322C236.138 75.411 234.728 66.3485 230.933 58.1999C227.138 50.0513 221.113 43.1519 213.561 38.305C206.009 33.4581 197.239 30.8631 188.274 30.8223C179.308 30.7814 170.516 33.2963 162.92 38.0742C155.324 42.8521 149.237 49.6963 145.368 57.81C141.499 65.9237 140.008 74.973 141.067 83.9042C142.126 92.8354 145.692 101.281 151.35 108.258L151.356 108.203Z" fill="#00C29C"/>
<path opacity="0.5" d="M151.356 108.203C151.356 108.203 175.703 110.627 188.043 125.775C188.043 125.775 201.077 108.234 224.495 108.591C230.216 101.666 233.858 93.2534 234.998 84.3322C236.138 75.411 234.728 66.3485 230.933 58.1999C227.138 50.0513 221.113 43.1519 213.561 38.305C206.009 33.4581 197.239 30.8631 188.274 30.8223C179.308 30.7814 170.516 33.2963 162.92 38.0742C155.324 42.8521 149.237 49.6963 145.368 57.81C141.499 65.9237 140.008 74.973 141.067 83.9042C142.126 92.8354 145.692 101.281 151.35 108.258L151.356 108.203Z" fill="#00C29C"/>
<path d="M187.234 34.1587L186.412 281.954H190.525L187.234 34.1587Z" fill="#828282"/>
<path d="M188.448 121.146C188.448 121.146 196.662 106.307 211.46 101.756C211.46 101.756 195.841 105.47 188.037 118.25L188.448 121.146Z" fill="#828282"/>
<path d="M187.572 79.5005C187.572 79.5005 196.687 64.2553 211.485 59.7229C211.485 59.7229 195.382 64.3704 187.572 77.1494V79.5005Z" fill="#828282"/>
<path d="M187.892 101.181C187.892 101.181 196.686 85.2811 211.484 80.7488C211.484 80.7488 195.49 85.1963 187.681 97.9754L187.892 101.181Z" fill="#828282"/>
<path d="M187.239 89.8133C187.239 89.8133 179.309 74.9741 165.03 70.4236C165.03 70.4236 180.1 74.1319 187.632 86.9109L187.239 89.8133Z" fill="#828282"/>
<path d="M187.239 110.427C187.239 110.427 179.309 95.5879 165.03 91.0374C165.03 91.0374 180.1 94.7456 187.632 107.525L187.239 110.427Z" fill="#828282"/>
<path d="M30.8458 166.542C30.8458 166.542 47.0209 168.148 55.2172 178.206C55.2172 178.206 63.8786 166.554 79.4316 166.791C83.2238 162.195 85.6374 156.613 86.3916 150.695C87.1457 144.777 86.2095 138.766 83.6918 133.361C81.1741 127.956 77.1785 123.379 72.1695 120.162C67.1606 116.946 61.3443 115.222 55.3972 115.192C49.4501 115.161 43.6166 116.825 38.5752 119.99C33.5339 123.155 29.4919 127.691 26.9194 133.07C24.3469 138.45 23.3497 144.451 24.0437 150.376C24.7377 156.302 27.0945 161.908 30.8398 166.542H30.8458Z" fill="#00C29C"/>
<path d="M30.8458 166.542C30.8458 166.542 47.0209 168.148 55.2172 178.206C55.2172 178.206 63.8786 166.554 79.4316 166.791C83.2238 162.195 85.6374 156.613 86.3916 150.695C87.1457 144.777 86.2095 138.766 83.6918 133.361C81.1741 127.956 77.1785 123.379 72.1695 120.162C67.1606 116.946 61.3443 115.222 55.3972 115.192C49.4501 115.161 43.6166 116.825 38.5752 119.99C33.5339 123.155 29.4919 127.691 26.9194 133.07C24.3469 138.45 23.3497 144.451 24.0437 150.376C24.7377 156.302 27.0945 161.908 30.8398 166.542H30.8458Z" fill="#00C29C"/>
<path opacity="0.5" d="M30.8458 166.542C30.8458 166.542 47.0209 168.148 55.2172 178.206C55.2172 178.206 63.8786 166.554 79.4316 166.791C83.2238 162.195 85.6374 156.613 86.3916 150.695C87.1457 144.777 86.2095 138.766 83.6918 133.361C81.1741 127.956 77.1785 123.379 72.1695 120.162C67.1606 116.946 61.3443 115.222 55.3972 115.192C49.4501 115.161 43.6166 116.825 38.5752 119.99C33.5339 123.155 29.4919 127.691 26.9194 133.07C24.3469 138.45 23.3497 144.451 24.0437 150.376C24.7377 156.302 27.0945 161.908 30.8398 166.542H30.8458Z" fill="white"/>
<path d="M54.6793 117.341L54.1357 281.953H56.8658L54.6793 117.341Z" fill="#828282"/>
<path d="M55.5013 175.128C55.5013 175.128 60.9373 165.27 70.7885 162.258C70.7885 162.258 60.4118 164.724 55.2295 173.214L55.5013 175.128Z" fill="#828282"/>
<path d="M54.9033 147.461C54.9033 147.461 60.9433 137.336 70.7885 134.325C70.7885 134.325 60.0917 137.409 54.9033 145.898V147.461Z" fill="#828282"/>
<path d="M55.1146 161.865C55.1146 161.865 60.9613 151.303 70.8186 148.292C70.8186 148.292 60.1942 151.243 55.0059 159.738L55.1146 161.865Z" fill="#828282"/>
<path d="M54.6922 154.315C54.6922 154.315 49.4193 144.456 39.9365 141.445C39.9365 141.445 49.9508 143.911 54.952 152.4L54.6922 154.315Z" fill="#828282"/>
<path d="M54.6922 168.008C54.6922 168.008 49.4193 158.15 39.9365 155.138C39.9365 155.138 49.9508 157.599 54.952 166.094L54.6922 168.008Z" fill="#828282"/>
<path d="M235.306 166.542C235.306 166.542 251.481 168.148 259.677 178.206C259.677 178.206 268.339 166.554 283.898 166.791C287.698 162.19 290.118 156.601 290.874 150.674C291.631 144.748 290.694 138.727 288.173 133.314C285.651 127.901 281.649 123.318 276.631 120.098C271.614 116.878 265.788 115.155 259.832 115.128C253.876 115.102 248.035 116.773 242.989 119.947C237.943 123.121 233.9 127.669 231.33 133.059C228.76 138.449 227.769 144.461 228.473 150.394C229.177 156.327 231.547 161.938 235.306 166.572V166.542Z" fill="#00C29C"/>
<path opacity="0.3" d="M235.306 166.542C235.306 166.542 251.481 168.148 259.677 178.206C259.677 178.206 268.339 166.554 283.898 166.791C287.698 162.19 290.118 156.601 290.874 150.674C291.631 144.748 290.694 138.727 288.173 133.314C285.651 127.901 281.649 123.318 276.631 120.098C271.614 116.878 265.788 115.155 259.832 115.128C253.876 115.102 248.035 116.773 242.989 119.947C237.943 123.121 233.9 127.669 231.33 133.059C228.76 138.449 227.769 144.461 228.473 150.394C229.177 156.327 231.547 161.938 235.306 166.572V166.542Z" fill="white"/>
<path d="M259.145 117.341L258.596 281.953H261.326L259.145 117.341Z" fill="#828282"/>
<path d="M259.961 175.128C259.961 175.128 265.397 165.27 275.248 162.258C275.248 162.258 264.878 164.724 259.689 173.214L259.961 175.128Z" fill="#828282"/>
<path d="M259.369 147.461C259.369 147.461 265.409 137.336 275.248 134.325C275.248 134.325 264.558 137.409 259.369 145.898V147.461Z" fill="#828282"/>
<path d="M259.58 161.865C259.58 161.865 265.421 151.303 275.248 148.292C275.248 148.292 264.624 151.243 259.441 159.738L259.58 161.865Z" fill="#828282"/>
<path d="M259.152 154.315C259.152 154.315 253.885 144.456 244.402 141.445C244.402 141.445 254.411 143.911 259.418 152.4L259.152 154.315Z" fill="#828282"/>
<path d="M259.152 168.008C259.152 168.008 253.885 158.15 244.402 155.138C244.402 155.138 254.411 157.599 259.418 166.094L259.152 168.008Z" fill="#828282"/>
<path d="M93.2092 241.902C95.1138 246.616 96.0577 251.665 95.9851 256.751C95.9124 261.837 94.8248 266.856 92.7864 271.514L88.4617 281.336C88.3755 281.53 88.3107 281.733 88.2685 281.942H92.2911L95.8124 273.937C98.178 268.54 99.4406 262.721 99.5257 256.825C99.6108 250.929 98.5165 245.076 96.3077 239.611L88.4134 220.222C88.1536 219.583 88.0544 218.891 88.1247 218.205C88.195 217.519 88.4325 216.861 88.8164 216.289C89.2003 215.717 89.7186 215.249 90.3257 214.925C90.9327 214.602 91.6098 214.434 92.2971 214.435H110.278C111.939 214.435 113.298 216.162 113.298 214.496C113.298 213.692 112.98 212.922 112.414 212.353C111.847 211.785 111.079 211.466 110.278 211.466H94.7675C93.0959 211.466 91.4499 211.879 89.9751 212.668C88.5003 213.458 87.242 214.599 86.3115 215.992C84.4089 218.822 84.0465 219.325 85.327 222.482L93.2092 241.902Z" fill="#A3A3A3"/>
<path d="M110.284 195.263H107.898V281.735H110.284V195.263Z" fill="#A3A3A3"/>
<path d="M282.067 195.263H279.682V281.735H282.067V195.263Z" fill="#A3A3A3"/>
<path d="M280.733 189.283H106.702V201.838H280.733V189.283Z" fill="#BDBDBD"/>
<path d="M280.733 204.231H106.702V216.786H280.733V204.231Z" fill="#BDBDBD"/>
<path d="M280.733 233.528H93.8193V237.715H280.733V233.528Z" fill="#BDBDBD"/>
<path d="M280.733 233.528H251.004V237.715H280.733V233.528Z" fill="#878787"/>
<path d="M255.051 220.209C254.79 219.572 254.69 218.879 254.759 218.193C254.828 217.507 255.065 216.849 255.448 216.277C255.832 215.704 256.35 215.236 256.957 214.912C257.564 214.589 258.242 214.421 258.929 214.423H280.727V211.472H261.399C259.728 211.472 258.082 211.885 256.607 212.674C255.132 213.463 253.874 214.605 252.943 215.998C251.047 218.828 250.678 219.331 251.965 222.488L259.853 241.877C261.759 246.591 262.704 251.64 262.631 256.726C262.559 261.813 261.47 266.832 259.43 271.489L255.106 281.311C255.019 281.506 254.954 281.709 254.912 281.917H258.935L262.462 273.913C264.825 268.514 266.086 262.695 266.17 256.8C266.254 250.904 265.16 245.051 262.951 239.587L255.051 220.209Z" fill="#A3A3A3"/>
<path d="M171.887 74.144L172.382 74.2531C173.759 74.5924 177.601 75.7921 178.422 78.7127C179.406 82.2938 175.1 85.2507 174.611 85.8688C174.121 86.4868 168.196 76.8646 167.58 76.489C166.964 76.1133 168.317 72.2959 171.887 74.144Z" fill="#C7C7C7" stroke="#8A8A8A" stroke-width="0.964856" stroke-linecap="round" stroke-linejoin="round"/>
<path d="M176.555 267.127L177.763 270.259C177.763 270.259 175.245 271.271 175.951 271.877C176.53 272.348 177.135 272.785 177.763 273.186C177.763 273.186 178.669 280.257 178.669 280.663C178.681 280.935 178.749 281.202 178.871 281.445C178.993 281.689 179.165 281.904 179.376 282.075C179.775 282.275 184.607 281.875 187.427 281.063C190.248 280.251 200.214 275.816 201.621 274.804C203.029 273.792 206.453 270.762 206.556 269.854C206.659 268.945 206.858 268.036 205.952 267.939C205.046 267.842 197.593 269.151 194.573 269.151C192.613 269.189 190.664 268.845 188.835 268.139C188.533 267.939 187.929 265.109 187.325 264.909C186.721 264.709 185.011 265.212 185.011 265.212L184.51 263.394L175.849 265.715L176.555 267.127Z" fill="white" stroke="#263238" stroke-width="0.964856" stroke-linecap="round" stroke-linejoin="round"/>
<path d="M185.313 269.55C184.709 270.459 180.681 271.471 179.678 270.865C179.1 270.507 178.442 270.299 177.763 270.259C177.763 270.259 175.245 271.271 175.951 271.877C176.53 272.348 177.135 272.785 177.763 273.186C177.763 273.186 178.669 280.257 178.669 280.663C178.681 280.935 178.749 281.202 178.871 281.445C178.993 281.689 179.165 281.903 179.376 282.075C179.775 282.275 184.607 281.875 187.427 281.063C190.248 280.251 200.214 275.816 201.621 274.804C203.029 273.792 206.453 270.762 206.556 269.853C206.659 268.945 206.858 268.036 205.952 267.939C205.046 267.842 197.593 269.151 194.573 269.151C192.613 269.189 190.664 268.845 188.835 268.139C188.533 267.939 187.929 265.109 187.325 264.909C186.721 264.709 185.011 265.212 185.011 265.212C184.607 265.594 185.917 268.623 185.313 269.55Z" fill="white" stroke="#263238" stroke-width="0.964856" stroke-linecap="round" stroke-linejoin="round"/>
<path d="M200.111 273.071C197.194 275.089 193.268 276.101 187.427 277.41C182.927 278.421 179.756 279.076 178.53 279.318C178.615 280.033 178.669 280.53 178.669 280.645C178.68 280.917 178.749 281.184 178.871 281.427C178.993 281.671 179.165 281.885 179.376 282.057C179.775 282.257 184.607 281.857 187.427 281.045C190.248 280.233 200.214 275.798 201.621 274.786C203.029 273.774 206.453 270.744 206.556 269.835C206.659 268.926 206.858 268.018 205.952 267.921C204.259 269.907 202.292 271.642 200.111 273.071Z" fill="white" stroke="#263238" stroke-width="0.964856" stroke-linecap="round" stroke-linejoin="round"/>
<path d="M175.045 264.485C175.045 264.485 175.045 267.211 176.555 267.514C178.065 267.817 183.906 266.199 185.011 265.194C186.116 264.188 184.304 261.455 184.304 261.455L174.846 263.776L175.045 264.485Z" fill="#263238" stroke="#263238" stroke-width="0.964856" stroke-linecap="round" stroke-linejoin="round"/>
<path d="M112.888 257.432L110.768 260.322C110.768 260.322 110.768 259.11 109.862 259.558C108.956 260.007 108.346 260.77 107.663 262.297C106.981 263.824 103.653 268.217 103.955 269.356C104.257 270.495 111.07 273.992 112.967 275.967C114.863 277.942 117.279 279.536 119.399 279.687C121.519 279.839 128.936 279.912 129.921 279.457C130.905 279.003 130.682 277.712 130.223 276.724C129.764 275.737 124.926 273.61 124.394 273.156C123.863 272.701 120.613 267.096 120.456 266.321C120.299 265.545 121.664 262.976 120.915 262.297C120.75 262.102 120.517 261.976 120.264 261.947C120.01 261.918 119.755 261.987 119.55 262.14L120.758 260.092L112.888 257.432Z" fill="white" stroke="#263238" stroke-width="0.964856" stroke-linecap="round" stroke-linejoin="round"/>
<path d="M109.862 259.583C108.95 260.043 108.346 260.795 107.663 262.321C106.981 263.848 103.653 268.241 103.955 269.381C104.257 270.52 111.07 274.016 112.967 275.991C114.863 277.967 117.279 279.56 119.399 279.712C121.519 279.863 128.936 279.936 129.921 279.481C130.905 279.027 130.682 277.736 130.223 276.749C129.764 275.761 124.926 273.634 124.394 273.18C123.863 272.725 120.613 267.12 120.456 266.345C120.299 265.569 121.664 263 120.915 262.321C120.75 262.126 120.517 262.001 120.264 261.971C120.01 261.942 119.755 262.011 119.55 262.164C119.55 262.164 119.55 263.836 118.946 263.915C118.342 263.994 115.763 264.6 113.722 263.988C111.68 263.376 110.768 260.352 110.768 260.352L110.726 260.001C110.647 259.68 110.436 259.298 109.862 259.583Z" fill="white" stroke="#263238" stroke-width="0.964856" stroke-linecap="round" stroke-linejoin="round"/>
<path d="M120.232 277.809C117.732 277.052 113.117 273.253 111.299 271.053C109.481 268.854 105.471 266.497 105.471 266.497H105.144C104.401 267.751 103.822 268.92 103.936 269.399C104.238 270.538 111.052 274.034 112.948 276.01C114.845 277.985 117.261 279.579 119.381 279.73C121.501 279.882 128.918 279.954 129.902 279.5C130.172 279.357 130.385 279.126 130.507 278.845C130.629 278.564 130.652 278.25 130.573 277.955L130.434 277.985C129.165 278.191 122.727 278.573 120.232 277.809Z" fill="white" stroke="#263238" stroke-width="0.964856" stroke-linecap="round" stroke-linejoin="round"/>
<path d="M114.241 253.378L112.513 256.529C112.341 256.845 112.299 257.217 112.399 257.563C112.499 257.909 112.731 258.202 113.045 258.377L118.825 261.57C118.987 261.659 119.166 261.714 119.349 261.732C119.533 261.75 119.719 261.729 119.894 261.673C120.07 261.616 120.233 261.524 120.372 261.402C120.511 261.28 120.624 261.131 120.704 260.964L122.298 257.62L114.241 253.378Z" fill="#263238" stroke="#263238" stroke-width="0.964856" stroke-linecap="round" stroke-linejoin="round"/>
<path d="M128.537 177.837C128.537 177.837 125.318 189.15 126.121 194.397C126.924 199.644 127.734 204.498 127.734 206.516C127.734 208.533 124.913 229.541 123.101 233.176C121.289 236.812 112.03 251.354 112.634 253.578C113.238 255.802 122.696 259.031 124.508 259.437C126.32 259.843 128.537 258.426 130.15 256.408C131.762 254.39 141.221 238.024 144.44 231.565C147.66 225.105 149.478 220.858 150.082 219.446C150.55 218.257 150.953 217.043 151.29 215.811C151.29 215.811 161.153 229.947 163.37 236.812C165.586 243.677 169.609 257.62 170.014 260.243C170.418 262.867 172.025 264.485 175.045 264.485C178.065 264.485 185.114 263.273 185.512 260.649C185.911 258.026 183.096 234.188 182.698 228.735C182.299 223.282 178.868 212.981 175.848 205.104C172.828 197.227 169.609 190.361 169.609 190.361L168.806 181.472L131.756 177.837H128.537Z" fill="#00C29C" stroke="#263238" stroke-width="0.964856" stroke-linecap="round" stroke-linejoin="round"/>
<path d="M151.29 215.81L153.706 205.51L162.561 197.833" stroke="#263238" stroke-width="0.964856" stroke-linecap="round" stroke-linejoin="round"/>
<path d="M165.115 200.911C165.574 200.644 165.943 200.42 166.184 200.256" stroke="#263238" stroke-width="0.964856" stroke-linecap="round" stroke-linejoin="round"/>
<path d="M155.518 206.116C155.518 206.116 159.806 203.862 163.025 202.086" stroke="#263238" stroke-width="0.964856" stroke-linecap="round" stroke-linejoin="round"/>
<path d="M137.597 182.684C137.597 182.684 139.21 189.35 134.378 193.391" stroke="#263238" stroke-width="0.964856" stroke-linecap="round" stroke-linejoin="round"/>
<path d="M129.141 173.395C129.141 173.395 127.528 177.837 128.338 178.849C129.147 179.861 144.44 183.09 154.708 182.884C164.976 182.678 168.401 182.278 168.806 181.472C169.21 180.666 169.41 176.625 169.41 176.625C169.41 176.625 161.757 178.443 150.686 177.031C139.614 175.619 132.964 174.001 132.964 174.001C132.964 174.001 129.546 172.789 129.141 173.395Z" fill="#263238" stroke="#263238" stroke-width="0.964856" stroke-linecap="round" stroke-linejoin="round"/>
<path d="M134.202 134.477C134.202 134.477 124.659 149.328 124.659 151.867C124.659 154.406 134.202 163.592 134.788 164.179C135.374 164.767 138.491 155.193 138.491 147.571C138.385 142.522 137.532 137.517 135.96 132.719L134.202 134.477Z" fill="#00C29C" stroke="#263238" stroke-width="0.964856" stroke-linecap="round" stroke-linejoin="round"/>
<path d="M139.108 120.322C139.108 120.322 133.672 128.805 133.37 132.138C133.068 135.47 133.37 149.71 133.219 153.951C133.068 158.193 127.934 172.129 127.934 174.25C127.934 176.371 139.108 179.552 152.547 179.855C165.986 180.158 170.969 177.885 172.026 175.916C173.083 173.947 171.875 165.615 171.724 161.374C171.573 157.132 172.026 147.134 172.177 142.893C172.328 138.651 170.516 132.289 167.949 128.654C166.166 125.981 164.649 123.14 163.419 120.171C158.483 119.055 153.493 118.195 148.47 117.595C141.373 116.856 139.108 120.322 139.108 120.322Z" fill="#00C29C" stroke="#263238" stroke-width="0.964856" stroke-linecap="round" stroke-linejoin="round"/>
<path d="M160.096 163.634C158.909 166.083 157.48 168.407 155.832 170.572C154.483 172.191 152.844 173.543 151 174.559L152.764 175.886C152.764 175.886 158.061 172.638 162.18 163.634H160.096Z" fill="#263238" stroke="#263238" stroke-width="0.964856" stroke-linecap="round" stroke-linejoin="round"/>
<path d="M171.391 77.604C171.391 77.604 174.96 81.6758 175.577 84.2692C176.193 86.8626 175.45 89.5711 175.818 90.686C176.187 91.8009 178.772 94.261 178.403 95.4971C178.035 96.7332 176.434 97.4724 176.434 97.4724C176.434 97.4724 176.313 104.259 175.329 106.355C174.344 108.452 171.391 109.318 169.893 109.318C168.395 109.318 166.819 109.197 166.819 109.197C166.819 109.197 164.97 112.651 163.986 115.117C163.001 117.583 164.354 121.54 164.723 122.522C165.091 123.503 165.834 124.376 164.97 124.624C164.107 124.873 162.754 123.412 158.93 121.043C155.107 118.674 147.611 113.639 147.611 113.639C147.611 113.639 150.813 109.815 151.181 106.483C151.549 103.15 150.444 96.6059 153.271 88.7107C156.098 80.8154 162.536 77.2343 164.892 76.8647C167.247 76.4951 170.932 76.8647 171.391 77.604Z" fill="white" stroke="#263238" stroke-width="0.964856" stroke-linecap="round" stroke-linejoin="round"/>
<path d="M166.843 109.197L162.905 107.222C162.905 107.222 160.567 112.899 160.44 113.76" stroke="#263238" stroke-width="0.964856" stroke-linecap="round" stroke-linejoin="round"/>
<path d="M155.524 112.403L157.125 109.937" stroke="#263238" stroke-width="0.964856" stroke-linecap="round" stroke-linejoin="round"/>
<path d="M174.344 93.4006C174.344 93.4006 173.608 95.1275 171.022 95.7456" stroke="#263238" stroke-width="0.964856" stroke-linecap="round" stroke-linejoin="round"/>
<path d="M170.775 87.3534C170.775 87.3534 172.255 85.2509 174.097 86.487" stroke="#263238" stroke-width="0.964856" stroke-linecap="round" stroke-linejoin="round"/>
<path d="M175.698 101.423C174.66 101.476 173.62 101.351 172.623 101.054C171.503 100.628 170.493 99.9524 169.67 99.0784C169.67 99.0784 170.274 102.781 171.482 103.15C172.69 103.52 175.698 101.423 175.698 101.423Z" fill="#263238" stroke="#263238" stroke-width="0.964856" stroke-linecap="round" stroke-linejoin="round"/>
<path d="M170.534 98.333C169.575 98.802 168.765 99.5301 168.196 100.436" stroke="#263238" stroke-width="0.964856" stroke-linecap="round" stroke-linejoin="round"/>
<path d="M173.85 90.8677C173.85 91.5827 173.578 92.1644 173.246 92.1644C172.913 92.1644 172.642 91.5585 172.642 90.8677C172.642 90.177 172.913 89.571 173.246 89.571C173.578 89.571 173.85 90.1527 173.85 90.8677Z" fill="#263238"/>
<path d="M170.932 77.7252C170.932 77.7252 170.564 82.1666 168.715 84.8812C166.867 87.5958 163.056 89.8195 162.071 96.1151C161.473 100.613 161.271 105.155 161.467 109.688C161.467 109.688 158.272 110.676 151.26 109.318C144.247 107.961 139.452 106.725 138.576 102.653C137.7 98.5813 139.56 93.0309 142.145 88.3411C144.731 83.6512 145.341 77.4767 149.031 74.2714C152.721 71.066 164.04 71.9264 167.115 72.4172C170.189 72.908 172.774 73.9017 172.901 75.259C173.028 76.6163 170.932 77.7252 170.932 77.7252Z" fill="#C7C7C7" stroke="#8A8A8A" stroke-width="0.964856" stroke-linecap="round" stroke-linejoin="round"/>
<path d="M153.651 106.658C153.784 107.725 153.917 108.397 153.917 108.397" stroke="#8A8A8A" stroke-width="0.964856" stroke-linecap="round" stroke-linejoin="round"/>
<path d="M164.934 74.7439C164.934 74.7439 162.633 77.7129 162.959 81.0092C163.285 84.3055 160.495 89.7588 157.861 92.5582C155.228 95.3576 153.416 99.9869 153.416 102.956C153.416 103.18 153.416 103.398 153.416 103.616" stroke="#8A8A8A" stroke-width="0.964856" stroke-linecap="round" stroke-linejoin="round"/>
<path d="M157.548 76.0648C157.686 75.5085 157.965 74.9972 158.357 74.5803" stroke="#8A8A8A" stroke-width="0.964856" stroke-linecap="round" stroke-linejoin="round"/>
<path d="M147.503 107.41C147.503 107.41 143.879 103.944 147.666 98.1693C151.453 92.3947 155.065 90.2498 156.382 85.4447C156.896 83.2805 157.166 81.0649 157.185 78.8401" stroke="#8A8A8A" stroke-width="0.964856" stroke-linecap="round" stroke-linejoin="round"/>
<path d="M149.225 79.4702C148.605 80.3658 148.238 81.4124 148.162 82.4999C148.162 85.6386 145.691 91.4131 144.707 92.5644C143.722 93.7156 138.455 98.9993 140.104 104.283" stroke="#8A8A8A" stroke-width="0.964856" stroke-linecap="round" stroke-linejoin="round"/>
<path d="M152.764 75.4045C152.21 75.894 151.682 76.4117 151.182 76.9557" stroke="#8A8A8A" stroke-width="0.964856" stroke-linecap="round" stroke-linejoin="round"/>
<path d="M165.496 124.994C165.496 124.994 161.564 122.649 156.889 117.341C152.214 112.033 146.047 109.585 144.084 109.585C142.121 109.585 141.372 110.076 140.394 112.3C139.415 114.523 137.193 118.468 137.313 120.074C137.434 121.679 138.914 122.17 140.394 121.928C141.874 121.685 143.957 120.716 148.143 121.061C152.329 121.407 158.967 124.642 161.057 125.382C163.146 126.121 165.242 126.987 165.979 125.382" fill="#263238"/>
<path d="M165.496 124.994C165.496 124.994 161.564 122.649 156.889 117.341C152.214 112.033 146.047 109.585 144.084 109.585C142.121 109.585 141.372 110.076 140.394 112.3C139.415 114.523 137.193 118.468 137.313 120.074C137.434 121.679 138.914 122.17 140.394 121.928C141.874 121.685 143.957 120.716 148.143 121.061C152.329 121.407 158.967 124.642 161.057 125.382C163.146 126.121 165.242 126.987 165.979 125.382" stroke="#263238" stroke-width="0.964856" stroke-linecap="round" stroke-linejoin="round"/>
<path d="M188.979 142.511C188.979 142.511 191.184 138.803 191.522 137.209C191.861 135.616 193.775 134.361 194.627 134.307C195.298 134.344 195.949 134.553 196.517 134.913C197.007 134.687 197.557 134.632 198.081 134.756C198.606 134.88 199.073 135.176 199.411 135.598C200.782 137.094 199.713 138.3 199.713 138.3C199.713 138.3 201.482 139.342 199.562 143.032C197.641 146.722 191.154 147.965 190.435 147.88C189.716 147.795 188.979 142.511 188.979 142.511Z" fill="white" stroke="#263238" stroke-width="0.964856" stroke-linecap="round" stroke-linejoin="round"/>
<path d="M183.73 142.966L188.786 140.936C188.886 140.895 188.994 140.875 189.102 140.879C189.21 140.882 189.317 140.908 189.415 140.954C189.512 141.001 189.599 141.068 189.67 141.15C189.741 141.232 189.793 141.329 189.825 141.433L191.685 147.662C191.74 147.849 191.723 148.05 191.638 148.226C191.553 148.402 191.407 148.54 191.226 148.613L186.871 150.358L183.73 142.966Z" fill="#263238" stroke="#263238" stroke-width="0.964856" stroke-linecap="round" stroke-linejoin="round"/>
<path d="M141.427 126.86C141.427 126.86 139.373 133.138 139.989 136.391C140.605 139.645 146.597 163.901 148.149 166.082C149.702 168.263 151.496 167.173 153.501 167.342C155.506 167.512 179.986 159.338 183.145 157.29C186.304 155.242 188.309 155.411 188.14 152.564C187.971 149.716 187.373 144.311 183.731 142.954C180.089 141.596 175.668 144.165 172.025 145.214C168.383 146.262 162.476 147.795 162.476 147.795C162.476 147.795 161.776 133.386 160.586 130.168C160.124 128.849 159.382 127.645 158.413 126.64C157.443 125.635 156.268 124.852 154.969 124.345" fill="#00C29C"/>
<path d="M141.427 126.86C141.427 126.86 139.373 133.138 139.989 136.391C140.605 139.645 146.597 163.901 148.149 166.082C149.702 168.263 151.496 167.173 153.501 167.342C155.506 167.512 179.986 159.338 183.145 157.29C186.304 155.242 188.309 155.411 188.14 152.564C187.971 149.716 187.373 144.311 183.731 142.954C180.089 141.596 175.668 144.165 172.025 145.214C168.383 146.262 162.476 147.795 162.476 147.795C162.476 147.795 161.776 133.386 160.586 130.168C160.124 128.849 159.382 127.645 158.413 126.64C157.443 125.635 156.268 124.852 154.969 124.345" stroke="#263238" stroke-width="0.964856" stroke-linecap="round" stroke-linejoin="round"/>
<path d="M156.617 154.793C157.421 152.976 158.653 150.722 160.29 149.34" stroke="#263238" stroke-width="0.964856" stroke-linecap="round" stroke-linejoin="round"/>
<path d="M155.506 157.793C155.506 157.793 155.699 157.102 156.11 156.096" stroke="#263238" stroke-width="0.964856" stroke-linecap="round" stroke-linejoin="round"/>
<path d="M156.437 151.873C156.437 151.873 159.046 147.71 161.317 147.577" stroke="#263238" stroke-width="0.964856" stroke-linecap="round" stroke-linejoin="round"/>
<path d="M151.755 125.557L154.358 118.601C154.358 118.601 160.857 115.572 161.503 115.572C162.15 115.572 164.97 124.915 164.523 125.569C164.076 126.224 159.969 128.829 158.453 129.696C157.229 130.287 155.91 130.656 154.557 130.786L151.755 125.557Z" fill="white" stroke="#263238" stroke-width="0.964856" stroke-linecap="round" stroke-linejoin="round"/>
<path d="M158.689 121.207C158.689 121.207 161.075 125.994 161.709 125.994C162.343 125.994 165.611 124.685 165.611 123.818C165.611 122.952 163.877 117.947 163.442 116.644C163.007 115.341 159.975 116.426 158.894 116.862C157.813 117.299 157.39 118.601 158.689 121.207Z" fill="white" stroke="#263238" stroke-width="0.964856" stroke-linecap="round" stroke-linejoin="round"/>
<path d="M151.755 125.557C151.755 125.557 152.625 119.038 153.488 118.819C154.352 118.601 157.173 115.56 157.825 115.56C158.477 115.56 161.075 116.862 161.075 116.862C161.075 116.862 163.237 121.861 162.373 122.516C161.509 123.17 159.77 119.904 159.77 119.904C159.77 119.904 158.471 123.164 156.955 124.037L155.439 124.903" fill="white"/>
<path d="M151.755 125.557C151.755 125.557 152.625 119.038 153.488 118.819C154.352 118.601 157.173 115.56 157.825 115.56C158.477 115.56 161.075 116.862 161.075 116.862C161.075 116.862 163.237 121.861 162.373 122.516C161.509 123.17 159.77 119.904 159.77 119.904C159.77 119.904 158.471 123.164 156.955 124.037L155.439 124.903" stroke="#263238" stroke-width="0.964856" stroke-linecap="round" stroke-linejoin="round"/>
<path d="M146.989 126.86L150.462 124.891C150.662 124.773 150.884 124.696 151.114 124.664C151.344 124.633 151.577 124.647 151.802 124.706C152.026 124.765 152.237 124.868 152.422 125.009C152.606 125.15 152.762 125.326 152.878 125.527L155.294 129.617C155.519 129.993 155.596 130.439 155.511 130.869C155.426 131.299 155.185 131.682 154.835 131.944L150.039 135.579L146.989 126.86Z" fill="white" stroke="#263238" stroke-width="0.964856" stroke-linecap="round" stroke-linejoin="round"/>
<path d="M112.948 111.863C115.542 114.523 117.865 117.436 119.882 120.559C122.697 125.121 130.065 135.337 130.065 135.337C130.065 135.337 141.541 128.381 143.716 127.078C145.89 125.776 146.53 125.557 148.046 127.078C149.562 128.599 153.054 134.683 152.208 136.852C151.362 139.021 140.509 147.941 136.172 150.788C131.835 153.636 128.809 156.242 124.261 152.746C119.713 149.249 110.369 120.14 108.877 117.317C107.385 114.493 111.456 110.797 112.948 111.863Z" fill="#263238" stroke="#263238" stroke-width="0.964856" stroke-linecap="round" stroke-linejoin="round"/>
<path d="M122.008 259.292L123.216 263.733C123.216 263.733 120.395 265.351 120.999 266.763C121.603 268.175 123.62 268.381 123.62 268.381C123.62 268.381 125.632 280.699 127.244 281.305C128.857 281.911 140.931 280.093 143.552 278.882C146.174 277.67 152.407 275.246 152.812 271.816C153.216 268.387 151.803 268.581 150.595 268.787C149.387 268.993 144.356 269.393 141.94 269.393C139.524 269.393 136.908 267.775 136.908 267.775C136.908 267.775 136.703 262.728 135.7 261.916C134.698 261.104 131.672 262.122 131.672 262.122L130.663 257.274L122.008 259.292Z" fill="white" stroke="#263238" stroke-width="0.964856" stroke-linecap="round" stroke-linejoin="round"/>
<path d="M127.178 263.903C126.356 263.782 123.916 263.97 123.149 263.776C122.732 264.024 120.449 265.479 120.999 266.763C121.603 268.181 123.62 268.381 123.62 268.381C123.62 268.381 125.632 280.7 127.244 281.306C128.857 281.911 140.931 280.094 143.552 278.882C146.174 277.67 152.407 275.246 152.812 271.817C153.216 268.387 151.803 268.581 150.595 268.787C149.387 268.993 144.356 269.393 141.94 269.393C139.524 269.393 136.908 267.775 136.908 267.775C136.908 267.775 136.703 262.728 135.7 261.916C134.698 261.104 131.672 262.122 131.672 262.122L132.475 264.34C132.475 264.34 128.591 264.097 127.178 263.903Z" fill="#263238" stroke="#263238" stroke-width="0.964856" stroke-linecap="round" stroke-linejoin="round"/>
<path d="M152.389 269.011C151.712 270.108 149.888 271.895 146.349 273.858C142.326 276.082 135.882 275.676 131.454 276.688C129.512 277.128 127.548 277.467 125.571 277.706C126.103 279.621 126.689 281.13 127.226 281.342C128.833 281.948 140.913 280.13 143.534 278.918C146.156 277.706 152.389 275.282 152.794 271.853C152.999 270.205 152.812 269.399 152.389 269.011Z" fill="white" stroke="#263238" stroke-width="0.964856" stroke-linecap="round" stroke-linejoin="round"/>
<path d="M75.6992 251.415L74.0926 256.262C74.0926 256.262 69.4599 254.445 69.2606 256.668L69.0552 258.886C69.0552 258.886 63.4199 265.757 62.8159 267.169C62.2119 268.581 62.2119 269.999 63.8246 271.411C65.4373 272.823 68.2519 273.834 70.2632 275.852C72.2745 277.87 75.6992 280.5 78.1152 281.512C80.5312 282.523 87.7792 282.117 88.9872 281.306C90.1952 280.494 89.5912 278.682 88.7879 278.276C87.9846 277.87 83.1526 274.034 82.5486 272.217C81.9446 270.399 81.3406 264.945 81.3406 264.945C81.3406 264.945 84.1552 262.522 84.1552 261.516C84.1552 260.51 82.3432 259.898 82.3432 259.898L84.5055 255.657L75.6992 251.415Z" fill="white" stroke="#263238" stroke-width="0.964856" stroke-linecap="round" stroke-linejoin="round"/>
<path d="M69.2606 256.669L69.0552 258.886C69.0552 258.886 63.4199 265.758 62.8159 267.169C62.2119 268.581 62.2119 269.999 63.8246 271.411C65.4373 272.823 68.2519 273.835 70.2632 275.852C72.2745 277.87 75.6992 280.5 78.1152 281.512C80.5312 282.524 87.7792 282.118 88.9872 281.306C90.1952 280.494 89.5912 278.682 88.7879 278.276C87.9846 277.87 83.1526 274.034 82.5486 272.217C81.9446 270.399 81.3406 264.946 81.3406 264.946C81.3406 264.946 84.1552 262.522 84.1552 261.516C84.1552 260.51 82.3432 259.898 82.3432 259.898C81.854 260.001 78.1152 262.552 75.5965 260.668C74.8918 260.207 74.361 259.523 74.0884 258.725C73.8159 257.927 73.8174 257.06 74.0926 256.263C74.0926 256.263 69.4599 254.445 69.2606 256.669Z" fill="#263238" stroke="#263238" stroke-width="0.964856" stroke-linecap="round" stroke-linejoin="round"/>
<path d="M89.6093 279.482L89.2832 279.633C87.4047 280.506 82.4036 280.942 79.7943 280.36C77.1851 279.779 70.3055 274.107 68.566 269.75C67.358 266.678 65.1594 265.703 63.9635 265.388C63.5335 265.949 63.1497 266.545 62.8159 267.169C62.2119 268.581 62.2119 269.999 63.8246 271.411C65.4373 272.822 68.2519 273.834 70.2632 275.852C72.2745 277.87 75.6992 280.5 78.1152 281.511C80.5312 282.523 87.7792 282.117 88.9872 281.305C89.2708 281.107 89.484 280.824 89.5958 280.496C89.7077 280.168 89.7124 279.812 89.6093 279.482Z" fill="white" stroke="#263238" stroke-width="0.964856" stroke-linecap="round" stroke-linejoin="round"/>
<path d="M88.5887 197.487L89.7967 211.83C89.7967 211.83 82.748 220.313 80.7367 225.16C78.7253 230.008 73.8873 248.585 73.084 249.797C73.084 249.797 78.3207 254.645 80.7367 255.457C83.1527 256.269 89.7967 257.474 89.7967 257.474C89.7967 257.474 93.4207 246.768 96.4407 240.308C99.4607 233.849 104.897 225.36 106.908 219.907C108.919 214.453 109.324 209.806 109.729 208.394C110.133 206.982 111.136 201.929 111.136 201.929L88.5887 197.487Z" fill="#00C29C" stroke="#263238" stroke-width="0.964856" stroke-linecap="round" stroke-linejoin="round"/>
<path d="M75.9041 166.385C75.9041 166.385 77.5108 177.292 78.7188 182.339C79.9268 187.387 85.5681 197.287 89.7961 202.335C94.0241 207.382 104.292 217.283 104.292 217.283C107.03 220.964 108.826 225.262 109.523 229.802C110.531 237.073 113.352 258.486 114.155 260.304C114.959 262.122 118.987 262.522 123.016 261.716C127.045 260.91 132.475 260.91 132.879 258.686C133.284 256.463 127.643 226.978 127.244 220.919C126.845 214.859 122.611 205.564 121.603 202.741C120.594 199.917 117.375 193.446 117.375 193.446C117.375 193.446 119.791 180.321 121.204 177.492C122.617 174.662 124.019 168.203 124.019 165.573C124.019 162.943 113.551 166.585 100.463 164.361C87.3741 162.137 78.3201 161.938 76.9068 161.938C75.4934 161.938 75.9041 166.385 75.9041 166.385Z" fill="#00C29C" stroke="#263238" stroke-width="0.964856" stroke-linecap="round" stroke-linejoin="round"/>
<path d="M93.8193 178.503C93.8193 178.503 104.897 178.703 107.711 182.945" stroke="#263238" stroke-width="0.964856" stroke-linecap="round" stroke-linejoin="round"/>
<path d="M103.284 177.491C103.284 177.491 107.917 179.109 108.92 181.533" stroke="#263238" stroke-width="0.964856" stroke-linecap="round" stroke-linejoin="round"/>
<path d="M117.375 193.446L110.731 184.763" stroke="#263238" stroke-width="0.964856" stroke-linecap="round" stroke-linejoin="round"/>
<path d="M122.914 261.819C122.698 261.822 122.489 261.748 122.323 261.611C122.157 261.473 122.045 261.28 122.008 261.067C121.953 260.746 116.662 228.674 115.865 222.894C115.261 218.313 113.491 213.593 110.544 208.485C108.532 205.001 94.3625 187.199 92.333 184.66C91.2554 184.582 90.193 184.36 89.1741 183.999C89.0074 183.919 88.8614 183.801 88.7472 183.655C88.6331 183.509 88.5539 183.339 88.5157 183.157C88.3466 182.357 88.9446 181.582 89.6633 180.691C88.6687 180.756 87.67 180.664 86.7037 180.418C86.4125 180.363 86.1434 180.224 85.929 180.019C85.7146 179.814 85.5641 179.55 85.4957 179.261C85.3025 178.243 86.3051 177.443 87.3681 176.589C87.7276 176.317 88.0668 176.019 88.3829 175.698C88.4312 175.062 87.5131 172.668 86.3776 170.475C86.2662 170.261 86.2441 170.012 86.316 169.782C86.388 169.552 86.5481 169.36 86.7611 169.248C86.9742 169.136 87.2227 169.114 87.4521 169.186C87.6815 169.258 87.8729 169.419 87.9842 169.633C89.8808 173.268 90.5452 175.625 89.9714 176.583C89.5626 177.136 89.0645 177.618 88.4976 178.007C88.2379 178.219 87.8936 178.516 87.5977 178.764C88.3443 178.885 89.1022 178.919 89.8566 178.867C90.8653 178.867 91.5961 178.819 91.9887 179.431C92.0931 179.6 92.1509 179.794 92.1562 179.993C92.1615 180.192 92.1141 180.389 92.0189 180.564C91.7753 180.982 91.4921 181.375 91.1733 181.739C91.0042 181.951 90.7385 182.272 90.5693 182.539C91.3423 182.704 92.1251 182.82 92.9129 182.884C93.0363 182.893 93.1565 182.928 93.2657 182.987C93.3749 183.045 93.4708 183.126 93.5471 183.224C94.2115 184.054 109.921 203.716 112.144 207.57C115.219 212.896 117.031 217.822 117.695 222.645C118.486 228.426 123.777 260.474 123.832 260.819C123.852 260.937 123.848 261.057 123.822 261.174C123.795 261.29 123.746 261.4 123.677 261.498C123.608 261.595 123.52 261.678 123.419 261.741C123.319 261.805 123.206 261.848 123.089 261.867L122.914 261.819Z" fill="#263238"/>
<path d="M94.6289 98.3148C94.6289 98.3148 80.3322 106.798 77.9162 112.251C75.5002 117.705 76.1042 138.712 74.6969 142.348C73.2895 145.983 71.0729 167.191 73.2775 169.821C75.4821 172.45 84.9528 176.486 101.665 175.88C118.378 175.274 124.213 172.85 125.825 170.227C127.438 167.603 129.661 154.666 126.84 146.389C124.02 138.112 120.8 130.029 120.396 127.805C119.991 125.582 117.176 118.717 115.564 114.275C113.951 109.834 111.136 107.204 110.532 105.992C109.928 104.78 99.8595 96.0971 94.6289 98.3148Z" fill="#263238" stroke="#263238" stroke-width="0.964856" stroke-linecap="round" stroke-linejoin="round"/>
<path d="M128.187 150.528C128.262 151.313 128.262 152.105 128.187 152.891" stroke="white" stroke-width="0.964856" stroke-linecap="round" stroke-linejoin="round"/>
<path d="M119.815 126.387C119.815 126.387 123.204 131.841 123.439 133.41C123.675 134.98 124.116 137.264 124.116 137.264C125.767 140.735 127.025 144.382 127.867 148.134" stroke="white" stroke-width="0.964856" stroke-linecap="round" stroke-linejoin="round"/>
<path d="M107.143 119.559C110.544 123.425 112.126 125.248 113.485 120.928C114.24 118.535 114.367 114.681 114.331 111.712C113.038 109.815 111.836 108.513 111.45 107.737C110.767 106.374 99.4359 96.594 93.5409 99.0964C93.5409 99.0964 91.8074 100.12 89.3975 101.714C93.6496 105.883 104.431 116.481 107.143 119.559Z" fill="white" stroke="#263238" stroke-width="0.964856" stroke-linecap="round" stroke-linejoin="round"/>
<path d="M118.179 73.4718C118.179 73.4718 121.072 80.6763 120.969 81.876C120.866 83.0758 119.374 83.9786 119.374 84.6815C119.374 85.3843 121.972 88.1837 122.068 89.5834C122.138 90.1091 122.028 90.6432 121.756 91.0979C121.484 91.5526 121.066 91.901 120.57 92.0859C120.059 92.2723 119.52 92.3746 118.976 92.3889C118.976 92.3889 119.272 97.1939 119.175 98.8966C119.078 100.599 118.776 101.696 117.363 102.399C116.583 102.806 115.74 103.077 114.869 103.199C114.869 103.199 114.265 108.004 113.57 110.003C112.875 112.003 112.773 113.409 110.973 114.911C109.173 116.414 108.678 116.123 104.492 112.409C100.306 108.694 96.3077 102.896 95.2084 101.799L93.6199 100.193C93.6199 100.193 92.3213 100.193 91.8079 97.4908C91.6598 96.6963 91.6718 95.8801 91.8429 95.0903C92.0141 94.3005 92.341 93.553 92.8045 92.8918C92.8045 92.8918 90.2073 88.9836 90.008 85.7843C89.8087 82.585 93.9038 76.7741 97.7935 73.9686C101.683 71.1632 106.974 71.0662 111.263 71.5449C113.661 71.7826 116.001 72.4345 118.179 73.4718Z" fill="white" stroke="#263238" stroke-width="0.964856" stroke-linecap="round" stroke-linejoin="round"/>
<path d="M118.988 92.3888C118.988 92.3888 115.098 91.9889 113.099 93.0917C111.099 94.1945 110.205 96.9939 111.401 97.3938C112.597 97.7937 118.885 96.1819 120.383 96.5939C121.881 97.006 120.872 93.4916 118.988 92.3888Z" fill="#C7C7C7" stroke="#8A8A8A" stroke-width="0.964856" stroke-linecap="round" stroke-linejoin="round"/>
<path d="M117.381 81.2759C117.381 81.2759 116.173 79.5733 114.361 80.3792C112.549 81.1851 112.664 82.197 112.664 82.197" stroke="#263238" stroke-width="1.92971" stroke-linecap="round" stroke-linejoin="round"/>
<path d="M110.592 83.5785C110.592 83.5785 110.296 87.6867 111.389 88.0866C112.483 88.4865 116.179 88.5835 117.278 87.8867C118.378 87.1898 118.378 83.5785 117.78 83.1786C117.182 82.7787 111.389 83.0816 111.389 83.0816C111.389 83.0816 110.592 82.7787 110.592 83.5785Z" stroke="#263238" stroke-width="0.964856" stroke-linecap="round" stroke-linejoin="round"/>
<path d="M110.496 84.8813L100.717 86.8809" stroke="#263238" stroke-width="0.964856" stroke-linecap="round" stroke-linejoin="round"/>
<path d="M118.475 84.4814H119.375" stroke="#263238" stroke-width="0.964856" stroke-linecap="round" stroke-linejoin="round"/>
<path d="M120.872 82.9785H123.862C124.041 83.4217 124.11 83.9023 124.061 84.3782C124.061 85.481 124.363 87.0807 123.862 87.4079C123.361 87.7351 121.367 87.6078 121.367 87.6078" stroke="#263238" stroke-width="0.964856" stroke-linecap="round" stroke-linejoin="round"/>
<path d="M115.968 85.0813C115.353 85.0938 114.742 85.1958 114.156 85.3843" stroke="#263238" stroke-width="0.964856" stroke-linecap="round" stroke-linejoin="round"/>
<path d="M116.082 85.6812C115.363 86.0879 114.59 86.3918 113.787 86.584" stroke="#263238" stroke-width="0.964856" stroke-linecap="round" stroke-linejoin="round"/>
<path d="M117.551 66.9639C117.599 66.4657 117.516 65.9636 117.31 65.5075C117.104 65.0515 116.783 64.6574 116.379 64.3644V64.3099C116.382 63.781 116.22 63.2643 115.917 62.8319C115.613 62.3996 115.182 62.0732 114.685 61.8984C114.187 61.7235 113.648 61.7089 113.141 61.8567C112.635 62.0044 112.187 62.3071 111.861 62.7224C111.712 62.2215 111.418 61.7766 111.016 61.4442C110.613 61.1119 110.122 60.9074 109.603 60.8567C109.085 60.8059 108.563 60.9114 108.104 61.1595C107.646 61.4076 107.271 61.7872 107.029 62.2498C106.662 61.9598 106.227 61.7692 105.766 61.6961C105.304 61.623 104.832 61.6698 104.394 61.8322C103.956 61.9945 103.566 62.2668 103.263 62.6232C102.96 62.9796 102.753 63.408 102.662 63.8676C102.331 63.3264 101.834 62.9072 101.246 62.6724C100.658 62.4375 100.01 62.3998 99.3982 62.5647C98.7869 62.7296 98.2451 63.0883 97.8536 63.5874C97.4622 64.0864 97.242 64.6991 97.226 65.3339C96.8775 64.8925 96.415 64.5554 95.8888 64.3594C95.3627 64.1633 94.793 64.1158 94.2418 64.222C93.6905 64.3283 93.1789 64.5841 92.7626 64.9618C92.3463 65.3395 92.0412 65.8245 91.8806 66.364C91.6033 66.2988 91.3197 66.2643 91.035 66.261C90.0546 66.261 89.1144 66.6517 88.4212 67.3471C87.7279 68.0426 87.3385 68.9858 87.3385 69.9693C87.3325 70.0783 87.3325 70.1875 87.3385 70.2965C86.7258 70.3417 86.1372 70.5547 85.6367 70.9122C85.1363 71.2698 84.7432 71.7582 84.5003 72.3243C84.2574 72.8905 84.1739 73.5126 84.259 74.123C84.3441 74.7334 84.5945 75.3087 84.9829 75.7862C84.2137 76.0942 83.5516 76.6221 83.0789 77.3042C82.6061 77.9864 82.3434 78.7928 82.3235 79.6234C82.3035 80.454 82.5272 81.2722 82.9667 81.9763C83.4062 82.6805 84.0422 83.2397 84.7957 83.5845C84.6117 84.0317 84.5212 84.5121 84.5299 84.9958C84.5385 85.4796 84.6461 85.9563 84.8461 86.3966C85.046 86.8369 85.3339 87.2313 85.692 87.5553C86.0501 87.8794 86.4707 88.1262 86.9278 88.2805C86.5911 88.9176 86.4594 89.6437 86.5507 90.359C86.6421 91.0742 86.9521 91.7435 87.438 92.2749C87.924 92.8062 88.5621 93.1735 89.2646 93.3263C89.9671 93.479 90.6995 93.4097 91.3611 93.1279C91.6475 93.4422 92.0126 93.6736 92.4184 93.7982C92.8242 93.9228 93.2559 93.936 93.6685 93.8364C94.0811 93.7368 94.4595 93.528 94.7644 93.2318C95.0693 92.9357 95.2894 92.5629 95.4019 92.1524C95.8624 91.8333 96.1842 91.3501 96.3019 90.8012C96.5012 89.7953 96.5012 87.7715 97.5099 87.3958C98.5185 87.0202 100.324 87.8018 100.324 87.8018C100.324 87.8018 104.552 86.1476 104.335 84.7237C104.207 83.9069 103.967 83.1117 103.622 82.3606C103.622 82.3606 106.691 81.1487 107.162 79.2824C107.633 77.4162 105.748 74.5501 105.748 74.5501C105.748 74.5501 109.759 72.8959 111.879 72.8959C113.999 72.8959 116.361 72.8959 117.067 73.1322C117.774 73.3686 118.958 73.6049 119.665 71.472C120.371 69.3391 117.551 66.9639 117.551 66.9639Z" fill="#C7C7C7" stroke="#8A8A8A" stroke-width="0.964856" stroke-linecap="round" stroke-linejoin="round"/>
<path d="M101.985 89.4438C101.985 89.4438 99.3937 83.9905 96.5489 85.2023C93.704 86.4142 93.4805 89.4438 94.8999 92.7765C96.3193 96.1091 101.514 94.4367 101.514 94.4367" fill="white"/>
<path d="M101.985 89.4438C101.985 89.4438 99.3937 83.9905 96.5489 85.2023C93.704 86.4142 93.4805 89.4438 94.8999 92.7765C96.3193 96.1091 101.514 94.4367 101.514 94.4367" stroke="#263238" stroke-width="0.964856" stroke-linecap="round" stroke-linejoin="round"/>
<path d="M109.656 162.955C109.656 162.955 114.729 161.986 116.421 161.016C118.112 160.047 120.775 160.774 121.5 161.501C122.002 162.134 122.334 162.885 122.467 163.682C123.056 163.946 123.542 164.398 123.848 164.968C124.154 165.538 124.263 166.194 124.158 166.833C123.916 169.257 121.983 169.257 121.983 169.257C121.983 169.257 122.467 171.681 117.635 172.893C112.803 174.104 106.509 169.257 106.026 168.53C105.543 167.803 109.656 162.955 109.656 162.955Z" fill="white" stroke="#263238" stroke-width="0.964856" stroke-linecap="round" stroke-linejoin="round"/>
<path d="M85.7195 107.658C85.7195 107.658 78.4715 110.809 76.0555 113.966C73.6395 117.123 56.7275 141.839 55.9906 145.008C55.2537 148.177 57.6818 148.886 59.1314 150.831C60.581 152.776 87.4167 168.294 91.7474 169.505C96.0781 170.717 97.5458 172.656 99.9678 170.233C102.39 167.809 106.733 162.961 105.041 158.587C103.35 154.212 97.5458 152.285 93.6802 149.861C89.8146 147.437 83.7686 143.311 83.7686 143.311C83.7686 143.311 96.0962 131.193 98.029 127.557C98.8427 126.09 99.329 124.463 99.4542 122.789C99.5793 121.115 99.3403 119.434 98.7538 117.862" fill="#263238"/>
<path d="M85.7195 107.658C85.7195 107.658 78.4715 110.809 76.0555 113.966C73.6395 117.123 56.7275 141.839 55.9906 145.008C55.2537 148.177 57.6818 148.886 59.1314 150.831C60.581 152.776 87.4167 168.294 91.7474 169.505C96.0781 170.717 97.5458 172.656 99.9678 170.233C102.39 167.809 106.733 162.961 105.041 158.587C103.35 154.212 97.5458 152.285 93.6802 149.861C89.8146 147.437 83.7686 143.311 83.7686 143.311C83.7686 143.311 96.0962 131.193 98.029 127.557C98.8427 126.09 99.329 124.463 99.4542 122.789C99.5793 121.115 99.3403 119.434 98.7538 117.862" stroke="#263238" stroke-width="0.964856" stroke-linecap="round" stroke-linejoin="round"/>
<path d="M98.6508 125.981C98.3662 126.812 97.9872 127.607 97.5213 128.351C96.0657 130.538 84.9219 142.911 84.9219 142.911C84.9219 142.911 105.518 155.066 105.76 156.042C105.919 156.84 106 157.651 106.001 158.465" stroke="white" stroke-width="0.964856" stroke-linecap="round" stroke-linejoin="round"/>
<path d="M99.7023 122.031C99.7023 122.031 99.5936 122.637 99.3701 123.558" stroke="white" stroke-width="0.964856" stroke-linecap="round" stroke-linejoin="round"/>
<path d="M73.2109 143.517C75.4397 142.826 78.2483 142.233 80.6401 142.596" stroke="white" stroke-width="0.964856" stroke-linecap="round" stroke-linejoin="round"/>
<path d="M69.2783 145.008C69.2783 145.008 69.7917 144.759 70.6313 144.402" stroke="white" stroke-width="0.964856" stroke-linecap="round" stroke-linejoin="round"/>
<path d="M75.3242 141.13C75.3242 141.13 81.1287 140.154 83.0615 142.099" stroke="white" stroke-width="0.964856" stroke-linecap="round" stroke-linejoin="round"/>
<path d="M105.059 158.587L110.912 161.525C111.028 161.584 111.131 161.665 111.215 161.766C111.298 161.866 111.359 161.982 111.395 162.108C111.431 162.233 111.44 162.365 111.423 162.494C111.405 162.623 111.361 162.747 111.292 162.858L107.203 169.524C107.081 169.721 106.889 169.866 106.666 169.93C106.442 169.994 106.204 169.972 105.995 169.869L100.958 167.342L105.059 158.587Z" fill="white" stroke="#263238" stroke-width="0.964856" stroke-linecap="round" stroke-linejoin="round"/>
<path d="M17.4129 259.855C18.6874 259.668 21.0913 258.098 21.0913 258.092C21.0913 258.086 19.5753 256.82 19.4726 256.747C18.2646 255.959 15.4016 255.153 14.1393 256.202C13.9339 256.381 13.7685 256.601 13.6538 256.848C13.5392 257.096 13.4778 257.365 13.4738 257.637C13.4699 257.91 13.5233 258.181 13.6307 258.431C13.738 258.682 13.8969 258.907 14.097 259.092C14.9184 259.855 16.3378 259.977 17.4129 259.855Z" fill="#263238"/>
<path d="M40.8902 247.834C40.8902 247.834 40.3285 245.931 40.2862 245.816C39.6822 244.477 37.7675 242.235 36.1367 242.405C35.8675 242.441 35.6089 242.534 35.3777 242.677C35.1465 242.82 34.9478 243.011 34.7946 243.236C34.6414 243.461 34.5371 243.716 34.4884 243.984C34.4397 244.252 34.4478 244.527 34.512 244.792C34.7475 245.925 35.877 246.798 36.8615 247.264C38.0152 247.816 40.8902 247.834 40.8902 247.834Z" fill="#263238"/>
<path d="M43.9586 279.978C44.5204 280.675 45.0277 281.336 45.4868 281.935H46.6404C46.0364 281.19 45.3841 280.348 44.617 279.433C44.1761 278.9 43.6929 278.342 43.1855 277.773C43.6467 277.211 44.0743 276.622 44.466 276.009C45.5834 276.244 46.7276 276.324 47.8665 276.246C47.945 276.924 48.0175 277.585 48.0719 278.215C48.2048 279.627 48.2893 280.881 48.3376 281.935H49.2738C49.2014 280.857 49.0866 279.572 48.9235 278.124C48.845 277.433 48.7484 276.7 48.6396 275.943C48.9054 275.864 51.0556 275.191 51.8529 274.483C52.6502 273.774 53.3146 272.834 53.2361 271.816C53.2252 271.577 53.1644 271.343 53.0574 271.129C52.9505 270.915 52.7999 270.725 52.6154 270.573C52.4308 270.421 52.2165 270.31 51.9863 270.247C51.7561 270.183 51.5152 270.169 51.2791 270.205C49.8597 270.459 48.7846 272.828 48.6155 274.107C48.6155 274.18 48.6155 275.01 48.5792 275.531C48.537 275.228 48.4947 274.925 48.4464 274.61C48.3497 274.004 48.235 273.362 48.1202 272.689C48.0477 272.368 47.9813 272.041 47.9088 271.713C47.8363 271.386 47.7397 271.053 47.6551 270.714C47.4437 269.938 47.19 269.169 46.9182 268.393C47.4618 268.308 49.4007 267.981 50.21 267.454C51.0194 266.927 51.9012 266.042 51.9737 265.03C52 264.791 51.9759 264.55 51.9029 264.321C51.83 264.093 51.7098 263.882 51.5502 263.703C51.3907 263.524 51.1953 263.381 50.9769 263.283C50.7584 263.185 50.5218 263.134 50.2825 263.133C48.845 263.17 47.4256 265.351 47.0632 266.587C47.0632 266.66 46.882 267.581 46.8035 268.084C46.6344 267.617 46.4713 267.157 46.284 266.69C45.7525 265.351 45.1727 264.012 44.5989 262.673C44.4237 262.267 44.2546 261.855 44.0855 261.461C44.2788 261.461 46.5921 261.091 47.4981 260.504C48.3014 259.983 49.1832 259.092 49.2618 258.08C49.2871 257.842 49.2623 257.6 49.189 257.372C49.1156 257.144 48.9954 256.934 48.836 256.755C48.6767 256.576 48.4817 256.433 48.2637 256.335C48.0457 256.236 47.8096 256.185 47.5706 256.183C46.133 256.226 44.7076 258.401 44.3512 259.637C44.321 259.728 44.0915 261.049 44.0492 261.388C43.6748 260.486 43.3063 259.571 42.9802 258.674C42.5297 257.451 42.1604 256.201 41.8748 254.929C41.9654 254.929 44.3814 254.572 45.3056 253.972C46.1149 253.451 46.9968 252.56 47.0753 251.548C47.1006 251.31 47.0758 251.068 47.0025 250.84C46.9292 250.612 46.8089 250.402 46.6496 250.223C46.4902 250.044 46.2952 249.901 46.0772 249.803C45.8593 249.704 45.6231 249.653 45.3841 249.652C43.9466 249.688 42.5211 251.869 42.1587 253.105C42.1587 253.184 41.9594 254.19 41.8869 254.669H41.8084C41.5548 253.385 41.4153 252.081 41.3916 250.773C41.3916 250.051 41.3916 249.361 41.3916 248.688C41.8507 248.688 43.9345 248.567 44.8284 248.119C45.7223 247.67 46.6404 246.907 46.8458 245.901C46.8982 245.667 46.9009 245.425 46.8538 245.189C46.8067 244.954 46.7108 244.732 46.5724 244.536C46.434 244.341 46.2561 244.177 46.0503 244.055C45.8445 243.933 45.6155 243.856 45.378 243.829C43.9405 243.707 42.2916 245.719 41.7963 246.907C41.7963 246.967 41.5668 247.658 41.4279 248.161C41.4279 247.858 41.4641 247.555 41.4883 247.258C41.5789 246.167 41.7299 245.18 41.8688 244.301C41.9534 243.804 42.0379 243.356 42.1225 242.938C42.5574 242.683 44.315 241.647 44.8948 240.853C45.4747 240.06 45.9579 238.921 45.668 237.951C45.6067 237.719 45.4974 237.502 45.3472 237.316C45.197 237.129 45.0092 236.976 44.796 236.866C44.5829 236.757 44.3492 236.694 44.1102 236.682C43.8713 236.669 43.6323 236.707 43.409 236.794C42.0802 237.351 41.5366 239.896 41.6453 241.181C41.6453 241.29 41.9956 242.998 42.0198 242.998C41.9352 243.398 41.8446 243.829 41.754 244.301C41.591 245.18 41.4218 246.167 41.3071 247.258C41.1675 248.43 41.0989 249.61 41.1017 250.791C41.0994 252.113 41.2105 253.432 41.4339 254.735C41.4366 254.751 41.4366 254.768 41.4339 254.784C41.2406 254.408 40.6548 253.384 40.6004 253.311C39.8394 252.269 37.7676 250.706 36.4026 251.16C36.1774 251.241 35.9718 251.369 35.7994 251.536C35.6269 251.702 35.4915 251.903 35.402 252.126C35.3124 252.348 35.2708 252.587 35.2798 252.827C35.2888 253.067 35.3483 253.302 35.4543 253.517C35.865 254.444 37.0006 254.984 37.9307 255.196C38.9877 255.444 41.289 254.972 41.4702 254.935C41.7365 256.253 42.0875 257.553 42.5211 258.825C42.7748 259.571 43.0466 260.31 43.3365 261.049C43.1553 260.734 42.9922 260.443 42.962 260.413C42.207 259.371 40.1293 257.807 38.7642 258.262C38.5396 258.344 38.3347 258.472 38.1628 258.639C37.9909 258.805 37.8558 259.006 37.7664 259.228C37.677 259.451 37.6352 259.689 37.6437 259.929C37.6522 260.168 37.7109 260.404 37.816 260.619C38.2327 261.552 39.3622 262.085 40.2984 262.303C41.2346 262.521 43.2157 262.158 43.7352 262.061C43.8439 262.34 43.9526 262.624 44.0674 262.903C44.611 264.26 45.1606 265.606 45.6619 266.945C45.8371 267.417 45.9881 267.884 46.1512 268.357C45.9881 268.072 45.8492 267.835 45.825 267.805C45.07 266.763 42.9922 265.2 41.597 265.654C41.3724 265.736 41.1675 265.864 40.9956 266.031C40.8237 266.197 40.6886 266.398 40.5992 266.621C40.5097 266.843 40.4679 267.082 40.4765 267.321C40.485 267.561 40.5437 267.796 40.6487 268.011C41.0655 268.944 42.195 269.478 43.1312 269.696C44.0674 269.914 45.8552 269.587 46.4713 269.465C46.6162 269.956 46.7672 270.441 46.888 270.92C46.9605 271.247 47.0572 271.562 47.1115 271.895C47.1659 272.228 47.2384 272.55 47.3048 272.871C47.4014 273.477 47.5041 274.143 47.5826 274.761C47.643 275.185 47.6853 275.591 47.7397 275.973C47.5706 275.5 47.2142 274.586 47.178 274.513C46.6222 273.519 45.8215 272.684 44.8526 272.089C44.7933 271.978 44.7267 271.87 44.6532 271.768C44.5126 271.573 44.3326 271.411 44.1251 271.291C43.9176 271.171 43.6872 271.096 43.4489 271.072C43.2107 271.047 42.9699 271.073 42.7424 271.148C42.5149 271.223 42.3057 271.346 42.1285 271.507C41.0896 272.501 41.5245 275.076 42.056 276.234C42.056 276.3 42.5272 277.003 42.811 277.446L42.207 276.749C41.7782 276.276 41.3433 275.822 40.8782 275.325C40.6427 275.101 40.4071 274.864 40.1655 274.628C39.9239 274.392 39.6582 274.173 39.4045 273.937C38.8005 273.41 38.1602 272.907 37.5079 272.41C37.9186 272.035 39.3562 270.689 39.7427 269.805C40.1293 268.92 40.3467 267.69 39.8756 266.805C39.7668 266.596 39.6158 266.412 39.4323 266.265C39.2488 266.117 39.0368 266.009 38.8096 265.949C38.5825 265.888 38.3452 265.875 38.1128 265.911C37.8804 265.946 37.658 266.03 37.4596 266.157C36.2516 266.987 36.2878 269.587 36.6684 270.823C36.6684 270.895 37.061 271.75 37.2724 272.216C36.8798 271.919 36.4872 271.61 36.0644 271.338C34.8564 270.52 33.6484 269.72 32.4404 268.914C32.0659 268.672 31.7035 268.423 31.329 268.175C31.48 268.041 33.2195 266.478 33.6544 265.491C34.041 264.606 34.2584 263.376 33.7873 262.461C33.6772 262.253 33.5256 262.07 33.3418 261.924C33.158 261.777 32.946 261.671 32.7191 261.61C32.4923 261.55 32.2555 261.537 32.0235 261.573C31.7916 261.609 31.5695 261.693 31.3713 261.819C30.1633 262.649 30.1995 265.248 30.58 266.484C30.58 266.575 31.1418 267.799 31.2928 268.108C30.4834 267.563 29.6801 267.011 28.8768 266.436C27.8568 265.679 26.8864 264.857 25.9715 263.976C26.038 263.915 27.862 262.291 28.309 261.273C28.6956 260.395 28.913 259.165 28.4419 258.274C28.3336 258.06 28.1814 257.872 27.9954 257.722C27.8094 257.571 27.5937 257.462 27.3626 257.402C27.1315 257.341 26.8902 257.33 26.6546 257.37C26.419 257.409 26.1944 257.499 25.9957 257.632C24.7877 258.456 24.8239 261.061 25.2044 262.291C25.2044 262.376 25.6333 263.309 25.8084 263.752L25.742 263.794C24.8235 262.859 23.9887 261.846 23.2475 260.764C22.8368 260.158 22.4744 259.589 22.1301 259.013C22.5046 258.747 24.1837 257.504 24.685 256.632C25.1863 255.759 25.5427 254.602 25.144 253.663C25.0583 253.44 24.9269 253.237 24.7582 253.068C24.5895 252.899 24.3873 252.767 24.1647 252.682C23.942 252.596 23.704 252.558 23.4659 252.571C23.2278 252.583 22.9949 252.645 22.7824 252.754C21.52 253.451 21.2422 256.038 21.4838 257.304C21.4838 257.371 21.7073 258.056 21.8704 258.553C21.7194 258.286 21.5623 258.019 21.4234 257.765C20.8979 256.808 20.4812 255.899 20.1127 255.093C19.9134 254.626 19.7382 254.208 19.5752 253.814C19.8047 253.36 20.6986 251.524 20.7409 250.536C20.7832 249.549 20.5718 248.337 19.7866 247.688C19.6084 247.529 19.3988 247.409 19.1714 247.337C18.944 247.264 18.7039 247.241 18.4668 247.268C18.2297 247.294 18.0009 247.371 17.7954 247.493C17.5898 247.614 17.4121 247.778 17.2739 247.973C16.4706 249.185 17.4128 251.609 18.2101 252.608C18.2766 252.699 19.5087 253.942 19.5268 253.917C19.6718 254.305 19.8349 254.711 20.0161 255.129C20.3664 255.947 20.765 256.868 21.2724 257.838C21.8016 258.892 22.3925 259.914 23.0421 260.898C23.7647 262.006 24.5855 263.046 25.4944 264.006L25.5246 264.036C25.1561 263.836 24.1052 263.303 24.0206 263.267C22.8126 262.818 20.2214 262.661 19.3336 263.8C19.1914 263.993 19.0913 264.213 19.0396 264.447C18.988 264.681 18.986 264.924 19.0339 265.159C19.0818 265.393 19.1783 265.616 19.3174 265.811C19.4564 266.006 19.6348 266.169 19.8409 266.29C20.6986 266.836 21.9368 266.66 22.8609 266.321C23.8756 265.939 25.5366 264.279 25.6695 264.145C26.6156 265.099 27.6245 265.988 28.6895 266.805C29.2935 267.29 29.9398 267.757 30.5861 268.211L29.9277 267.884C28.7197 267.436 26.1346 267.278 25.2407 268.417C25.0985 268.61 24.9984 268.83 24.9467 269.065C24.8951 269.299 24.8932 269.541 24.941 269.776C24.9889 270.011 25.0855 270.233 25.2245 270.428C25.3635 270.623 25.5419 270.786 25.748 270.908C26.6057 271.453 27.8439 271.277 28.768 270.938C29.6922 270.599 31.1236 269.205 31.5042 268.835L32.2471 269.356C33.4551 270.18 34.6631 270.998 35.7986 271.841C36.2033 272.138 36.5898 272.447 37.0066 272.75L36.4026 272.465C35.1946 272.016 32.6095 271.859 31.7216 272.998C31.5792 273.19 31.4787 273.411 31.4266 273.644C31.3745 273.878 31.372 274.12 31.4193 274.355C31.4666 274.59 31.5626 274.812 31.701 275.008C31.8394 275.203 32.0173 275.367 32.2229 275.488C33.0806 276.034 34.3188 275.858 35.2429 275.519C36.167 275.179 37.4536 273.919 37.9066 273.483C38.2992 273.804 38.6857 274.131 39.0542 274.464C39.2958 274.695 39.5434 274.901 39.7729 275.149L40.4675 275.864C40.8903 276.337 41.3312 276.815 41.7359 277.288C42.0198 277.609 42.2795 277.924 42.5513 278.239C42.1466 277.936 41.3433 277.367 41.2769 277.33C40.1595 276.724 37.6529 276.155 36.5717 277.143C36.4009 277.311 36.2675 277.513 36.1802 277.737C36.0929 277.96 36.0536 278.199 36.065 278.439C36.0764 278.679 36.1382 278.913 36.2464 279.128C36.3545 279.342 36.5066 279.53 36.6925 279.681C37.4596 280.348 38.7099 280.36 39.6461 280.166C40.6789 279.948 42.503 278.621 42.7325 278.451C43.1493 278.972 43.5721 279.487 43.9586 279.978Z" fill="#263238"/>
<path d="M272.222 260.631C270.954 260.449 268.544 258.874 268.544 258.874C268.544 258.874 270.06 257.595 270.163 257.523C271.371 256.735 274.234 255.929 275.502 256.977C275.707 257.157 275.872 257.377 275.986 257.625C276.1 257.873 276.161 258.142 276.164 258.414C276.168 258.687 276.114 258.958 276.006 259.208C275.898 259.458 275.739 259.683 275.538 259.868C274.723 260.686 273.297 260.789 272.222 260.631Z" fill="#263238"/>
<path d="M249.307 248.64C249.277 248.64 249.869 246.737 249.911 246.622C250.515 245.283 252.429 243.041 254.06 243.211C254.33 243.247 254.588 243.34 254.819 243.483C255.051 243.626 255.249 243.816 255.402 244.041C255.556 244.266 255.66 244.521 255.709 244.789C255.757 245.058 255.749 245.333 255.685 245.598C255.443 246.737 254.32 247.604 253.329 248.076C252.182 248.621 249.313 248.64 249.307 248.64Z" fill="#263238"/>
<path d="M246.662 279.936C246.106 280.633 245.599 281.287 245.14 281.893H244.016C244.62 281.148 245.272 280.306 246.033 279.391C246.48 278.858 246.964 278.3 247.471 277.724C247.01 277.163 246.582 276.574 246.191 275.961C245.071 276.197 243.925 276.279 242.784 276.204C242.705 276.882 242.639 277.543 242.579 278.167C242.452 279.585 242.367 280.839 242.319 281.893H241.383C241.455 280.815 241.564 279.53 241.733 278.082C241.812 277.391 241.908 276.652 242.011 275.901C241.751 275.822 239.595 275.143 238.798 274.44C238 273.737 237.342 272.792 237.42 271.774C237.43 271.535 237.491 271.3 237.597 271.085C237.704 270.871 237.855 270.681 238.039 270.529C238.224 270.377 238.439 270.265 238.669 270.202C238.9 270.139 239.141 270.126 239.377 270.162C240.797 270.417 241.872 272.786 242.041 274.059C242.041 274.137 242.071 274.967 242.071 275.489C242.12 275.18 242.162 274.883 242.21 274.568C242.307 273.962 242.416 273.313 242.536 272.647C242.609 272.326 242.675 271.998 242.748 271.671C242.82 271.344 242.917 271.005 243.001 270.671C243.213 269.896 243.466 269.12 243.738 268.351C243.195 268.266 241.256 267.933 240.446 267.411C239.637 266.89 238.755 266 238.683 264.988C238.656 264.75 238.68 264.509 238.753 264.281C238.826 264.053 238.946 263.843 239.105 263.665C239.264 263.487 239.458 263.344 239.676 263.246C239.894 263.148 240.129 263.098 240.368 263.097C241.812 263.134 243.231 265.309 243.593 266.545C243.593 266.624 243.775 267.539 243.853 268.048C244.022 267.581 244.185 267.121 244.372 266.654C244.904 265.315 245.484 263.976 246.058 262.637C246.233 262.225 246.402 261.819 246.571 261.425C246.378 261.395 244.064 261.055 243.158 260.468C242.355 259.946 241.467 259.056 241.395 258.044C241.368 257.805 241.393 257.564 241.466 257.336C241.539 257.108 241.659 256.897 241.818 256.719C241.978 256.54 242.174 256.398 242.392 256.3C242.61 256.203 242.847 256.153 243.086 256.153C244.523 256.19 245.943 258.371 246.305 259.607C246.335 259.698 246.565 261.019 246.601 261.358C246.982 260.449 247.35 259.54 247.676 258.644C248.126 257.421 248.495 256.17 248.782 254.899C248.691 254.899 246.275 254.542 245.345 253.942C244.542 253.421 243.66 252.53 243.581 251.518C243.556 251.28 243.581 251.039 243.654 250.811C243.727 250.583 243.848 250.373 244.007 250.195C244.167 250.017 244.362 249.874 244.58 249.776C244.798 249.678 245.034 249.628 245.272 249.627C246.71 249.664 248.135 251.839 248.498 253.075C248.498 253.16 248.691 254.166 248.764 254.645H248.848C249.102 253.359 249.241 252.053 249.265 250.742C249.265 250.021 249.265 249.337 249.235 248.664C248.776 248.664 246.692 248.537 245.798 248.058C244.904 247.579 243.986 246.846 243.775 245.84C243.723 245.606 243.721 245.364 243.769 245.13C243.817 244.895 243.914 244.673 244.053 244.478C244.192 244.283 244.37 244.12 244.576 243.999C244.782 243.877 245.011 243.801 245.248 243.774C246.686 243.653 248.335 245.659 248.83 246.852C248.83 246.913 249.06 247.604 249.198 248.107C249.198 247.804 249.162 247.501 249.138 247.198C249.047 246.113 248.896 245.119 248.758 244.247C248.673 243.75 248.588 243.302 248.504 242.883C248.063 242.629 246.311 241.593 245.731 240.793C245.152 239.993 244.662 238.866 244.958 237.891C245.02 237.659 245.13 237.443 245.281 237.257C245.431 237.071 245.619 236.918 245.832 236.81C246.045 236.701 246.279 236.639 246.517 236.627C246.756 236.615 246.994 236.653 247.217 236.739C248.546 237.297 249.09 239.836 248.981 241.12C248.981 241.235 248.631 242.938 248.607 242.938H248.576C248.667 243.338 248.758 243.768 248.848 244.241C249.005 245.119 249.18 246.107 249.295 247.198C249.429 248.37 249.497 249.55 249.5 250.73C249.504 252.053 249.391 253.373 249.162 254.675C249.162 254.675 249.162 254.705 249.162 254.723C249.355 254.348 249.941 253.318 249.996 253.245C250.751 252.209 252.828 250.645 254.224 251.1C254.448 251.182 254.653 251.31 254.825 251.477C254.997 251.643 255.132 251.844 255.222 252.066C255.311 252.289 255.353 252.527 255.344 252.767C255.336 253.007 255.277 253.242 255.172 253.457C254.761 254.384 253.626 254.917 252.69 255.135C251.639 255.378 249.337 254.911 249.156 254.875C248.891 256.194 248.537 257.493 248.099 258.765C247.852 259.51 247.574 260.249 247.29 260.989C247.471 260.667 247.634 260.383 247.664 260.383C248.419 259.341 250.497 257.777 251.862 258.232C252.087 258.314 252.292 258.442 252.464 258.608C252.635 258.775 252.77 258.976 252.86 259.198C252.949 259.42 252.991 259.659 252.983 259.899C252.974 260.138 252.915 260.373 252.81 260.589C252.394 261.516 251.264 262.055 250.328 262.267C249.392 262.479 247.411 262.128 246.891 262.025C246.782 262.31 246.674 262.594 246.559 262.873C246.015 264.224 245.466 265.576 244.964 266.915C244.789 267.381 244.632 267.854 244.475 268.326C244.638 268.042 244.777 267.805 244.801 267.775C245.556 266.733 247.634 265.17 248.999 265.624C249.224 265.706 249.429 265.834 249.601 266.001C249.772 266.167 249.908 266.368 249.997 266.59C250.086 266.813 250.128 267.052 250.12 267.291C250.111 267.531 250.052 267.766 249.947 267.981C249.531 268.908 248.401 269.447 247.465 269.659C246.529 269.872 244.741 269.556 244.125 269.435C243.974 269.92 243.829 270.411 243.708 270.89C243.636 271.217 243.539 271.526 243.479 271.859C243.418 272.192 243.352 272.519 243.291 272.841C243.195 273.447 243.092 274.113 243.013 274.725C242.953 275.155 242.905 275.561 242.856 275.973C243.026 275.501 243.376 274.586 243.418 274.513C243.971 273.517 244.772 272.682 245.744 272.089C245.798 271.975 245.865 271.868 245.943 271.768C246.083 271.574 246.262 271.411 246.469 271.291C246.676 271.172 246.906 271.097 247.144 271.072C247.382 271.048 247.622 271.074 247.849 271.149C248.076 271.224 248.285 271.346 248.462 271.508C249.506 272.501 249.102 275.077 248.54 276.234C248.51 276.3 248.069 277.003 247.779 277.446L248.383 276.755C248.806 276.282 249.247 275.828 249.712 275.331L250.425 274.634C250.654 274.398 250.932 274.174 251.186 273.943C251.79 273.416 252.394 272.907 253.082 272.416C252.671 272.041 251.234 270.696 250.847 269.811C250.461 268.926 250.213 267.696 250.708 266.781C250.819 266.569 250.972 266.382 251.159 266.233C251.346 266.083 251.562 265.975 251.793 265.914C252.024 265.854 252.265 265.843 252.5 265.881C252.736 265.92 252.961 266.008 253.161 266.139C254.338 266.969 254.332 269.569 253.952 270.799C253.952 270.877 253.559 271.732 253.348 272.198C253.747 271.901 254.139 271.592 254.556 271.32C255.764 270.496 256.972 269.702 258.18 268.896L259.285 268.157C259.14 268.023 257.401 266.46 256.966 265.466C256.579 264.588 256.332 263.358 256.827 262.467C256.937 262.254 257.09 262.066 257.276 261.917C257.463 261.767 257.679 261.658 257.91 261.597C258.142 261.537 258.383 261.526 258.619 261.565C258.855 261.604 259.08 261.693 259.279 261.825C260.487 262.655 260.451 265.254 260.07 266.484C260.07 266.581 259.509 267.805 259.358 268.108C260.167 267.569 260.97 267.018 261.774 266.442C262.817 265.669 263.812 264.831 264.751 263.933C264.685 263.873 262.861 262.249 262.414 261.231C262.027 260.352 261.78 259.122 262.275 258.232C262.385 258.019 262.538 257.831 262.724 257.681C262.911 257.531 263.127 257.423 263.358 257.362C263.59 257.301 263.831 257.29 264.067 257.329C264.303 257.369 264.528 257.457 264.727 257.589C265.905 258.413 265.899 261.019 265.519 262.249C265.519 262.328 265.084 263.267 264.884 263.703L264.951 263.752C265.867 262.817 266.7 261.803 267.439 260.722C267.856 260.116 268.218 259.547 268.563 258.965C268.188 258.698 266.509 257.456 266.008 256.59C265.506 255.723 265.15 254.56 265.543 253.621C265.628 253.397 265.76 253.193 265.929 253.024C266.098 252.854 266.301 252.722 266.524 252.636C266.748 252.55 266.987 252.513 267.225 252.526C267.464 252.539 267.698 252.602 267.91 252.712C269.173 253.402 269.445 255.99 269.203 257.256C269.203 257.329 268.979 258.014 268.822 258.51C268.973 258.244 269.13 257.977 269.269 257.723C269.789 256.765 270.212 255.856 270.574 255.044C270.779 254.584 270.955 254.166 271.118 253.766C270.888 253.318 269.994 251.482 269.952 250.494C269.91 249.506 270.121 248.294 270.9 247.646C271.079 247.487 271.289 247.367 271.517 247.294C271.745 247.222 271.985 247.198 272.223 247.225C272.46 247.252 272.69 247.329 272.896 247.45C273.102 247.572 273.28 247.736 273.419 247.931C274.222 249.143 273.274 251.566 272.483 252.566C272.41 252.651 271.178 253.899 271.166 253.875V253.845C271.021 254.226 270.858 254.638 270.671 255.057C270.326 255.875 269.922 256.796 269.42 257.771C268.89 258.825 268.299 259.846 267.651 260.831C266.927 261.937 266.107 262.975 265.198 263.933L265.168 263.97C265.537 263.764 266.588 263.231 266.672 263.2C267.88 262.752 270.465 262.594 271.359 263.733C271.501 263.926 271.602 264.147 271.653 264.381C271.705 264.615 271.707 264.857 271.659 265.092C271.611 265.327 271.514 265.549 271.375 265.744C271.236 265.939 271.058 266.103 270.852 266.224C269.994 266.769 268.756 266.587 267.832 266.254C266.823 265.872 265.162 264.206 265.029 264.073C264.083 265.028 263.074 265.919 262.009 266.739C261.405 267.224 260.753 267.684 260.113 268.145L260.771 267.817C261.979 267.369 264.564 267.212 265.458 268.351C265.6 268.543 265.7 268.764 265.752 268.998C265.804 269.232 265.806 269.474 265.758 269.709C265.71 269.944 265.613 270.166 265.474 270.361C265.335 270.556 265.157 270.72 264.951 270.841C264.093 271.386 262.855 271.205 261.931 270.871C261.007 270.538 259.575 269.138 259.201 268.763L258.458 269.284C257.25 270.114 256.042 270.932 254.906 271.774C254.502 272.071 254.109 272.38 253.698 272.683C253.988 272.532 254.23 272.41 254.302 272.398C255.51 271.95 258.095 271.792 258.983 272.932C259.126 273.124 259.226 273.344 259.278 273.578C259.33 273.812 259.333 274.054 259.286 274.289C259.238 274.524 259.142 274.746 259.004 274.941C258.865 275.136 258.688 275.3 258.482 275.422C257.624 275.967 256.386 275.785 255.462 275.452C254.538 275.119 253.245 273.853 252.798 273.41C252.406 273.737 252.013 274.059 251.651 274.392C251.409 274.628 251.161 274.834 250.926 275.083L250.231 275.792C249.808 276.264 249.368 276.743 248.963 277.209L248.147 278.161C248.552 277.864 249.355 277.294 249.416 277.252C250.539 276.646 253.076 276.082 254.127 277.07C254.297 277.239 254.43 277.441 254.516 277.664C254.603 277.888 254.642 278.127 254.631 278.366C254.619 278.606 254.558 278.84 254.45 279.054C254.343 279.268 254.191 279.457 254.006 279.609C253.239 280.275 251.989 280.288 251.053 280.094C250.014 279.875 248.19 278.542 247.966 278.379C247.477 278.93 247.036 279.445 246.662 279.936Z" fill="#263238"/>
<path d="M10.8721 282.111H291.732" stroke="#263238" stroke-width="1.92971" stroke-linecap="round" stroke-linejoin="round"/>
</svg>
