<svg width="321" height="321" viewBox="0 0 321 321" fill="none" xmlns="http://www.w3.org/2000/svg">
<path opacity="0.7" d="M43.6106 107.272C43.6106 107.272 25.7117 153.496 50.8652 200.041C76.0188 246.586 127.828 271.174 169.295 292.2C210.762 313.225 253.821 302.985 274.281 268.549C294.742 234.112 266.68 209.53 266.641 160.423C266.603 111.316 273.992 98.3159 247.381 56.8298C220.771 15.3438 155.537 6.15679 106.206 36.9279C56.8744 67.6989 43.6106 107.272 43.6106 107.272Z" fill="white"/>
<path d="M257.795 55.0708L257.435 54.7434C224.327 24.9353 180.357 23.5871 148.295 55.6807C131.603 72.4048 101.949 69.2076 80.7376 75.2553C7.62661 96.1139 20.274 195.341 56.3993 243.318C89.0001 286.602 159.639 296.386 207.096 275.084C248.826 256.37 278.165 214.563 288.63 170.843C289.674 166.464 290.53 162.041 291.198 157.573C296.681 120.349 286.12 80.8278 257.795 55.0708Z" fill="#00C29C"/>
<path opacity="0.7" d="M257.795 55.0708L257.435 54.7434C224.327 24.9353 180.357 23.5871 148.295 55.6807C131.603 72.4048 101.949 69.2076 80.7376 75.2553C7.62661 96.1139 20.274 195.341 56.3993 243.318C89.0001 286.602 159.639 296.386 207.096 275.084C248.826 256.37 278.165 214.563 288.63 170.843C289.674 166.464 290.53 162.041 291.198 157.573C296.681 120.349 286.12 80.8278 257.795 55.0708Z" fill="white"/>
<path d="M42.8668 97.3979C42.8668 97.3979 44.8634 90.4643 58.3197 90.4258C71.776 90.3872 79.6726 102.579 79.6726 102.579C79.6726 102.579 85.3158 97.2695 92.1403 100.813C98.9647 104.357 98.9391 109.577 98.9391 109.577L154.986 114.071H33.1533" stroke="#263238" stroke-linecap="round" stroke-linejoin="round"/>
<path d="M297.618 143.455C297.618 143.455 295.622 136.515 282.159 136.476C268.696 136.438 260.813 148.636 260.813 148.636C260.813 148.636 255.169 143.327 248.345 146.87C241.52 150.414 241.546 152.424 241.546 152.424H224.02" stroke="#263238" stroke-linecap="round" stroke-linejoin="round"/>
<path d="M22.1875 140.084C22.1875 140.084 24.1841 133.151 37.6469 133.112C51.1096 133.074 58.9934 145.272 58.9934 145.272C58.9934 145.272 64.6365 139.962 71.461 143.506C78.2855 147.05 78.2598 149.053 78.2598 149.053H95.7864" stroke="#263238" stroke-linecap="round" stroke-linejoin="round"/>
<path d="M29.4551 193.582L48.4583 192.298C48.4583 192.298 45.749 187.162 51.8545 181.057C57.9599 174.951 64.1488 179.022 64.1488 179.022C64.1488 179.022 70.1322 160.481 87.5946 162.657C105.057 164.834 106.893 180.075 106.893 180.075C106.893 180.075 110.623 176.332 118.224 178.791C125.826 181.249 126.975 190.661 125.094 194.622C125.094 194.622 133.748 196.144 134.326 202.827C134.326 202.827 134.859 196.914 143.006 196.734C151.153 196.555 153.181 205.722 153.181 205.722H162.33" stroke="#263238" stroke-linecap="round" stroke-linejoin="round"/>
<path d="M279.302 77.8746L252.801 74.6261C252.801 74.6261 252.024 67.0377 243.877 67.4164C243.877 67.4164 242.079 60.0527 233.316 57.825C224.553 55.5972 219.982 64.842 219.982 64.842C218.439 64.4494 216.833 64.3709 215.259 64.6114C213.685 64.8518 212.176 65.4062 210.82 66.2416C206.622 68.8866 208.297 73.9456 208.297 73.9456L162.073 78.5808C162.073 78.5808 229.978 80.128 273.139 78.6835" stroke="#263238" stroke-linecap="round" stroke-linejoin="round"/>
<path d="M252.832 179.067L207.167 177.012C202.147 161.823 183.156 168.172 183.156 168.172C175.966 152.424 159.216 159.929 159.216 159.929C159.216 159.929 150.677 144.745 133.838 147.923C116.998 151.101 113.538 164.538 113.538 164.538L101.911 164.981" stroke="#263238" stroke-linecap="round" stroke-linejoin="round"/>
<path d="M68.4118 167.1L23.4141 168.3" stroke="#263238" stroke-linecap="round" stroke-linejoin="round"/>
<path d="M272.137 213.067C269.801 217.266 267.278 221.374 264.581 225.355C263.361 227.165 262.103 228.937 260.819 230.69C258.521 233.793 256.113 236.806 253.597 239.729C252.796 240.671 251.977 241.602 251.138 242.522C249.229 244.636 247.264 246.686 245.244 248.672L244.114 249.776C233.329 260.28 220.807 268.838 207.103 275.071C181.744 286.46 149.753 288.964 120.491 282.217C118.777 281.819 117.069 281.395 115.355 280.933C114.109 280.59 112.87 280.235 111.637 279.867C110.311 279.469 108.99 279.041 107.676 278.583C107.034 278.371 106.392 278.146 105.75 277.941C102.906 276.939 100.101 275.835 97.3594 274.641L96.4478 274.237C87.1348 270.142 78.4411 264.763 70.6201 258.257" stroke="#263238" stroke-miterlimit="10"/>
<path d="M250.232 190.475C250.232 190.475 260.748 194.032 259.22 202.063C259.194 202.063 247.067 204.316 250.232 190.475Z" fill="#263238"/>
<path d="M270.962 197.807C270.962 197.807 279 191.213 287.654 197.807C287.615 197.819 279.269 206.12 270.962 197.807Z" fill="#263238"/>
<path d="M292.289 175.972C292.289 175.972 290.068 192.022 276.965 184.119C276.965 184.119 284.367 173.796 292.289 175.972Z" fill="#263238"/>
<path d="M277.055 162.888C277.055 162.888 286.749 171.78 276.175 178.88C276.175 178.88 269.96 170.329 277.055 162.888Z" fill="#263238"/>
<path d="M259.727 173.34C259.727 173.34 272.24 175.189 269.357 186.488C269.383 186.482 257.057 183.875 259.727 173.34Z" fill="#263238"/>
<path d="M259.83 214.646C259.83 214.646 257.686 206.416 266.032 195.874C274.378 185.333 278.718 175.773 277.71 168.011" stroke="#263238" stroke-linecap="round" stroke-linejoin="round"/>
<path d="M262.963 177.385C262.963 177.385 269.543 182.135 270.128 190.302" stroke="#263238" stroke-linecap="round" stroke-linejoin="round"/>
<path d="M286.852 181.237C286.852 181.237 281.17 185.93 274.166 183.496" stroke="#263238" stroke-linecap="round" stroke-linejoin="round"/>
<path d="M282.537 198.294C282.537 198.294 269.979 198.705 265.607 196.426" stroke="#263238" stroke-linecap="round" stroke-linejoin="round"/>
<path d="M252.832 194.924C252.832 194.924 256.382 201.729 261.666 202.968" stroke="#263238" stroke-linecap="round" stroke-linejoin="round"/>
<path d="M277.139 175.754C277.809 173.231 278.002 170.605 277.71 168.011" stroke="white" stroke-linecap="round" stroke-linejoin="round"/>
<path d="M262.963 177.385C265.507 179.358 267.512 181.941 268.792 184.896" stroke="white" stroke-linecap="round" stroke-linejoin="round"/>
<path d="M286.852 181.237C284.83 182.781 282.436 183.764 279.912 184.087" stroke="white" stroke-linecap="round" stroke-linejoin="round"/>
<path d="M282.538 198.294C279.454 198.385 276.368 198.306 273.293 198.057" stroke="white" stroke-linecap="round" stroke-linejoin="round"/>
<path d="M252.832 194.924C254.028 197.093 255.579 199.047 257.422 200.702" stroke="white" stroke-linecap="round" stroke-linejoin="round"/>
<path d="M88.1593 234.895C88.1593 234.895 78.2982 239.992 81.046 247.696C81.046 247.696 93.3724 248.101 88.1593 234.895Z" fill="#263238"/>
<path d="M68.7707 245.244C68.7707 245.244 59.8277 239.954 52.2842 247.812C52.2842 247.812 61.8307 254.726 68.7707 245.244Z" fill="#263238"/>
<path d="M44.4004 226.889C44.4004 226.889 49.0035 242.4 60.7778 232.635C60.7778 232.635 51.9054 223.544 44.4004 226.889Z" fill="#263238"/>
<path d="M57.4908 211.661C57.4908 211.661 49.2476 221.933 60.765 227.332C60.765 227.332 65.625 217.946 57.4908 211.661Z" fill="#263238"/>
<path d="M76.1922 219.371C76.1922 219.371 64.1033 223.089 68.623 233.829C68.623 233.829 80.4166 229.399 76.1922 219.371Z" fill="#263238"/>
<path d="M82.4192 261.21C82.4192 261.21 83.1896 251.773 73.3541 242.592C63.5187 233.412 57.7856 224.616 57.6123 216.81" stroke="#263238" stroke-linecap="round" stroke-linejoin="round"/>
<path d="M73.5989 223.865C73.5989 223.865 67.8209 229.56 68.4629 237.713" stroke="#263238" stroke-linecap="round" stroke-linejoin="round"/>
<path d="M50.5635 231.274C50.5635 231.274 56.8872 235.055 63.4484 231.595" stroke="#263238" stroke-linecap="round" stroke-linejoin="round"/>
<path d="M57.3945 247.485C57.3945 247.485 69.875 246.002 73.8554 243.093" stroke="#263238" stroke-linecap="round" stroke-linejoin="round"/>
<path d="M86.2584 239.684C86.2584 239.684 83.8317 247.151 78.792 249.173" stroke="#263238" stroke-linecap="round" stroke-linejoin="round"/>
<path d="M59.3457 224.385C58.3046 221.994 57.7168 219.429 57.6123 216.823" stroke="white" stroke-linecap="round" stroke-linejoin="round"/>
<path d="M73.5985 223.865C71.3809 226.203 69.7889 229.063 68.9697 232.179" stroke="white" stroke-linecap="round" stroke-linejoin="round"/>
<path d="M50.5635 231.274C52.788 232.493 55.2948 233.105 57.8309 233.046" stroke="white" stroke-linecap="round" stroke-linejoin="round"/>
<path d="M57.3945 247.485C60.4567 247.123 63.496 246.589 66.4981 245.886" stroke="white" stroke-linecap="round" stroke-linejoin="round"/>
<path d="M86.2586 239.684C85.4083 242.016 84.1688 244.187 82.5928 246.104" stroke="white" stroke-linecap="round" stroke-linejoin="round"/>
<path d="M231.062 233.688C238.875 237.604 242.566 245.36 244.107 249.776L245.237 248.672C247.257 246.682 249.222 244.632 251.131 242.522C251.965 241.606 252.785 240.675 253.589 239.729C253.962 238.24 254.386 236.667 254.873 235.043C255.284 233.637 255.74 232.192 256.234 230.728C256.767 229.143 257.345 227.518 257.981 225.939C258.526 224.559 259.111 223.178 259.74 221.824C260.369 220.469 260.927 219.102 261.351 217.908C263.123 212.894 263.008 209.748 262.07 208.149C261.005 206.339 258.892 206.493 257.268 208.149C256.912 208.524 256.589 208.93 256.305 209.363C254.922 211.61 253.769 213.991 252.864 216.47C251.201 220.7 249.988 224.816 249.988 224.816C249.988 224.816 251.882 210.961 251.349 203.552C250.97 198.352 250.418 193.691 249.423 190.385C248.312 186.796 246.643 184.806 244.03 185.455C240.383 186.36 242.143 195.085 243.298 206.884C243.703 210.987 244.03 215.468 244.03 220.123C244.042 223.37 243.864 226.616 243.497 229.842C243.497 229.842 243.298 229.515 242.958 228.924C241.218 225.901 235.697 215.924 233.604 207.238C231.107 196.863 224.167 201.216 226.388 210.505C228.609 219.795 237.764 225.117 241.154 235.21C241.154 235.21 229.444 223.981 225.566 228.25C223.345 230.664 228.731 232.526 231.062 233.688Z" fill="#00C29C" stroke="#263238" stroke-linecap="round" stroke-linejoin="round"/>
<path opacity="0.2" d="M231.062 233.688C238.875 237.604 242.566 245.36 244.107 249.776L245.237 248.672C247.257 246.682 249.222 244.632 251.131 242.522C251.965 241.606 252.785 240.675 253.589 239.729C253.962 238.24 254.386 236.667 254.873 235.043C255.284 233.637 255.74 232.192 256.234 230.728C256.767 229.143 257.345 227.518 257.981 225.939C258.526 224.559 259.111 223.178 259.74 221.824C260.369 220.469 260.927 219.102 261.351 217.908C263.123 212.894 263.008 209.748 262.07 208.149C261.005 206.339 258.892 206.493 257.268 208.149C256.912 208.524 256.589 208.93 256.305 209.363C254.922 211.61 253.769 213.991 252.864 216.47C251.201 220.7 249.988 224.816 249.988 224.816C249.988 224.816 251.882 210.961 251.349 203.552C250.97 198.352 250.418 193.691 249.423 190.385C248.312 186.796 246.643 184.806 244.03 185.455C240.383 186.36 242.143 195.085 243.298 206.884C243.703 210.987 244.03 215.468 244.03 220.123C244.042 223.37 243.864 226.616 243.497 229.842C243.497 229.842 243.298 229.515 242.958 228.924C241.218 225.901 235.697 215.924 233.604 207.238C231.107 196.863 224.167 201.216 226.388 210.505C228.609 219.795 237.764 225.117 241.154 235.21C241.154 235.21 229.444 223.981 225.566 228.25C223.345 230.664 228.731 232.526 231.062 233.688Z" fill="black" fill-opacity="0.7" stroke="#263238" stroke-miterlimit="10"/>
<path d="M239.466 217.189C241.014 220.972 242.161 224.908 242.888 228.931C244.072 235.375 244.503 241.936 244.172 248.48L245.192 248.679C247.213 246.688 249.177 244.638 251.086 242.528C251.921 241.612 252.74 240.681 253.545 239.736C256.061 236.817 258.469 233.803 260.767 230.696C262.051 228.944 263.335 227.172 264.529 225.361C261.409 226.69 258.032 229.213 256.183 230.741C255.291 231.46 254.745 231.948 254.745 231.948C255.57 229.827 256.647 227.814 257.955 225.952C262.34 219.532 268.433 214.948 270.417 207.783C272.985 198.577 266.192 193.98 263.322 204.265C262.963 205.549 262.526 206.833 262.038 208.162C258.617 217.343 252.62 226.504 252.62 226.504C254.283 220.901 255.503 215.176 256.267 209.382C258.193 195.637 257.814 182.2 253.699 182.129C250.534 182.071 249.417 184.986 249.385 190.404C249.409 193.541 249.598 196.674 249.95 199.79C251.08 211.147 247.857 227.493 247.857 227.493C247.857 227.493 246.04 212.393 243.26 206.904C243.023 206.414 242.726 205.957 242.374 205.543C239.1 201.941 233.514 202.943 239.466 217.189Z" fill="#00C29C" stroke="#263238" stroke-linecap="round" stroke-linejoin="round"/>
<path d="M242.676 216.534C247.748 228.558 247.741 245.963 247.741 245.963C247.741 245.963 255.317 211.52 253.827 196.921" stroke="#263238" stroke-linecap="round" stroke-linejoin="round"/>
<path d="M265.634 210.088C265.634 210.088 257.583 226.331 250.367 232.487" stroke="#263238" stroke-linecap="round" stroke-linejoin="round"/>
<path d="M248.742 241.064C249.898 239.273 252.267 237.11 254.86 235.049C256.863 233.463 258.995 231.935 260.812 230.696" stroke="#263238" stroke-linecap="round" stroke-linejoin="round"/>
<path d="M91.4916 268.998C92.3476 269.922 93.3469 270.903 94.4897 271.938C95.4655 272.811 96.4157 273.723 97.3466 274.648C100.088 275.842 102.893 276.946 105.738 277.947C106.38 278.172 107.022 278.397 107.664 278.589C108.973 279.017 110.294 279.445 111.625 279.873C112.857 280.246 114.096 280.601 115.342 280.939C117.037 281.401 118.744 281.825 120.478 282.223C121.259 278.308 122.997 274.647 125.537 271.566C127.219 269.576 131.437 265.743 128.484 264.388C123.238 261.987 116.928 276.92 116.928 276.92C116.074 266.308 122.397 257.808 120.78 248.396C119.162 238.984 111.073 237.713 112.864 248.236C114.36 257.044 113.21 268.388 112.8 271.855C112.723 272.529 112.665 272.908 112.665 272.908C111.061 270.09 109.623 267.181 108.357 264.196C106.521 259.92 105.063 255.67 103.818 251.741C100.229 240.429 98.4188 231.723 94.708 232.327C92.0501 232.763 91.299 235.248 91.6906 238.984C92.0565 242.426 93.3791 246.926 95.0804 251.824C97.4686 258.732 104.479 270.442 104.71 270.828C104.543 270.629 101.879 267.431 98.7911 264.299C96.9804 262.379 94.9824 260.646 92.8269 259.124C92.3944 258.841 91.9392 258.594 91.4659 258.386C89.3152 257.506 87.3186 258.193 87.0489 260.28C86.76 262.122 87.8899 265.063 91.4916 268.998Z" fill="#00C29C" stroke="#263238" stroke-linecap="round" stroke-linejoin="round"/>
<path opacity="0.2" d="M91.4916 268.998C92.3476 269.922 93.3469 270.903 94.4897 271.938C95.4655 272.811 96.4157 273.723 97.3466 274.648C100.088 275.842 102.893 276.946 105.738 277.947C106.38 278.172 107.022 278.397 107.664 278.589C108.973 279.017 110.294 279.445 111.625 279.873C112.857 280.246 114.096 280.601 115.342 280.939C117.037 281.401 118.744 281.825 120.478 282.223C121.259 278.308 122.997 274.647 125.537 271.566C127.219 269.576 131.437 265.743 128.484 264.388C123.238 261.987 116.928 276.92 116.928 276.92C116.074 266.308 122.397 257.808 120.78 248.396C119.162 238.984 111.073 237.713 112.864 248.236C114.36 257.044 113.21 268.388 112.8 271.855C112.723 272.529 112.665 272.908 112.665 272.908C111.061 270.09 109.623 267.181 108.357 264.196C106.521 259.92 105.063 255.67 103.818 251.741C100.229 240.429 98.4188 231.723 94.708 232.327C92.0501 232.763 91.299 235.248 91.6906 238.984C92.0565 242.426 93.3791 246.926 95.0804 251.824C97.4686 258.732 104.479 270.442 104.71 270.828C104.543 270.629 101.879 267.431 98.7911 264.299C96.9804 262.379 94.9824 260.646 92.8269 259.124C92.3944 258.841 91.9392 258.594 91.4659 258.386C89.3152 257.506 87.3186 258.193 87.0489 260.28C86.76 262.122 87.8899 265.063 91.4916 268.998Z" fill="black" fill-opacity="0.7" stroke="#263238" stroke-miterlimit="10"/>
<path d="M79.1457 263.22C83.4856 268.645 90.2523 270.609 96.4797 274.23L97.3913 274.635C100.133 275.829 102.938 276.933 105.782 277.935C106.424 278.159 107.066 278.384 107.708 278.577C109.018 279.005 110.338 279.433 111.669 279.861C112.902 280.233 114.141 280.588 115.387 280.926C114.358 277.947 113.501 274.912 112.819 271.836C111.903 267.85 111.408 263.778 111.342 259.689C111.226 244.242 105.699 245.52 104.107 250.104C103.951 250.626 103.858 251.165 103.831 251.709C103.439 257.757 107.58 272.009 107.683 272.433C107.394 272.015 98.2388 258.521 94.8426 247.799C93.9273 244.796 92.8558 241.843 91.6326 238.952C89.469 233.983 87.2991 231.743 84.4101 233.046C80.6223 234.741 85.5978 247.228 92.7561 259.118C95.7393 264.14 99.1115 268.92 102.842 273.415C102.566 273.229 93.6292 267.252 86.9717 260.267C86.0151 259.252 85.097 258.225 84.2624 257.185C77.592 248.884 73.1879 255.779 79.1457 263.22Z" fill="#00C29C" stroke="#263238" stroke-linecap="round" stroke-linejoin="round"/>
<path d="M107.688 278.628C107.566 278.442 107.444 278.256 107.316 278.069C104.62 273.961 101.538 269.146 98.7388 264.331C94.9767 257.911 91.6383 251.491 90.1553 246.727" stroke="#263238" stroke-linecap="round" stroke-linejoin="round"/>
<path d="M108.125 260.35C108.125 261.634 108.202 262.918 108.318 264.202C108.905 269.527 110.019 274.781 111.643 279.886" stroke="#263238" stroke-linecap="round" stroke-linejoin="round"/>
<path d="M84.4609 263.47C84.4609 263.47 98.2639 275.232 107.316 278.05" stroke="#263238" stroke-linecap="round" stroke-linejoin="round"/>
<path d="M105.763 277.947C138.614 289.568 177.397 288.412 207.096 275.078C223.929 267.528 238.753 256.216 251.131 242.528L240.108 231.152H227.91L222.51 213.869C222.51 213.869 136.604 212.63 128.778 213.099C120.952 213.568 115.091 224.655 115.091 224.655L124.593 239.768L112.009 258.437L105.763 277.947Z" fill="#BFBFBF"/>
<mask id="mask0_1_1160" style="mask-type:luminance" maskUnits="userSpaceOnUse" x="105" y="212" width="147" height="74">
<path d="M105.763 277.947C138.614 289.568 177.397 288.412 207.096 275.078C223.929 267.528 238.753 256.216 251.131 242.528L240.108 231.152H227.91L222.51 213.869C222.51 213.869 136.604 212.63 128.778 213.099C120.952 213.568 115.091 224.655 115.091 224.655L124.593 239.768L112.009 258.437L105.763 277.947Z" fill="white"/>
</mask>
<g mask="url(#mask0_1_1160)">
<path opacity="0.3" d="M137.624 220.604C149.405 222.382 168.164 217.561 168.164 217.561C178.356 220.328 188.941 221.357 199.475 220.604C210.973 219.769 216.225 216.168 218.465 213.812C201.356 213.574 135.583 212.695 128.765 213.099C128.112 213.139 127.466 213.253 126.839 213.439L132.309 215.083C132.309 215.083 125.831 218.826 137.624 220.604Z" fill="black" fill-opacity="0.7"/>
<path opacity="0.3" d="M227.909 231.152C227.909 231.152 207.14 241.636 206.614 241.064C206.087 240.493 192.714 236.121 192.714 236.121L184.253 238.779L192.74 228.019L215.371 227.332L222.535 213.85L227.909 231.152Z" fill="black" fill-opacity="0.7"/>
<path opacity="0.3" d="M111.547 259.862L124.579 267.907L150.638 259.426L124.579 239.787L111.996 258.456L111.547 259.862Z" fill="black" fill-opacity="0.7"/>
<path opacity="0.3" d="M130.081 284.091C156.602 288.322 184.484 285.228 207.121 275.103C223.954 267.553 238.778 256.241 251.156 242.554L240.107 231.152L229.443 254.264H197.645L175.965 273.107L146.497 274.481L130.081 284.091Z" fill="black" fill-opacity="0.7"/>
<path d="M174.264 241.296L160.037 243.504L146.915 237.713L144.206 228.026L125.838 226.151L115.078 224.674" stroke="#263238" stroke-linecap="round" stroke-linejoin="round"/>
<path d="M192.722 228.025L215.352 227.332L222.517 213.869" stroke="#263238" stroke-linecap="round" stroke-linejoin="round"/>
<path d="M197.646 254.277L175.965 273.107L160.378 267.907L162.066 257.037L155.113 257.249" stroke="#263238" stroke-linecap="round" stroke-linejoin="round"/>
<path d="M111.29 259.702L124.579 267.907L125.838 274.481" stroke="#263238" stroke-linecap="round" stroke-linejoin="round"/>
</g>
<path d="M105.763 277.947C138.614 289.568 177.397 288.412 207.096 275.078C223.929 267.528 238.753 256.216 251.131 242.528L240.108 231.152H227.91L222.51 213.869C222.51 213.869 136.604 212.63 128.778 213.099C120.952 213.568 115.091 224.655 115.091 224.655L124.593 239.768L112.009 258.437L105.763 277.947Z" stroke="#263238" stroke-miterlimit="10"/>
<path d="M219.301 191.9C220.938 206.801 216.592 213.914 208.329 217.131C199.341 220.623 186.193 219.635 175.722 216.758C173.796 216.219 140.573 204.259 135.321 195.457C130.968 188.151 130.397 180.986 139.725 180.485C144.174 180.248 183.747 190.886 183.747 190.886L187.471 189.531L219.301 191.9Z" fill="#263238"/>
<path d="M196.901 121.338C197.228 121.716 197.48 122.151 197.646 122.622C198.088 123.976 198.343 125.384 198.404 126.808C198.491 128.285 198.491 129.767 198.404 131.244L209.112 130.84C208.027 125.184 211.533 120.696 211.533 120.696C211.783 102.919 194.873 119.11 196.901 121.338Z" fill="white" stroke="#263238" stroke-linecap="round" stroke-linejoin="round"/>
<path d="M208.329 127.983C208.329 127.983 191.734 128.715 187.824 140.823C187.824 140.823 180.357 145.028 182.643 151.628C184.928 158.227 186.957 165.443 186.957 165.443C186.957 165.443 185.609 174.996 186.116 179.908C186.116 179.908 183.548 186.186 184.832 187.528C184.832 187.528 181.995 189.782 182.264 190.404C184.158 195.129 213.189 200.33 220.38 195.059C222.569 193.454 211.892 166.374 212.92 165.007C213.947 163.639 218.255 151.377 217.748 149.342C217.748 149.342 222.569 150.838 222.569 140.823C222.569 130.807 215.545 126.634 208.329 127.983Z" fill="#00C29C"/>
<mask id="mask1_1_1160" style="mask-type:luminance" maskUnits="userSpaceOnUse" x="182" y="127" width="41" height="71">
<path d="M208.329 127.983C208.329 127.983 191.734 128.715 187.824 140.823C187.824 140.823 180.357 145.028 182.643 151.628C184.928 158.227 186.957 165.443 186.957 165.443C186.957 165.443 185.609 174.996 186.116 179.908C186.116 179.908 183.548 186.186 184.832 187.528C184.832 187.528 181.995 189.782 182.264 190.404C184.158 195.129 213.189 200.33 220.38 195.059C222.569 193.454 211.892 166.374 212.92 165.007C213.947 163.639 218.255 151.377 217.748 149.342C217.748 149.342 222.569 150.838 222.569 140.823C222.569 130.807 215.545 126.634 208.329 127.983Z" fill="white"/>
</mask>
<g mask="url(#mask1_1_1160)">
<path opacity="0.2" d="M222.518 140.797C222.518 150.812 217.696 149.316 217.696 149.316C217.838 149.881 217.606 151.242 217.183 152.918C216.917 152.768 216.66 152.602 216.412 152.424C209.768 147.66 211.219 134.037 196.067 134.627C196.067 134.627 201.576 130.653 206.622 132.059C211.668 133.465 215.924 138.428 217.42 138.357C218.916 138.287 216.579 136.155 216.412 135.057C216.278 134.21 219.436 136.072 222.023 136.534C222.362 137.929 222.528 139.361 222.518 140.797Z" fill="black" fill-opacity="0.7"/>
<path opacity="0.2" d="M203.033 160.5C203.033 160.5 201.569 177.757 185.339 182.071C185.731 180.832 186.116 179.882 186.116 179.882C185.609 174.971 186.957 165.418 186.957 165.418C186.957 165.418 184.935 158.208 182.643 151.602C182.604 151.493 182.572 151.384 182.54 151.274C184.759 150.668 186.71 149.334 188.081 147.487C191.599 142.883 203.033 160.5 203.033 160.5Z" fill="black" fill-opacity="0.7"/>
<path opacity="0.2" d="M196.067 191.682C191.708 192.227 187.292 192.103 182.97 191.316C182.656 191.06 182.406 190.735 182.238 190.366C182.007 189.788 184.421 187.798 184.806 187.522C187.836 188.966 192.972 191.2 196.067 191.682Z" fill="black" fill-opacity="0.7"/>
</g>
<path d="M208.329 127.983C208.329 127.983 191.734 128.715 187.824 140.823C187.824 140.823 180.357 145.028 182.643 151.628C184.928 158.227 186.957 165.443 186.957 165.443C186.957 165.443 185.609 174.996 186.116 179.908C186.116 179.908 183.548 186.186 184.832 187.528C184.832 187.528 181.995 189.782 182.264 190.404C184.158 195.129 213.189 200.33 220.38 195.059C222.569 193.454 211.892 166.374 212.92 165.007C213.947 163.639 218.255 151.377 217.748 149.342C217.748 149.342 222.569 150.838 222.569 140.823C222.569 130.807 215.545 126.634 208.329 127.983Z" stroke="#263238" stroke-linecap="round" stroke-linejoin="round"/>
<path d="M217.696 149.316C214.396 148.219 214.486 137.215 208.329 134.505C202.172 131.796 193.839 134.672 191.502 137.382" stroke="#263238" stroke-linecap="round" stroke-linejoin="round"/>
<path d="M145.143 177.507L135.282 178.855L132.188 181.423L131.122 185.32C131.122 185.32 132.528 184.896 133.555 182.482C133.555 182.482 134.762 181.737 135.976 180.896C137.79 181.526 139.707 181.805 141.625 181.718C143.834 181.718 144.36 184.068 147.211 183.342C152.282 182.02 145.143 177.507 145.143 177.507Z" fill="white" stroke="#263238" stroke-linecap="round" stroke-linejoin="round"/>
<path d="M200.253 138.614C192.761 135.905 184.761 154.022 177.141 163.967C176.043 165.405 154.793 173.109 147.679 175.645L143.108 176.999C143.108 176.999 145.818 183.265 149.715 185.3L153.271 184.28C153.271 184.28 185.943 177.795 189.743 175.33C191.669 174.046 208.361 157.194 208.329 151.942" fill="#00C29C"/>
<path d="M200.253 138.614C192.761 135.905 184.761 154.022 177.141 163.967C176.043 165.405 154.793 173.109 147.679 175.645L143.108 176.999C143.108 176.999 145.818 183.265 149.715 185.3L153.271 184.28C153.271 184.28 185.943 177.795 189.743 175.33C191.669 174.046 208.361 157.194 208.329 151.942" stroke="#263238" stroke-linecap="round" stroke-linejoin="round"/>
<path d="M163.247 214.12C165.218 208.143 158.298 205.774 154.722 206.634C151.146 207.494 146.267 205.877 142.524 206.441C138.781 207.006 134.89 207.173 135.905 213.099C136.919 219.025 161.142 220.553 163.247 214.12Z" fill="#757575" stroke="#263238" stroke-linecap="round" stroke-linejoin="round"/>
<path d="M150.131 207.514L149.669 208.798C149.669 208.798 145.252 207.443 142.523 208.156C139.795 208.868 138.53 208.708 138.196 209.806C137.863 210.903 137.259 213.105 138.196 213.446C139.134 213.786 146.915 216.014 148.61 215.815L149.284 217.593" stroke="#263238" stroke-linecap="round" stroke-linejoin="round"/>
<path d="M146.094 215.5V216.913" stroke="#263238" stroke-linecap="round" stroke-linejoin="round"/>
<path d="M142.961 214.775L142.524 216.206" stroke="#263238" stroke-linecap="round" stroke-linejoin="round"/>
<path d="M139.596 213.87L138.954 215.494" stroke="#263238" stroke-linecap="round" stroke-linejoin="round"/>
<path d="M137.697 212.309L136.419 212.553" stroke="#263238" stroke-linecap="round" stroke-linejoin="round"/>
<path d="M138.196 209.799L137.054 209.125" stroke="#263238" stroke-linecap="round" stroke-linejoin="round"/>
<path d="M140.104 208.689L139.597 207.514" stroke="#263238" stroke-linecap="round" stroke-linejoin="round"/>
<path d="M143.358 207.514V206.84" stroke="#263238" stroke-linecap="round" stroke-linejoin="round"/>
<path d="M146.498 208.098L146.915 206.84" stroke="#263238" stroke-linecap="round" stroke-linejoin="round"/>
<path d="M154.722 207.469L155.229 209.125C155.229 209.125 157.155 207.571 159.119 208.689C161.084 209.806 161.155 211.494 160.403 213.439C159.652 215.385 156.006 215.494 156.006 215.494L155.499 216.913" stroke="#263238" stroke-linecap="round" stroke-linejoin="round"/>
<path d="M158.767 216.206L158.272 215.083" stroke="#263238" stroke-linecap="round" stroke-linejoin="round"/>
<path d="M162.067 213.869L160.372 213.439" stroke="#263238" stroke-linecap="round" stroke-linejoin="round"/>
<path d="M162.067 210.005L160.622 210.313" stroke="#263238" stroke-linecap="round" stroke-linejoin="round"/>
<path d="M158.516 207.514L158.272 208.31" stroke="#263238" stroke-linecap="round" stroke-linejoin="round"/>
<path d="M150.639 210.005C150.639 210.005 149.118 211.873 150.132 215.083" stroke="#263238" stroke-linecap="round" stroke-linejoin="round"/>
<path d="M154.722 210.313C154.722 210.313 155.653 213.208 154.722 214.678" stroke="#263238" stroke-linecap="round" stroke-linejoin="round"/>
<path d="M153.938 209.125C153.093 209.245 152.232 209.092 151.479 208.688" stroke="#263238" stroke-linecap="round" stroke-linejoin="round"/>
<path d="M154.279 216.913C153.369 216.615 152.389 216.615 151.479 216.913" stroke="#263238" stroke-linecap="round" stroke-linejoin="round"/>
<path d="M146.915 209.799C146.765 211.151 146.696 212.51 146.71 213.869" stroke="#263238" stroke-linecap="round" stroke-linejoin="round"/>
<path d="M143.359 209.459C143.124 210.659 142.991 211.877 142.961 213.099" stroke="#263238" stroke-linecap="round" stroke-linejoin="round"/>
<path d="M140.104 209.799C140.104 209.799 139.731 211.725 139.597 212.431" stroke="#263238" stroke-linecap="round" stroke-linejoin="round"/>
<path d="M157.758 210.005C157.758 210.005 157.707 211.667 157.758 213.439" stroke="#263238" stroke-linecap="round" stroke-linejoin="round"/>
<g opacity="0.3">
<path d="M194.924 197.248C194.924 197.248 191.714 198.628 192.215 199.919C192.716 201.209 193.538 203.077 193.538 203.077C193.538 203.077 185.558 206.519 182.193 206.32C178.829 206.121 167.151 201.787 167.151 201.787V196.304L163.595 194.102C163.595 194.102 161.502 201.383 161.701 204.259L164.949 206.827L166.304 203.572" stroke="white" stroke-linecap="round" stroke-linejoin="round"/>
<path d="M200.304 198.083C200.304 198.083 195.9 204.304 194.931 204.939C193.961 205.575 185.827 207.963 182.906 207.912C179.985 207.86 168.179 204.06 168.179 204.06" stroke="white" stroke-linecap="round" stroke-linejoin="round"/>
<path d="M162.066 194.654C162.066 194.269 155.114 192.24 155.114 192.24C155.143 194.595 154.862 196.944 154.279 199.225L153.31 203.032C153.31 203.032 159.839 206.326 162.066 206.32" stroke="white" stroke-linecap="round" stroke-linejoin="round"/>
<path d="M152.713 196.176C152.713 196.176 136.592 189.319 135.744 188.941C135.012 188.731 134.236 188.731 133.504 188.941" stroke="white" stroke-linecap="round" stroke-linejoin="round"/>
<path d="M154.279 199.225C154.279 199.225 146.087 196.221 143.159 194.089C140.232 191.958 134.133 190.578 134.133 190.578" stroke="white" stroke-linecap="round" stroke-linejoin="round"/>
<path d="M209.934 202.397C209.934 202.397 214.761 202.525 216.54 201.755L217.683 206.313C217.683 206.313 214.383 207.835 212.726 207.462C211.07 207.09 209.934 204.638 209.934 204.638" stroke="white" stroke-linecap="round" stroke-linejoin="round"/>
<path d="M208.932 205.703C208.932 205.703 206.268 211.866 203.09 213.099C203.09 213.099 206.39 215.179 211.474 213.869C211.474 213.869 215.866 210.294 216.411 206.84" stroke="white" stroke-linecap="round" stroke-linejoin="round"/>
</g>
<path d="M197.646 122.622C198.089 123.976 198.344 125.384 198.404 126.808C201.948 124.593 201.248 122.622 201.248 122.622H197.646Z" fill="#263238"/>
<path d="M210.981 121.139C224.135 106.212 214.306 98.1425 206.429 97.5262C188.748 96.1523 194.526 110.835 193.512 111.708C191.843 113.14 190.225 113.634 190.167 114.372C190.083 115.477 191.875 116.87 191.875 116.87L191.233 119.239L191.836 119.483C191.836 119.483 192.022 125.787 193.614 125.787C198.372 125.787 201.203 124.253 201.813 122.795" fill="white"/>
<path d="M210.981 121.139C224.135 106.212 214.306 98.1425 206.429 97.5262C188.748 96.1523 194.526 110.835 193.512 111.708C191.843 113.14 190.225 113.634 190.167 114.372C190.083 115.477 191.875 116.87 191.875 116.87L191.233 119.239L191.836 119.483C191.836 119.483 192.022 125.787 193.614 125.787C198.372 125.787 201.203 124.253 201.813 122.795" stroke="#263238" stroke-linecap="round" stroke-linejoin="round"/>
<path d="M194.622 106.11C195.295 106.159 195.938 106.41 196.466 106.83C196.994 107.251 197.383 107.821 197.582 108.466" stroke="#263238" stroke-linecap="round" stroke-linejoin="round"/>
<path d="M194.814 111.259C194.763 111.901 194.943 112.421 195.206 112.44C195.469 112.459 195.732 111.965 195.784 111.336C195.835 110.707 195.655 110.18 195.386 110.161C195.116 110.142 194.859 110.629 194.814 111.259Z" fill="#263238"/>
<path d="M191.829 119.483C191.829 119.483 193.293 119.598 193.607 118.988" stroke="#263238" stroke-linecap="round" stroke-linejoin="round"/>
<path d="M199.456 96.1138C199.456 96.1138 195.04 96.1138 192.581 99.3238C191.879 100.261 191.457 101.378 191.365 102.545C191.273 103.712 191.514 104.882 192.061 105.917L193.056 103.946C193.056 103.946 194.564 106.469 198.641 106.437L197.999 103.484C197.999 103.484 199.489 106.771 202.294 107.785L201.89 112.979C201.89 112.979 203.861 110.841 205.902 112.106C209.754 114.481 208.47 120.799 208.47 120.799C208.47 120.799 211.834 122.783 214.839 121.306C217.843 119.829 226.273 109.788 219.204 100.396C212.136 91.0035 200.548 95.1829 199.456 96.1138Z" fill="#263238"/>
<path d="M203.746 111.965C203.746 111.965 207.469 108.665 208.625 111.207C209.78 113.75 208.22 116.343 206.397 117.89C204.574 119.438 200.991 119.675 202.545 117.589" fill="white"/>
<path d="M203.746 111.965C203.746 111.965 207.469 108.665 208.625 111.207C209.78 113.75 208.22 116.343 206.397 117.89C204.574 119.438 200.991 119.675 202.545 117.589" stroke="#263238" stroke-linecap="round" stroke-linejoin="round"/>
<path d="M219.089 105.628C219.089 105.628 222.491 96.6403 230.972 97.9243C236.795 98.8102 232.552 101.417 232.552 101.417C232.552 101.417 238.811 102.425 240.313 107.285C241.071 109.731 236.307 107.618 236.307 107.618C236.307 107.618 238.291 109.442 238.875 113.3C239.28 115.868 236.384 115.586 231.948 111.079C231.948 111.079 232.436 112.941 235.203 114.931C237.97 116.921 230.818 117.955 227.12 113.191C227.175 113.739 227.095 114.292 226.888 114.802C226.681 115.312 226.353 115.764 225.933 116.119C224.501 117.248 225.445 112.389 221.053 110.758C216.662 109.127 219.089 105.628 219.089 105.628Z" fill="#263238"/>
<g opacity="0.2">
<path d="M197.646 97.7958C197.646 97.7958 193.711 99.3687 194.622 102.842" stroke="white" stroke-linecap="round" stroke-linejoin="round"/>
<path d="M198.648 98.3928C198.648 98.3928 198.262 102.964 203.219 104.742" stroke="white" stroke-linecap="round" stroke-linejoin="round"/>
<path d="M202.146 97.4363C202.146 97.4363 214.293 94.8683 219.48 104.742" stroke="white" stroke-linecap="round" stroke-linejoin="round"/>
<path d="M204.599 108.113C204.599 108.113 213.375 111.323 220.007 108.113" stroke="white" stroke-linecap="round" stroke-linejoin="round"/>
<path d="M211.218 118.205C211.218 118.205 216.713 115.823 219.487 111.297" stroke="white" stroke-linecap="round" stroke-linejoin="round"/>
<path d="M222.518 104.742C222.518 104.742 228.546 100.608 233.316 105.506" stroke="white" stroke-linecap="round" stroke-linejoin="round"/>
<path d="M223.788 107.285C223.788 107.285 228.879 107.06 229.412 111.297" stroke="white" stroke-linecap="round" stroke-linejoin="round"/>
</g>
<path d="M184.8 187.503C184.8 187.503 195.714 194.102 209.022 192.241" stroke="#263238" stroke-linecap="round" stroke-linejoin="round"/>
<path d="M208.329 157.701C208.329 157.701 205.318 162.888 201.306 163.338" stroke="#263238" stroke-linecap="round" stroke-linejoin="round"/>
<path d="M212.868 164.994C212.868 164.994 209.35 169.398 206.621 169.225" stroke="#263238" stroke-linecap="round" stroke-linejoin="round"/>
<path d="M146.498 175.998C147.412 178.708 149.169 181.054 151.512 182.694" stroke="#263238" stroke-linecap="round" stroke-linejoin="round"/>
<path d="M177.141 163.967C177.141 163.967 181.885 166.439 185.609 163.325" stroke="#263238" stroke-linecap="round" stroke-linejoin="round"/>
</svg>
