<svg width="303" height="303" viewBox="0 0 303 303" fill="none" xmlns="http://www.w3.org/2000/svg">
<path d="M284.911 165.371C302.576 99.5234 256.259 33.1421 186.387 24.8884C185.515 24.7854 184.642 24.6945 183.769 24.6036C134.865 19.592 85.2156 58.079 68.9142 87.4397C52.6128 116.8 15.5862 144.731 21.8583 199.15C28.1304 253.569 58.9092 282.578 137.829 291.171C216.748 299.764 234.183 276.487 261.21 225.65C271.312 206.494 279.261 186.278 284.911 165.371Z" fill="#00C29C"/>
<path opacity="0.7" d="M284.911 165.371C302.576 99.5234 256.259 33.1421 186.387 24.8884C185.515 24.7854 184.642 24.6945 183.769 24.6036C134.865 19.592 85.2156 58.079 68.9142 87.4397C52.6128 116.8 15.5862 144.731 21.8583 199.15C28.1304 253.569 58.9092 282.578 137.829 291.171C216.748 299.764 234.183 276.487 261.21 225.65C271.312 206.494 279.261 186.278 284.911 165.371Z" fill="white"/>
<g opacity="0.3">
<path d="M211.536 78.6042H183.284C179.572 78.6042 176.563 81.6131 176.563 85.3248V164.468C176.563 168.18 179.572 171.189 183.284 171.189H211.536C215.247 171.189 218.256 168.18 218.256 164.468V85.3248C218.256 81.6131 215.247 78.6042 211.536 78.6042Z" stroke="black" stroke-linecap="round" stroke-linejoin="round"/>
<path d="M259.052 78.6042H230.801C227.089 78.6042 224.08 81.6131 224.08 85.3248V164.468C224.08 168.18 227.089 171.189 230.801 171.189H259.052C262.764 171.189 265.773 168.18 265.773 164.468V85.3248C265.773 81.6131 262.764 78.6042 259.052 78.6042Z" stroke="black" stroke-linecap="round" stroke-linejoin="round"/>
<path d="M163.711 78.6042H135.459C131.747 78.6042 128.738 81.6131 128.738 85.3248V164.468C128.738 168.18 131.747 171.189 135.459 171.189H163.711C167.422 171.189 170.431 168.18 170.431 164.468V85.3248C170.431 81.6131 167.422 78.6042 163.711 78.6042Z" stroke="black" stroke-linecap="round" stroke-linejoin="round"/>
<path d="M115.885 78.6042H87.6336C83.922 78.6042 80.9131 81.6131 80.9131 85.3248V164.468C80.9131 168.18 83.922 171.189 87.6336 171.189H115.885C119.597 171.189 122.606 168.18 122.606 164.468V85.3248C122.606 81.6131 119.597 78.6042 115.885 78.6042Z" stroke="black" stroke-linecap="round" stroke-linejoin="round"/>
<path d="M68.0592 78.6042H39.8075C36.0958 78.6042 33.0869 81.6131 33.0869 85.3248V164.468C33.0869 168.18 36.0958 171.189 39.8075 171.189H68.0592C71.7708 171.189 74.7797 168.18 74.7797 164.468V85.3248C74.7797 81.6131 71.7708 78.6042 68.0592 78.6042Z" stroke="black" stroke-linecap="round" stroke-linejoin="round"/>
<path d="M246.884 95.5238H243.066C234.157 95.5238 226.935 102.746 226.935 111.656V132.411C226.935 141.32 234.157 148.543 243.066 148.543H246.884C255.793 148.543 263.016 141.32 263.016 132.411V111.656C263.016 102.746 255.793 95.5238 246.884 95.5238Z" stroke="black" stroke-linecap="round" stroke-linejoin="round"/>
<path d="M245.757 97.6691H244.187C235.278 97.6691 228.056 104.891 228.056 113.801V130.272C228.056 139.181 235.278 146.404 244.187 146.404H245.757C254.666 146.404 261.889 139.181 261.889 130.272V113.801C261.889 104.891 254.666 97.6691 245.757 97.6691Z" stroke="black" stroke-linecap="round" stroke-linejoin="round"/>
<path d="M199.053 95.5238H195.235C186.326 95.5238 179.104 102.746 179.104 111.656V132.411C179.104 141.32 186.326 148.543 195.235 148.543H199.053C207.962 148.543 215.185 141.32 215.185 132.411V111.656C215.185 102.746 207.962 95.5238 199.053 95.5238Z" stroke="black" stroke-linecap="round" stroke-linejoin="round"/>
<path d="M197.598 97.6691H196.695C187.786 97.6691 180.563 104.891 180.563 113.801V130.272C180.563 139.181 187.786 146.404 196.695 146.404H197.598C206.507 146.404 213.73 139.181 213.73 130.272V113.801C213.73 104.891 206.507 97.6691 197.598 97.6691Z" stroke="black" stroke-linecap="round" stroke-linejoin="round"/>
<path d="M151.227 95.5238H147.409C138.5 95.5238 131.277 102.746 131.277 111.656V132.411C131.277 141.32 138.5 148.543 147.409 148.543H151.227C160.136 148.543 167.359 141.32 167.359 132.411V111.656C167.359 102.746 160.136 95.5238 151.227 95.5238Z" stroke="black" stroke-linecap="round" stroke-linejoin="round"/>
<path d="M149.773 97.6691H148.87C139.961 97.6691 132.738 104.891 132.738 113.801V130.272C132.738 139.181 139.961 146.404 148.87 146.404H149.773C158.682 146.404 165.905 139.181 165.905 130.272V113.801C165.905 104.891 158.682 97.6691 149.773 97.6691Z" stroke="black" stroke-linecap="round" stroke-linejoin="round"/>
<path d="M103.402 95.5238H99.5839C90.6746 95.5238 83.4521 102.746 83.4521 111.656V132.411C83.4521 141.32 90.6746 148.543 99.5839 148.543H103.402C112.311 148.543 119.533 141.32 119.533 132.411V111.656C119.533 102.746 112.311 95.5238 103.402 95.5238Z" stroke="black" stroke-linecap="round" stroke-linejoin="round"/>
<path d="M101.947 97.6691H101.044C92.1345 97.6691 84.9121 104.891 84.9121 113.801V130.272C84.9121 139.181 92.1345 146.404 101.044 146.404H101.947C110.856 146.404 118.078 139.181 118.078 130.272V113.801C118.078 104.891 110.856 97.6691 101.947 97.6691Z" stroke="black" stroke-linecap="round" stroke-linejoin="round"/>
<path d="M55.5765 95.5238H51.7587C42.8494 95.5238 35.627 102.746 35.627 111.656V132.411C35.627 141.32 42.8494 148.543 51.7587 148.543H55.5765C64.4858 148.543 71.7082 141.32 71.7082 132.411V111.656C71.7082 102.746 64.4858 95.5238 55.5765 95.5238Z" stroke="black" stroke-linecap="round" stroke-linejoin="round"/>
<path d="M54.1216 97.6691H53.2186C44.3093 97.6691 37.0869 104.891 37.0869 113.801V130.272C37.0869 139.181 44.3093 146.404 53.2186 146.404H54.1216C63.0309 146.404 70.2533 139.181 70.2533 130.272V113.801C70.2533 104.891 63.0309 97.6691 54.1216 97.6691Z" stroke="black" stroke-linecap="round" stroke-linejoin="round"/>
<path d="M173.188 31.8392V270.494" stroke="black" stroke-linecap="round" stroke-linejoin="round"/>
<path d="M77.2344 31.8392V270.494" stroke="black" stroke-linecap="round" stroke-linejoin="round"/>
<path d="M125.363 31.8392V270.494" stroke="black" stroke-linecap="round" stroke-linejoin="round"/>
<path d="M220.711 31.8392V270.494" stroke="black" stroke-linecap="round" stroke-linejoin="round"/>
<path d="M28.7666 54.1643H267.24" stroke="black" stroke-linecap="round" stroke-linejoin="round"/>
<path d="M77.6045 43.0745H83.4463L87.1369 45.8439H116.588L119.576 43.0866H125.321" stroke="black" stroke-linecap="round" stroke-linejoin="round"/>
<path d="M83.4463 43.0745H119.497" stroke="black" stroke-linecap="round" stroke-linejoin="round"/>
<path d="M29.3486 43.0745H35.1905L38.881 45.8439H68.3387L71.3263 43.0866H77.0651" stroke="black" stroke-linecap="round" stroke-linejoin="round"/>
<path d="M35.1904 43.0745H71.2414" stroke="black" stroke-linecap="round" stroke-linejoin="round"/>
<path d="M125.63 43.0745H131.472L135.156 45.8439H164.614L167.601 43.0866H173.346" stroke="black" stroke-linecap="round" stroke-linejoin="round"/>
<path d="M131.472 43.0745H167.523" stroke="black" stroke-linecap="round" stroke-linejoin="round"/>
<path d="M220.898 43.0745H226.74L230.431 45.8439H259.888L262.876 43.0866H268.615" stroke="black" stroke-linecap="round" stroke-linejoin="round"/>
<path d="M226.741 43.0745H262.798" stroke="black" stroke-linecap="round" stroke-linejoin="round"/>
<path d="M173.122 43.0745H178.964L182.654 45.8439H212.106L215.1 43.0866H220.839" stroke="black" stroke-linecap="round" stroke-linejoin="round"/>
<path d="M178.964 43.0745H215.015" stroke="black" stroke-linecap="round" stroke-linejoin="round"/>
<path d="M28.7666 31.9241H267.24" stroke="black" stroke-linecap="round" stroke-linejoin="round"/>
</g>
<path d="M230.196 129.951L215.088 137.938L214.555 145.913L231.305 132.108C231.305 132.108 231.492 130.205 230.196 129.951Z" fill="white" stroke="#263238" stroke-linecap="round" stroke-linejoin="round"/>
<path d="M214.421 135.944C214.421 135.944 212.028 137.404 211.628 138.871C211.228 140.337 211.628 141.901 211.628 142.592C211.628 143.283 209.634 144.452 207.907 147.106C206.18 149.761 203.259 159.602 203.259 159.602C203.259 159.602 215.985 142.028 216.148 141.259C216.312 140.489 215.882 137.938 215.882 137.017C215.882 136.095 214.421 135.944 214.421 135.944Z" fill="#263238" stroke="#263238" stroke-linecap="round" stroke-linejoin="round"/>
<path d="M215.476 97.6811C217.9 97.6084 204.368 96.4691 208.889 99.4991C211.185 101.032 212.428 101.05 212.428 101.05C212.428 101.05 209.398 101.917 210.907 103.208C212.416 104.499 213.24 104.474 213.24 104.474C213.24 104.474 210.44 109.092 210.476 109.928C210.513 110.765 210.658 112.855 210.658 112.855C210.658 112.855 206.21 116.722 206.416 117.297C206.873 118.065 207.414 118.781 208.028 119.43C208.028 119.43 206.646 126.03 207.422 127.781C208.198 129.532 211.84 129.999 212.925 130.138C214.009 130.278 215.573 134.344 215.573 134.344L230.226 129.975L230.183 124.854C232.839 122.04 235.336 119.08 237.661 115.988C240.352 112.177 240.376 105.408 237.71 102.444C235.044 99.4809 230.608 96.2994 220.269 94.9905C209.931 93.6815 215.476 97.6811 215.476 97.6811Z" fill="white" stroke="#263238" stroke-linecap="round" stroke-linejoin="round"/>
<path d="M212.742 113.813C213.22 113.737 213.71 113.82 214.137 114.049C214.564 114.277 214.904 114.639 215.106 115.079" stroke="#263238" stroke-linecap="round" stroke-linejoin="round"/>
<path d="M221.19 126.878C224.123 123.376 224.554 118.867 224.929 116.982C225.305 115.098 227.826 114.861 228.844 116.649C229.862 118.437 228.717 120.891 227.814 121.497C226.911 122.103 226.281 122.709 226.505 123.133C226.729 123.557 228.323 124.048 229.135 124.157L230.62 124.339C233.113 121.682 235.455 118.888 237.637 115.97C240.328 112.158 240.352 105.389 237.686 102.426C235.019 99.4628 230.583 96.2813 220.245 94.9723C209.907 93.6634 215.482 97.6872 215.482 97.6872C217.906 97.6145 204.374 96.4752 208.894 99.5052C211.191 101.038 212.434 101.057 212.434 101.057C212.434 101.057 209.404 101.923 210.912 103.214C212.209 104.335 213.003 104.462 213.197 104.474H213.246L220.336 105.232C220.336 105.232 217.663 107.795 217.815 108.783C217.966 109.771 220.342 111.728 220.845 112.34C221.348 112.952 221.233 114.764 221.233 114.764C221.233 114.764 219.584 123.4 218.36 124.351C217.136 125.303 215.045 124.351 214.567 123.745C214.088 123.139 213.773 121.321 211.815 120.358C210.642 119.793 209.36 119.489 208.058 119.467C208.058 119.467 206.677 126.066 207.452 127.818C208.228 129.569 211.87 130.035 212.955 130.175C212.894 130.114 218.257 130.375 221.19 126.878Z" fill="#263238" stroke="#263238" stroke-linecap="round" stroke-linejoin="round"/>
<path d="M208.725 122.673C209.883 122.96 211.103 122.873 212.209 122.424" stroke="white" stroke-linecap="round" stroke-linejoin="round"/>
<path d="M212.742 110.934C212.742 110.934 215.106 110.383 216.293 112.401" stroke="#263238" stroke-linecap="round" stroke-linejoin="round"/>
<path d="M230.371 127.702L214.421 133.817L214.021 139.798L231.571 130.229L230.371 127.702Z" fill="white" stroke="#263238" stroke-linecap="round" stroke-linejoin="round"/>
<path d="M138.835 256.944L133.987 260.471C133.987 260.471 125.036 262.64 123.685 263.18C122.333 263.719 121.515 266.979 122.873 268.337C124.23 269.694 126.987 270.155 132.908 270.506C138.829 270.858 155.148 270.773 155.148 270.773C155.148 270.773 156.233 264.537 155.96 261.556C155.798 259.741 155.798 257.916 155.96 256.102L142.671 255.017L138.835 256.944Z" fill="white" stroke="#263238" stroke-linecap="round" stroke-linejoin="round"/>
<path d="M155.136 270.785C155.136 270.785 155.457 268.967 155.706 266.798C148.089 266.852 135.841 269.518 130.454 268.349C127.645 267.734 124.873 266.961 122.152 266.034C122.097 266.446 122.13 266.865 122.248 267.264C122.366 267.663 122.566 268.033 122.836 268.349C124.194 269.7 126.951 270.167 132.872 270.518C138.792 270.87 155.136 270.785 155.136 270.785Z" fill="white" stroke="#263238" stroke-linecap="round" stroke-linejoin="round"/>
<path d="M166.232 197.011C166.232 197.011 151.585 196.471 149.416 202.98C147.246 209.488 142.095 249.357 142.095 249.357C142.095 249.357 140.192 250.714 139.926 251.781C139.659 252.847 138.835 256.938 138.835 256.938L152.397 260.465L157.851 251.514L163.814 223.305L167.068 214.621L190.939 215.166L166.232 197.011Z" fill="#00C29C" stroke="#263238" stroke-linecap="round" stroke-linejoin="round"/>
<path d="M153.548 256.502L147.301 262.877C147.301 262.877 138.817 267.531 138.259 268.464C138.116 268.65 138.015 268.866 137.963 269.095C137.911 269.324 137.91 269.562 137.958 269.792C138.007 270.022 138.106 270.238 138.247 270.427C138.387 270.615 138.567 270.77 138.774 270.882C139.707 271.549 166.953 270.882 166.953 270.882C166.953 270.882 167.486 270.621 167.62 268.628C167.753 266.634 166.287 261.847 166.287 261.847L153.548 256.502Z" fill="white" stroke="#263238" stroke-linecap="round" stroke-linejoin="round"/>
<path d="M138.108 268.767C137.923 269.137 137.889 269.565 138.013 269.959C138.138 270.354 138.411 270.685 138.775 270.882C139.708 271.549 166.954 270.882 166.954 270.882C166.954 270.882 167.444 270.634 167.602 268.84C159.463 268.731 142.75 268.591 138.108 268.767Z" fill="white" stroke="#263238" stroke-linecap="round" stroke-linejoin="round"/>
<path d="M178.643 237.346H175.807C174.522 237.341 173.277 236.893 172.284 236.077C171.29 235.261 170.608 234.128 170.353 232.868L167.117 216.875C166.888 215.743 167.031 214.566 167.526 213.522C168.021 212.478 168.841 211.622 169.862 211.082C170.954 210.508 172.211 210.328 173.42 210.573L214.67 218.905L206.647 235.601L178.643 237.346Z" fill="#ABABAB" stroke="#263238" stroke-linecap="round" stroke-linejoin="round"/>
<path d="M195.284 196.556C195.284 196.556 169.499 196.556 164.578 197.083C159.657 197.611 152.882 199.477 151.949 204.798C151.016 210.118 154.979 250.52 154.979 250.52C154.622 250.533 154.271 250.621 153.951 250.78C153.631 250.938 153.348 251.163 153.122 251.44C152.895 251.716 152.73 252.038 152.638 252.383C152.545 252.728 152.527 253.089 152.585 253.441C152.765 254.809 152.765 256.194 152.585 257.562C152.585 257.562 164.414 261.95 166.275 261.804C166.275 261.804 166.408 255.956 166.408 254.496C166.408 253.035 166.275 251.835 166.275 251.835L169.862 215.148C169.862 215.148 209.077 221.663 215.058 221.663C221.039 221.663 225.426 221.129 227.42 216.748C229.414 212.367 229.808 199.065 229.808 199.065L195.284 196.556Z" fill="#00C29C" stroke="#263238" stroke-linecap="round" stroke-linejoin="round"/>
<path d="M231.565 129.163C231.565 129.163 210.567 146.046 210.167 147.64C209.767 149.234 200.599 161.578 199.932 164.923C199.265 168.268 198.471 178.346 197.938 179.806C197.405 181.267 195.944 192.963 195.678 194.296C195.411 195.629 192.224 196.95 192.224 196.95C192.224 196.95 207.113 205.992 213.094 207.185C219.075 208.379 224.002 206.919 226.65 206.919C229.299 206.919 229.571 206.525 229.571 206.525C229.571 206.525 236.619 168.51 238.055 160.535C239.492 152.561 240.716 148.973 239.267 144.173C237.819 139.374 236.207 135.532 235.413 134.605C234.619 133.678 232.632 129.429 231.565 129.163Z" fill="#00C29C" stroke="#263238" stroke-linecap="round" stroke-linejoin="round"/>
<path d="M233.789 131.969C233.002 130.641 232.147 129.308 231.565 129.163C231.565 129.163 210.567 146.046 210.167 147.64C209.767 149.234 200.599 161.578 199.932 164.923C199.696 166.135 199.435 168.195 199.181 170.431C199.886 169.083 200.493 167.686 200.999 166.25C201.659 164.123 215.488 149.234 215.488 149.234L214.688 146.713L218.409 146.846L233.789 131.969Z" fill="#00C29C" stroke="#263238" stroke-linecap="round" stroke-linejoin="round"/>
<path d="M160.457 165.056C160.457 165.056 159.984 164.347 161.166 162.929L162.347 161.517C162.347 161.517 164.468 167.656 166.359 170.486L168.25 173.322C168.25 173.322 161.638 166.711 160.457 165.056Z" fill="white" stroke="#263238" stroke-linecap="round" stroke-linejoin="round"/>
<path d="M182.849 177.691L174.207 166.929C174.207 166.929 172.026 170.013 166.596 168.601C164.245 168.05 162.11 166.816 160.457 165.056L172.971 185.363C172.971 185.363 178.461 188.06 185.376 184.339C186.939 183.497 182.849 177.691 182.849 177.691Z" fill="white" stroke="#263238" stroke-linecap="round" stroke-linejoin="round"/>
<path d="M195.284 183.794L189.83 181.133C189.83 181.133 186.8 175.952 185.975 175.819C185.151 175.685 180.127 176.485 179.6 176.885C179.073 177.285 177.734 179.915 177.606 180.606C177.479 181.297 179.861 181.933 179.861 181.933C179.861 181.933 181.194 187.915 181.594 188.448C181.994 188.981 183.188 189.242 184.782 189.242C186.375 189.242 186.509 188.581 186.509 188.581C186.509 188.581 189.83 190.042 191.296 190.042C192.763 190.042 195.15 189.775 195.15 189.775L195.284 183.794Z" fill="white" stroke="#263238" stroke-linecap="round" stroke-linejoin="round"/>
<path d="M179.861 181.933L184.649 179.673" stroke="#263238" stroke-linecap="round" stroke-linejoin="round"/>
<path d="M179.861 179.54L181.855 180.739" stroke="#263238" stroke-linecap="round" stroke-linejoin="round"/>
<path d="M180.794 184.46L185.048 182.333" stroke="#263238" stroke-linecap="round" stroke-linejoin="round"/>
<path d="M181.061 187.115L185.581 184.988" stroke="#263238" stroke-linecap="round" stroke-linejoin="round"/>
<path d="M224.657 152.027C224.657 152.027 219.603 157.608 219.736 160.402C219.869 163.196 218.009 182.6 218.009 182.6L194.617 182.867L193.405 191.635C193.405 191.635 203.374 194.029 214.936 195.49C226.499 196.95 229.293 196.156 230.22 194.429C231.147 192.702 239.261 154.688 239.261 152.427C239.261 150.167 234.607 146.973 234.607 146.973" fill="#00C29C"/>
<path d="M224.657 152.027C224.657 152.027 219.603 157.608 219.736 160.402C219.869 163.196 218.009 182.6 218.009 182.6L194.617 182.867L193.405 191.635C193.405 191.635 203.374 194.029 214.936 195.49C226.499 196.95 229.293 196.156 230.22 194.429C231.147 192.702 239.261 154.688 239.261 152.427C239.261 150.167 234.607 146.973 234.607 146.973" stroke="#263238" stroke-linecap="round" stroke-linejoin="round"/>
<path d="M229.026 197.271C229.026 197.271 238.898 149.07 241.364 138.325C243.831 127.581 240.637 124.824 245.576 123.812C250.515 122.8 258.823 124.091 262.308 125.4C265.792 126.708 265.035 132.581 264.162 137.95C263.289 143.319 260.447 155.087 259.429 157.705C258.411 160.323 256.744 160.038 255.726 163.668C254.708 167.298 245.158 208.646 245.158 208.646L227.856 203.083L229.026 197.271Z" fill="#ABABAB" stroke="#263238" stroke-linecap="round" stroke-linejoin="round"/>
<path d="M242.037 197.841L182.328 193.375C181.695 193.328 181.067 193.499 180.544 193.858C180.022 194.217 179.638 194.743 179.455 195.35L177.213 202.889L245.158 208.646L242.037 197.841Z" fill="white" stroke="#263238" stroke-linecap="round" stroke-linejoin="round"/>
<path d="M180.819 237.958C180.819 237.958 178.061 250.157 177.479 257.538C176.898 264.919 175.74 269.288 178.352 270.494C180.964 271.7 219.293 270.494 219.293 270.494C219.293 270.494 226.699 271.1 226.699 266.573C226.699 261.198 225.105 259.192 226.553 247.896C227.335 241.836 228.444 237.055 228.444 237.055H182.127L180.819 237.958Z" fill="#ABABAB" stroke="#263238" stroke-linecap="round" stroke-linejoin="round"/>
<path d="M203.616 240.667C203.616 240.667 193.017 244.733 186.485 255.277C181.74 262.931 179.952 267.179 185.467 268.385C190.981 269.591 198.096 266.276 203.471 266.125C208.846 265.973 213.488 269.288 216.803 267.337C220.118 265.386 216.512 256.944 218.257 249.86C220.002 242.776 220.021 236.752 203.616 240.667Z" fill="white" stroke="#263238" stroke-linecap="round" stroke-linejoin="round"/>
<path d="M194.005 260.998C195.466 263.18 200.762 261.992 205.834 258.332C210.907 254.672 213.821 249.939 212.355 247.751C210.888 245.563 205.598 246.763 200.526 250.417C195.454 254.072 192.539 258.811 194.005 260.998Z" fill="#ABABAB" stroke="#263238" stroke-linecap="round" stroke-linejoin="round"/>
<path d="M244.266 205.434L215.088 202.822L206.082 221.111L178.594 220.263C177.946 220.244 177.303 220.373 176.712 220.639C176.121 220.905 175.598 221.302 175.183 221.8C174.768 222.298 174.472 222.884 174.316 223.513C174.161 224.142 174.15 224.798 174.286 225.432L176.661 236.419C176.853 237.303 177.342 238.095 178.047 238.662C178.751 239.23 179.629 239.54 180.533 239.54H232.177C233.073 239.538 233.945 239.253 234.669 238.725C235.393 238.197 235.931 237.453 236.207 236.601L245.157 208.664L244.266 205.434Z" fill="white" stroke="#263238" stroke-linecap="round" stroke-linejoin="round"/>
<path d="M250.787 185.066L255.932 162.438L259.429 157.705L254.078 185.272L250.787 185.066Z" fill="white" stroke="#263238" stroke-linecap="round" stroke-linejoin="round"/>
<path d="M242.037 197.841C242.037 197.841 245.594 187.539 247.703 185.684C248.8 184.709 255.127 183.509 257.945 182.757C258.18 182.694 258.426 182.682 258.667 182.721C258.907 182.761 259.136 182.851 259.339 182.987C259.541 183.122 259.713 183.3 259.841 183.507C259.97 183.714 260.052 183.946 260.084 184.188C260.136 184.584 260.049 184.986 259.836 185.325C259.624 185.663 259.3 185.917 258.92 186.042L250.885 188.357C250.387 188.52 249.935 188.798 249.565 189.168C249.196 189.539 248.919 189.992 248.758 190.49L243.813 203.949L242.037 197.841Z" fill="#ABABAB" stroke="#263238" stroke-linecap="round" stroke-linejoin="round"/>
<path d="M61.8418 237.467H59.0057C57.7202 237.462 56.4758 237.014 55.4822 236.198C54.4887 235.382 53.8069 234.249 53.5517 232.989L50.2975 216.996C50.0686 215.865 50.2123 214.689 50.7072 213.646C51.202 212.603 52.0214 211.748 53.0427 211.209C54.1339 210.633 55.3902 210.451 56.5999 210.694L97.8503 219.027L89.8633 235.734L61.8418 237.467Z" fill="#ABABAB" stroke="#263238" stroke-linecap="round" stroke-linejoin="round"/>
<path d="M112.225 197.398C112.225 197.398 122.097 149.197 124.563 138.453C127.03 127.708 123.836 124.951 128.775 123.909C133.714 122.867 142.022 124.194 145.507 125.497C148.991 126.799 148.234 132.678 147.361 138.053C146.488 143.428 143.646 155.191 142.628 157.802C141.61 160.414 139.943 160.142 138.925 163.772C137.907 167.401 128.357 208.749 128.357 208.749L111.062 203.18L112.225 197.398Z" fill="#ABABAB" stroke="#263238" stroke-linecap="round" stroke-linejoin="round"/>
<path d="M125.236 197.968L65.5267 193.496C64.8937 193.449 64.2636 193.62 63.7411 193.98C63.2186 194.341 62.8351 194.869 62.6543 195.477L60.4121 203.01L128.357 208.773L125.236 197.968Z" fill="white" stroke="#263238" stroke-linecap="round" stroke-linejoin="round"/>
<path d="M64.0237 238.079C64.0237 238.079 61.2603 250.278 60.6846 257.659C60.1089 265.04 58.9393 269.409 61.5512 270.615C64.1631 271.821 102.493 270.615 102.493 270.615C102.493 270.615 109.898 271.221 109.898 266.701C109.898 261.319 108.304 259.32 109.752 248.024C110.534 241.964 111.643 237.176 111.643 237.176H65.3266L64.0237 238.079Z" fill="#ABABAB" stroke="#263238" stroke-linecap="round" stroke-linejoin="round"/>
<path d="M86.8154 240.794C86.8154 240.794 76.2165 244.86 69.6838 255.399C64.9388 263.059 63.1511 267.301 68.6657 268.507C74.1803 269.712 81.3008 266.398 86.67 266.246C92.0392 266.095 96.6872 269.409 100.002 267.458C103.317 265.507 99.7111 257.065 101.456 249.987C103.202 242.909 103.22 236.873 86.8154 240.794Z" fill="white" stroke="#263238" stroke-linecap="round" stroke-linejoin="round"/>
<path d="M89.1964 258.339C94.2389 254.643 97.0659 249.927 95.5108 247.805C93.9556 245.683 88.6072 246.96 83.5648 250.656C78.5223 254.352 75.6953 259.068 77.2504 261.189C78.8055 263.311 84.154 262.035 89.1964 258.339Z" fill="white" stroke="#263238" stroke-linecap="round" stroke-linejoin="round"/>
<path d="M127.466 205.525L98.287 202.913L89.2819 221.19L61.8119 220.36C61.163 220.34 60.5181 220.467 59.9261 220.734C59.3341 221 58.8106 221.398 58.3952 221.897C57.9799 222.395 57.6837 222.982 57.5291 223.613C57.3746 224.243 57.3657 224.901 57.5032 225.535L59.8787 236.522C60.07 237.406 60.5587 238.199 61.2633 238.767C61.968 239.335 62.846 239.644 63.7511 239.643H115.394C116.283 239.632 117.146 239.343 117.862 238.816C118.577 238.288 119.109 237.55 119.382 236.704L128.332 208.773L127.466 205.525Z" fill="white" stroke="#263238" stroke-linecap="round" stroke-linejoin="round"/>
<path d="M171.637 183.285H139.707V185.636H171.637V183.285Z" fill="white" stroke="#263238" stroke-linecap="round" stroke-linejoin="round"/>
<path d="M125.235 197.968C125.235 197.968 128.793 187.666 130.901 185.812C131.998 184.836 138.331 183.63 141.143 182.879C141.379 182.815 141.625 182.803 141.866 182.843C142.107 182.883 142.336 182.974 142.539 183.11C142.742 183.246 142.913 183.424 143.041 183.632C143.169 183.84 143.251 184.073 143.282 184.315C143.334 184.71 143.247 185.112 143.034 185.449C142.822 185.787 142.498 186.039 142.119 186.163L134.101 188.466C133.604 188.629 133.151 188.907 132.782 189.278C132.412 189.648 132.135 190.101 131.974 190.599L127.029 204.064L125.235 197.968Z" fill="#ABABAB" stroke="#263238" stroke-linecap="round" stroke-linejoin="round"/>
<path d="M106.456 51.1282C106.456 51.1282 101.481 48.4376 96.9234 48.5406C92.3663 48.6436 85.8457 56.2065 84.3913 62.521C82.9369 68.8355 85.6397 73.9138 86.779 78.0589C87.9182 82.2039 88.3303 86.858 86.882 88.1003C85.4336 89.3426 83.6702 87.8942 83.6702 87.8942C83.6702 87.8942 83.4641 92.0393 85.9487 94.2148C88.4333 96.3904 96.3053 94.5239 101.899 89.8637C107.492 85.2036 106.971 77.7437 106.456 72.1504C105.941 66.557 106.662 59.0002 107.595 57.1337C108.528 55.2672 108.213 51.6494 106.456 51.1282Z" fill="#263238" stroke="#263238" stroke-linecap="round" stroke-linejoin="round"/>
<path d="M67.6352 199.241C67.6352 199.241 67.3807 207.161 67.3807 208.185C67.3807 209.209 63.5507 216.742 62.2721 223.257C60.9934 229.771 61.3752 252.005 61.3752 253.284C61.3752 254.562 61.5146 256.786 60.9934 258.653C60.0965 261.847 61.2479 264.913 61.3752 265.925C61.5025 266.937 61.757 268.864 61.757 268.864L61.8903 270.621H64.0598L64.3143 266.822C64.3143 266.822 67.1261 269.379 68.6593 270.015C70.1925 270.652 70.4773 270.397 72.6226 270.912C74.7678 271.427 79.3431 270.991 80.2339 270.609C81.1247 270.228 80.5672 269.028 79.3007 268.149C78.1311 267.331 78.0887 267.246 76.0707 265.925C72.3802 263.501 68.5321 258.386 67.8897 257.623C67.2473 256.859 67.8897 254.938 68.2775 252.896C68.6654 250.854 71.9802 232.195 74.6648 226.705C77.3494 221.214 80.6702 211.246 81.4338 208.943C82.1974 206.64 82.4579 202.047 82.4579 202.047L67.6352 199.241Z" fill="white" stroke="#263238" stroke-linecap="round" stroke-linejoin="round"/>
<path d="M79.3005 268.155C78.4278 267.549 78.1854 267.343 77.2825 266.737L74.7918 268.361C74.7918 268.361 71.3437 269.385 65.3382 263.889C63.6937 262.309 62.2377 260.544 60.9993 258.629C60.1024 261.822 61.2538 264.889 61.3811 265.901C61.5083 266.913 61.7628 268.84 61.7628 268.84L61.8962 270.597H64.0656L64.3202 266.798C64.3202 266.798 67.132 269.355 68.6652 269.991C70.1984 270.627 70.4832 270.373 72.6284 270.888C74.7737 271.403 79.349 270.967 80.2398 270.585C81.1306 270.203 80.5973 269.064 79.3005 268.155Z" fill="#263238" stroke="#263238" stroke-linecap="round" stroke-linejoin="round"/>
<path d="M89.7902 202.719C89.7902 202.719 90.172 205.786 88.6388 211.809C87.1057 217.833 87.2329 224.075 89.1539 231.104C91.0749 238.134 92.6021 247.327 93.3656 251.672C94.1292 256.017 93.8807 257.041 93.8807 257.041C93.8807 257.041 91.8324 259.592 92.2203 261.386C92.6081 263.18 93.1111 270.294 93.1111 270.294H95.1412L96.1593 264.707C97.2298 264.906 98.1872 265.499 98.8439 266.367C100.123 267.901 100.504 269.306 103.825 270.07C107.146 270.834 110.491 270.712 111.491 270.197C112.491 269.682 112.006 268.925 110.6 268.282C109.194 267.64 108.552 267.391 107.788 266.495C107.025 265.598 100.141 257.55 99.6256 256.253C99.1105 254.956 99.7589 241.436 100.268 233.643C100.777 225.85 101.801 216.906 102.31 214.73C102.819 212.555 103.462 206.81 104.098 205.034C104.734 203.258 105.631 199.919 105.631 199.919L89.7902 202.719Z" fill="white" stroke="#263238" stroke-linecap="round" stroke-linejoin="round"/>
<path d="M97.2024 260.98C96.1443 259.627 95.0156 258.33 93.8209 257.095C93.5058 257.508 91.8696 259.75 92.2211 261.368C92.6029 263.155 93.1119 270.276 93.1119 270.276H95.142L96.1601 264.689C97.2306 264.888 98.188 265.48 98.8447 266.349C100.123 267.882 100.505 269.288 103.826 270.052C107.147 270.815 110.492 270.694 111.492 270.179C112.492 269.664 112.007 268.906 110.601 268.264C109.195 267.622 108.553 267.373 107.789 266.476L106.274 267.246C102.669 266.157 99.4967 263.966 97.2024 260.98Z" fill="#263238" stroke="#263238" stroke-linecap="round" stroke-linejoin="round"/>
<path d="M76.9922 133.247C73.3205 136.708 70.5158 140.984 68.8051 145.731C65.8782 153.724 64.9025 175.952 64.9025 175.952L62.9512 202.665C62.9512 202.665 72.5078 207.513 87.1306 206.367C101.753 205.222 109.946 202.077 109.946 202.077C109.946 202.077 109.553 178.291 107.995 166.008C106.438 153.724 106.238 150.215 106.238 149.646C106.238 149.076 106.456 146.616 106.456 146.616L105.444 140.465C105.444 140.465 106.413 141.828 96.469 138.707C90.6989 136.936 85.1471 134.519 79.9192 131.502L76.9922 133.247Z" fill="#263238" stroke="#263238" stroke-linecap="round" stroke-linejoin="round"/>
<path d="M103.486 82.1008C103.486 82.1008 93.0932 90.0697 91.2267 93.3846C89.3603 96.6994 85.0153 105.505 83.876 109.437C82.7367 113.37 81.3914 125.387 81.3914 125.387L74.9678 133.671C74.9678 133.671 75.798 137.307 83.773 143.095C91.7479 148.882 96.9232 149.1 96.9232 149.1L100.656 143.719V149.076C100.656 149.076 102.207 148.561 104.074 147.864C104.935 147.594 105.741 147.173 106.456 146.622L106.662 141.343C106.662 141.343 111.734 132.023 115.049 127.048C118.363 122.073 118.776 116.891 119.503 112.11C120.23 107.329 118.897 101.547 118.291 99.6809C117.658 97.6189 116.862 95.6107 115.909 93.6754C115.079 92.2271 113.322 89.3243 113.322 89.3243C113.322 89.3243 104.971 82.8341 103.486 82.1008Z" fill="#263238" stroke="#263238" stroke-linecap="round" stroke-linejoin="round"/>
<path d="M102.619 87.0641C102.856 87.5731 112.564 109.335 112.564 109.335L115.672 123.727C115.672 123.727 118.987 115.34 118.878 109.129C118.769 102.917 114.43 94.1118 114.218 93.6937C113.975 92.2239 113.371 90.8372 112.461 89.6577C110.697 87.1731 102.722 83.3372 102.722 83.3372C102.722 83.3372 101.274 84.1674 102.619 87.0641Z" fill="white" stroke="#263238" stroke-linecap="round" stroke-linejoin="round"/>
<path d="M112.976 94.2148L109.764 100.941L102.619 87.0701L104.28 85.2036L112.976 94.2148Z" fill="white" stroke="#263238" stroke-linecap="round" stroke-linejoin="round"/>
<path d="M113.928 90.5546C114.989 91.6826 115.952 92.899 116.806 94.1906L118.461 97.0873L115.146 96.7782L113.928 90.5546Z" fill="white" stroke="#263238" stroke-linecap="round" stroke-linejoin="round"/>
<path d="M109.353 87.4822L112.976 94.2148L115.673 102.911L113.934 90.5546L109.353 87.4822Z" fill="white" stroke="#263238" stroke-linecap="round" stroke-linejoin="round"/>
<path d="M131.913 63.1997C131.913 63.1997 131.453 67.5023 130.992 70.1142C130.532 72.726 129.302 73.1866 129.459 74.4168C129.617 75.647 131.277 78.5679 130.671 79.6466C130.065 80.7252 127.441 81.0282 127.441 81.0282C127.441 81.0282 122.369 87.0216 120.987 87.6336C119.606 88.2457 115.915 86.7125 115.915 86.7125L113.915 90.5546L103.468 82.0706L105.771 75.9257C105.771 75.9257 102.086 71.3141 105.007 65.0177C107.928 58.7214 116.521 57.1821 122.06 57.9518C127.599 58.7214 131.913 63.1997 131.913 63.1997Z" fill="white" stroke="#263238" stroke-linecap="round" stroke-linejoin="round"/>
<path d="M127.393 74.1804C127.132 75.0652 126.66 75.7015 126.345 75.6045C126.029 75.5076 125.987 74.7198 126.254 73.8411C126.52 72.9624 126.981 72.3261 127.296 72.417C127.611 72.5079 127.654 73.326 127.393 74.1804Z" fill="#263238"/>
<path d="M129.854 71.0959C129.854 71.0959 129.284 69.4476 127.745 69.7324C127.745 69.7324 126.339 69.9809 126.133 70.393" stroke="#263238" stroke-linecap="round" stroke-linejoin="round"/>
<path d="M125.817 81.8888C125.817 81.8888 122.92 81.9918 122.405 79.6102" stroke="#263238" stroke-linecap="round" stroke-linejoin="round"/>
<path d="M110.861 69.6536C110.861 69.6536 112.073 70.8656 117.775 69.193C123.478 67.5205 127.471 63.8178 129.289 63.8178C131.107 63.8178 132.059 64.8904 133.592 63.3572C135.125 61.8241 131.901 58.4365 127.598 53.6612C123.296 48.886 115.478 49.3586 111.77 51.3584C108.061 53.3582 101.322 59.5031 101.322 64.7268C101.322 69.9505 101.783 76.4044 105.013 77.6346C108.243 78.8648 110.237 74.8652 110.388 73.9441C110.54 73.0229 109.479 71.0353 110.861 69.6536Z" fill="#263238" stroke="#263238" stroke-linecap="round" stroke-linejoin="round"/>
<path d="M112.861 71.3444C112.861 71.3444 112.091 66.8903 109.019 68.1205C105.946 69.3507 107.328 74.8774 108.249 76.4166C109.17 77.9559 111.631 76.8772 111.631 76.8772" fill="white"/>
<path d="M112.861 71.3444C112.861 71.3444 112.091 66.8903 109.019 68.1205C105.946 69.3507 107.328 74.8774 108.249 76.4166C109.17 77.9559 111.631 76.8772 111.631 76.8772" stroke="#263238" stroke-linecap="round" stroke-linejoin="round"/>
<path d="M107.698 54.443C107.698 54.443 109.686 52.2675 109.146 50.904C108.607 49.5405 106.662 49.9708 105.104 51.8372C103.547 53.7037 103.862 58.2548 103.862 58.2548L107.698 54.443Z" fill="white" stroke="#263238" stroke-linecap="round" stroke-linejoin="round"/>
<path d="M115.358 88.3063L104.589 79.1981L102.723 83.3371L112.152 93.3846L115.358 88.3063Z" fill="#00C29C" stroke="#263238" stroke-linecap="round" stroke-linejoin="round"/>
<path d="M106.97 83.1311C106.97 83.1311 102.516 80.0223 99.9285 80.2344C97.3409 80.4465 95.2684 83.8704 94.2321 86.961C93.4192 89.1897 92.405 91.3398 91.2021 93.3846C91.2021 93.3846 96.5895 92.7786 99.4922 91.8332C102.395 90.8879 103.128 88.6214 103.734 86.9852C104.34 85.349 106.97 83.1311 106.97 83.1311Z" fill="#00C29C" stroke="#263238" stroke-linecap="round" stroke-linejoin="round"/>
<path d="M106.971 83.1311C106.971 83.1311 103.141 87.7912 103.038 91.2091C102.935 94.6269 104.899 100.529 104.899 100.529C104.899 100.529 109.662 97.8387 110.183 92.5544C110.704 87.2701 106.971 83.1311 106.971 83.1311Z" fill="#00C29C" stroke="#263238" stroke-linecap="round" stroke-linejoin="round"/>
<path d="M150.803 127.866L141.561 131.502L135.744 132.108L135.435 136.768L144.446 137.077C146.205 137.192 147.971 137.157 149.724 136.974C151.503 136.727 153.267 136.381 155.008 135.938L154.596 127.757L150.803 127.866Z" fill="white" stroke="#263238" stroke-linecap="round" stroke-linejoin="round"/>
<path d="M115.673 123.727L118.775 129.629L136.489 131.496L136.283 137.817L109.976 135.326L109.043 125.284L115.673 123.727Z" fill="white" stroke="#263238" stroke-linecap="round" stroke-linejoin="round"/>
<path d="M154.403 140.404L161.717 141.392L166.935 138.538C164.301 137.404 161.56 136.537 158.754 135.95C153.366 134.708 147.67 136.053 147.67 136.053L154.403 140.404Z" fill="white" stroke="#263238" stroke-linecap="round" stroke-linejoin="round"/>
<path d="M134.726 136.35L141.046 137.386C142.23 136.948 143.445 136.601 144.682 136.35C145.718 136.247 147.373 136.144 148.512 136.768C149.651 137.392 154.833 138.835 154.73 139.356C154.653 139.709 154.547 140.056 154.414 140.392L159.178 140.998C159.178 140.998 158.456 141.604 155.869 142.555C153.281 143.507 151.827 143.695 150.791 144.107C149.754 144.519 143.955 142.452 142.404 142.034C140.852 141.616 135.053 141.622 134.635 141.622C134.216 141.622 134.726 136.35 134.726 136.35Z" fill="white" stroke="#263238" stroke-linecap="round" stroke-linejoin="round"/>
<path d="M145.81 139.162L149.124 139.986C149.536 140.095 152.439 140.816 154.403 140.404" stroke="#263238" stroke-linecap="round" stroke-linejoin="round"/>
<path d="M111.837 127.975C111.837 127.975 104.898 104.777 103.553 100.632C102.207 96.4874 98.8926 94.73 94.9596 95.4572C91.0267 96.1844 88.124 101.154 91.0206 109.129C93.9173 117.103 100.341 136.78 100.862 137.817C101.383 138.853 104.074 139.677 104.074 139.677C104.074 139.677 134.519 143.513 135.35 143.404C136.18 143.295 136.901 136.35 136.901 136.35L111.837 127.975Z" fill="white" stroke="#263238" stroke-linecap="round" stroke-linejoin="round"/>
<path d="M149.948 123.151H161.801V135.526C161.801 135.941 161.636 136.338 161.343 136.631C161.05 136.925 160.652 137.089 160.238 137.089H151.499C151.084 137.089 150.687 136.925 150.393 136.631C150.1 136.338 149.936 135.941 149.936 135.526V123.151H149.948Z" fill="white" stroke="#263238" stroke-linecap="round" stroke-linejoin="round"/>
<path d="M151.033 125.387H160.729V133.181C160.729 133.462 160.617 133.732 160.419 133.93C160.22 134.129 159.95 134.241 159.669 134.241H152.106C151.825 134.241 151.555 134.129 151.356 133.93C151.157 133.732 151.045 133.462 151.045 133.181V125.387H151.033Z" fill="#00C29C" stroke="#263238" stroke-linecap="round" stroke-linejoin="round"/>
<path d="M147.361 130.563C148.531 131.086 149.806 131.334 151.088 131.29C153.475 131.29 155.936 130.769 155.645 131.805C155.354 132.841 154.093 133.569 152.227 133.569C150.632 133.598 149.04 133.735 147.464 133.981C146.858 134.084 145.912 135.017 143.634 134.399" fill="white"/>
<path d="M147.361 130.563C148.531 131.086 149.806 131.334 151.088 131.29C153.475 131.29 155.936 130.769 155.645 131.805C155.354 132.841 154.093 133.569 152.227 133.569C150.632 133.598 149.04 133.735 147.464 133.981C146.858 134.084 145.912 135.017 143.634 134.399" stroke="#263238" stroke-linecap="round" stroke-linejoin="round"/>
<path d="M272.64 271.149H19.7197" stroke="#263238" stroke-linecap="round" stroke-linejoin="round"/>
</svg>
