<svg width="296" height="326" viewBox="0 0 296 326" fill="none" xmlns="http://www.w3.org/2000/svg">
<g clip-path="url(#clip0_1_26)">
<path d="M276.381 170.911C267.661 194.253 249.853 219.52 224.794 227.003C186.906 238.31 182.407 268.828 114.587 265.998C104.681 265.633 94.8429 264.192 85.2478 261.7C80.5639 260.462 75.9628 258.93 71.472 257.112C31.8494 241.063 11.1827 205.744 9.47181 168.791C7.21037 120.182 41.1201 97.0173 63.1603 83.4546C85.2005 69.8918 111.763 17.3518 178.452 19.5837C188.636 19.8892 198.751 21.3671 208.597 23.9881C231.04 30.0621 253.849 43.4946 267.11 63.1312C268.105 64.6112 269.056 66.1188 269.964 67.6541C287.712 97.7573 288.262 139.085 276.381 170.911Z" fill="#00C29C"/>
<path opacity="0.7" d="M276.381 170.911C267.661 194.253 249.853 219.52 224.794 227.003C186.906 238.31 182.407 268.828 114.587 265.998C104.681 265.633 94.8429 264.192 85.2478 261.7C80.5639 260.462 75.9628 258.93 71.472 257.112C31.8494 241.063 11.1827 205.744 9.47181 168.791C7.21037 120.182 41.1201 97.0173 63.1603 83.4546C85.2005 69.8918 111.763 17.3518 178.452 19.5837C188.636 19.8892 198.751 21.3671 208.597 23.9881C231.04 30.0621 253.849 43.4946 267.11 63.1312C268.105 64.6112 269.056 66.1188 269.964 67.6541C287.712 97.7573 288.262 139.085 276.381 170.911Z" fill="white"/>
<path d="M70.768 125.699L64.5283 119.176" stroke="#263238" stroke-width="0.592" stroke-linecap="round" stroke-linejoin="round"/>
<path d="M102.41 158.781L72.8457 127.872" stroke="#263238" stroke-width="0.592" stroke-linecap="round" stroke-linejoin="round"/>
<path d="M153.891 212.599L103.926 160.367" stroke="#263238" stroke-width="0.592" stroke-linecap="round" stroke-linejoin="round"/>
<path d="M107.063 106.726L94.1279 76.552" stroke="#263238" stroke-width="0.592" stroke-linecap="round" stroke-linejoin="round"/>
<path d="M153.891 215.968L108.496 110.071" stroke="#263238" stroke-width="0.592" stroke-linecap="round" stroke-linejoin="round"/>
<path d="M231.792 131.809L236.492 126.896" stroke="#263238" stroke-width="0.592" stroke-linecap="round" stroke-linejoin="round"/>
<path d="M154.513 212.599L228.596 135.148" stroke="#263238" stroke-width="0.592" stroke-linecap="round" stroke-linejoin="round"/>
<path d="M194.585 122.479L214.275 76.552" stroke="#263238" stroke-width="0.592" stroke-linecap="round" stroke-linejoin="round"/>
<path d="M154.513 215.968L192.833 126.57" stroke="#263238" stroke-width="0.592" stroke-linecap="round" stroke-linejoin="round"/>
<path d="M153.891 215.968V53.4639" stroke="#263238" stroke-width="0.592" stroke-linecap="round" stroke-linejoin="round"/>
<path d="M29.8428 153.187L24.0234 159.006" stroke="#263238" stroke-width="0.592" stroke-linecap="round" stroke-linejoin="round"/>
<path d="M29.8428 159.006L24.0234 153.187" stroke="#263238" stroke-width="0.592" stroke-linecap="round" stroke-linejoin="round"/>
<path d="M74.1953 240.536L68.376 246.355" stroke="#263238" stroke-width="0.592" stroke-linecap="round" stroke-linejoin="round"/>
<path d="M74.1953 246.355L68.376 240.536" stroke="#263238" stroke-width="0.592" stroke-linecap="round" stroke-linejoin="round"/>
<path d="M269.159 171.473L263.346 177.287" stroke="#263238" stroke-width="0.592" stroke-linecap="round" stroke-linejoin="round"/>
<path d="M269.159 177.287L263.346 171.473" stroke="#263238" stroke-width="0.592" stroke-linecap="round" stroke-linejoin="round"/>
<path d="M227.719 256.721L221.905 262.535" stroke="#263238" stroke-width="0.592" stroke-linecap="round" stroke-linejoin="round"/>
<path d="M227.719 262.535L221.905 256.721" stroke="#263238" stroke-width="0.592" stroke-linecap="round" stroke-linejoin="round"/>
<path d="M191.015 91.7483L185.201 97.5677" stroke="#263238" stroke-width="0.592" stroke-linecap="round" stroke-linejoin="round"/>
<path d="M191.015 97.5677L185.201 91.7483" stroke="#263238" stroke-width="0.592" stroke-linecap="round" stroke-linejoin="round"/>
<path d="M54.624 49.385L48.8105 55.2044" stroke="#263238" stroke-width="0.592" stroke-linecap="round" stroke-linejoin="round"/>
<path d="M54.624 55.2044L48.8105 49.385" stroke="#263238" stroke-width="0.592" stroke-linecap="round" stroke-linejoin="round"/>
<path d="M269.159 48.7278L263.346 54.5471" stroke="#263238" stroke-width="0.592" stroke-linecap="round" stroke-linejoin="round"/>
<path d="M269.159 54.5471L263.346 48.7278" stroke="#263238" stroke-width="0.592" stroke-linecap="round" stroke-linejoin="round"/>
<path d="M57.4239 129.24C57.425 128.965 57.3446 128.697 57.1929 128.468C57.0411 128.239 56.8248 128.061 56.5714 127.955C56.3181 127.85 56.0391 127.822 55.7698 127.875C55.5005 127.928 55.2532 128.06 55.0591 128.254C54.865 128.448 54.7329 128.696 54.6797 128.965C54.6264 129.234 54.6543 129.513 54.7599 129.767C54.8655 130.02 55.044 130.236 55.2727 130.388C55.5014 130.54 55.77 130.62 56.0445 130.619C56.2256 130.619 56.405 130.583 56.5724 130.514C56.7397 130.445 56.8918 130.343 57.0199 130.215C57.1479 130.087 57.2495 129.935 57.3189 129.768C57.3882 129.6 57.4239 129.421 57.4239 129.24Z" stroke="#263238" stroke-width="0.592" stroke-linecap="round" stroke-linejoin="round"/>
<path d="M241.14 251.589C241.14 251.316 241.059 251.049 240.907 250.823C240.756 250.596 240.54 250.419 240.288 250.314C240.036 250.21 239.759 250.183 239.491 250.236C239.224 250.289 238.978 250.421 238.785 250.613C238.592 250.806 238.461 251.052 238.407 251.32C238.354 251.587 238.381 251.865 238.486 252.117C238.59 252.369 238.767 252.584 238.994 252.736C239.221 252.887 239.487 252.968 239.76 252.968C240.126 252.968 240.477 252.823 240.736 252.564C240.994 252.306 241.14 251.955 241.14 251.589Z" stroke="#263238" stroke-width="0.592" stroke-linecap="round" stroke-linejoin="round"/>
<path d="M239.76 156.667C239.76 156.393 239.678 156.125 239.526 155.897C239.373 155.669 239.157 155.492 238.903 155.387C238.65 155.282 238.371 155.255 238.102 155.309C237.833 155.363 237.586 155.496 237.393 155.69C237.199 155.884 237.068 156.132 237.015 156.401C236.962 156.67 236.991 156.949 237.096 157.202C237.202 157.455 237.381 157.671 237.609 157.822C237.838 157.974 238.106 158.054 238.38 158.053C238.562 158.053 238.742 158.017 238.91 157.947C239.077 157.878 239.23 157.775 239.358 157.647C239.486 157.518 239.588 157.365 239.657 157.197C239.726 157.029 239.761 156.849 239.76 156.667Z" stroke="#263238" stroke-width="0.592" stroke-linecap="round" stroke-linejoin="round"/>
<path d="M221.408 101.221C221.409 100.946 221.329 100.678 221.177 100.449C221.025 100.22 220.809 100.042 220.556 99.9362C220.302 99.8306 220.023 99.8027 219.754 99.8559C219.485 99.9092 219.238 100.041 219.043 100.235C218.849 100.429 218.717 100.677 218.664 100.946C218.611 101.215 218.639 101.494 218.744 101.748C218.85 102.001 219.028 102.217 219.257 102.369C219.486 102.521 219.754 102.601 220.029 102.6C220.21 102.6 220.389 102.564 220.557 102.495C220.724 102.426 220.876 102.324 221.004 102.196C221.132 102.068 221.234 101.916 221.303 101.749C221.373 101.581 221.408 101.402 221.408 101.221Z" stroke="#263238" stroke-width="0.592" stroke-linecap="round" stroke-linejoin="round"/>
<path d="M128.269 52.6766C128.27 52.4024 128.19 52.134 128.038 51.9054C127.887 51.6768 127.671 51.4983 127.418 51.3926C127.165 51.2868 126.886 51.2585 126.617 51.3113C126.348 51.3641 126.1 51.4955 125.906 51.689C125.712 51.8825 125.579 52.1294 125.525 52.3982C125.471 52.6671 125.498 52.946 125.603 53.1994C125.708 53.4529 125.885 53.6696 126.113 53.8221C126.341 53.9746 126.609 54.056 126.883 54.056C127.25 54.056 127.601 53.9108 127.861 53.6523C128.12 53.3938 128.267 53.043 128.269 52.6766Z" stroke="#263238" stroke-width="0.592" stroke-linecap="round" stroke-linejoin="round"/>
<path d="M202.073 28.1439C202.074 27.8697 201.994 27.6012 201.843 27.3727C201.691 27.1441 201.475 26.9656 201.222 26.8598C200.969 26.7541 200.691 26.7258 200.421 26.7786C200.152 26.8314 199.905 26.9628 199.711 27.1563C199.516 27.3498 199.384 27.5967 199.33 27.8655C199.276 28.1344 199.303 28.4132 199.408 28.6667C199.512 28.9202 199.69 29.1369 199.918 29.2894C200.146 29.4418 200.414 29.5232 200.688 29.5232C201.054 29.5233 201.406 29.3781 201.665 29.1196C201.925 28.8611 202.072 28.5103 202.073 28.1439Z" stroke="#263238" stroke-width="0.592" stroke-linecap="round" stroke-linejoin="round"/>
<path d="M25.2608 229.88C25.262 229.606 25.1817 229.337 25.0302 229.109C24.8787 228.88 24.6628 228.702 24.4097 228.596C24.1567 228.49 23.878 228.462 23.6089 228.515C23.3398 228.567 23.0924 228.699 22.8981 228.892C22.7037 229.086 22.5712 229.333 22.5173 229.602C22.4634 229.87 22.4904 230.149 22.5951 230.403C22.6998 230.656 22.8773 230.873 23.1053 231.025C23.3332 231.178 23.6013 231.259 23.8755 231.259C24.0571 231.26 24.2371 231.225 24.4052 231.156C24.5732 231.087 24.726 230.986 24.8547 230.857C24.9834 230.729 25.0855 230.577 25.1552 230.409C25.2249 230.241 25.2608 230.062 25.2608 229.88Z" stroke="#263238" stroke-width="0.592" stroke-linecap="round" stroke-linejoin="round"/>
<path d="M257.52 99.2847C255.638 97.6633 254.381 95.4353 253.968 92.9858C254.029 96.7359 252.895 100.408 250.729 103.47L254.56 106.744C257.203 104.066 260.631 102.302 264.345 101.706C261.857 101.721 259.443 100.864 257.52 99.2847Z" fill="white" stroke="#263238" stroke-width="0.592" stroke-linecap="round" stroke-linejoin="round"/>
<path d="M279.809 72.6269C274.304 68.0152 264.844 70.2589 258.681 77.6115C252.518 84.9642 251.985 94.6789 257.497 99.2846C263.009 103.89 272.463 101.653 278.625 94.3C284.788 86.9474 285.345 77.2386 279.809 72.6269ZM259.089 97.4139C254.353 93.4534 254.815 85.1122 260.114 78.7837C265.412 72.4552 273.505 70.5371 278.241 74.4976C282.977 78.4581 282.515 86.8053 277.217 93.1338C271.918 99.4622 263.79 101.38 259.06 97.4139H259.089Z" fill="white" stroke="#263238" stroke-width="0.592" stroke-linecap="round" stroke-linejoin="round"/>
<path d="M255.386 102.832L254.388 101.996C253.487 101.243 252.147 101.361 251.394 102.262L238.182 118.046C237.429 118.946 237.547 120.286 238.448 121.04L239.446 121.876C240.346 122.629 241.687 122.51 242.44 121.61L255.652 105.826C256.405 104.926 256.286 103.585 255.386 102.832Z" fill="#00C29C" stroke="#263238" stroke-width="0.592" stroke-linecap="round" stroke-linejoin="round"/>
<path d="M269.497 73.6215L267.721 73.2841C267.372 73.4084 267.022 73.5505 266.673 73.7044L266.928 73.7577L266.572 75.6106L264.719 75.2554L264.826 74.6634C264.589 74.8055 264.352 74.9594 264.116 75.1193C263.885 75.2791 263.648 75.4389 263.423 75.6106L264.015 75.7231L263.66 77.5761L261.807 77.2209L261.866 76.913C261.594 77.1676 261.321 77.4281 261.055 77.7004H261.073L260.717 79.5533L259.61 79.3461C259.468 79.5237 259.332 79.7073 259.202 79.8908L260.599 80.1572L260.244 82.0101L258.391 81.6549L258.539 80.8676C258.196 81.4122 257.882 81.9628 257.598 82.5193L257.313 83.9993L256.964 83.9282C256.887 84.1236 256.81 84.3189 256.739 84.5202L257.201 84.609L256.846 86.462L256.195 86.3377C256.147 86.5389 256.106 86.7343 256.07 86.9297L256.727 87.0599L256.372 88.9129L255.822 88.8063C255.822 89.0135 255.822 89.2207 255.792 89.3983L256.26 89.4871L255.904 91.3401C255.976 91.8686 256.087 92.391 256.236 92.9029L256.396 92.0564L258.249 92.4116L257.894 94.2645L256.627 94.0218C256.727 94.2586 256.828 94.4836 256.946 94.7085L257.781 94.8684L257.604 95.7801C257.763 95.9991 257.929 96.2122 258.107 96.4135L258.379 94.9868L260.238 95.342L259.889 97.2719L258.616 97.0292C258.764 97.1713 258.912 97.3074 259.072 97.4377C259.232 97.5679 259.415 97.71 259.593 97.8402L259.77 97.8757V97.9468C259.954 98.0711 260.143 98.1895 260.333 98.2961L260.392 97.9882L262.245 98.3434L262.079 99.0479C262.274 99.1071 262.47 99.1604 262.671 99.2077L262.849 98.4559L264.702 98.8111L264.571 99.4801C264.779 99.4801 264.986 99.4801 265.193 99.4801L265.305 98.8881L267.158 99.2433C267.68 99.1559 268.196 99.0373 268.704 98.8881L267.881 98.7282L268.236 96.8753L270.089 97.2305L269.846 98.5033C270.077 98.4145 270.302 98.3197 270.527 98.2191L270.693 97.3489L271.877 97.5679C272.143 97.4199 272.415 97.2601 272.682 97.1002L270.835 96.745L271.19 94.8921L273.043 95.2473L272.688 97.0943C272.93 96.9463 273.167 96.7924 273.404 96.6266L273.647 95.3597L274.783 95.5788L275.375 95.0697L273.765 94.7559L274.12 92.9029L275.979 93.2581L275.683 94.7855C275.944 94.5369 276.204 94.2764 276.459 94.01L276.577 93.3765L276.968 93.4476L277.288 93.0865C277.335 93.0273 277.376 92.9681 277.424 92.9148L276.696 92.7727L277.051 90.9197L278.667 91.2276L279.022 90.6711L277.163 90.3159L277.518 88.4629L279.377 88.8181L279.022 90.6711C279.47 89.928 279.866 89.1545 280.206 88.3564H280.082L280.437 86.5034L280.875 86.5863C280.934 86.385 280.993 86.1897 281.041 85.9943L280.555 85.8996L280.911 84.0466L281.426 84.1413C281.426 83.9401 281.479 83.7329 281.503 83.5493L281.023 83.4605L281.378 81.6076H281.556C281.556 81.3945 281.556 81.1873 281.514 80.9741V80.909C281.457 80.3339 281.356 79.764 281.212 79.2041L280.899 80.8557L279.046 80.5005L279.401 78.6476L281.177 78.985C281.112 78.7601 281.041 78.5351 280.964 78.3161L279.537 78.0437L279.892 76.1908C279.711 75.9337 279.513 75.6885 279.3 75.4567L277.524 75.1193L277.732 74.03C277.554 73.9057 277.364 73.7873 277.175 73.6748L276.92 75.0009L275.068 74.6457L275.405 72.8697C275.21 72.8045 275.014 72.7453 274.813 72.698L274.464 74.5213L272.611 74.1661L272.948 72.3901C272.739 72.3901 272.532 72.3901 272.327 72.3901L272.007 74.0477L270.154 73.6925L270.373 72.55L269.728 72.6684L269.497 73.6215ZM264.625 75.8533L266.478 76.2145L266.122 78.0674L264.269 77.7122L264.625 75.8533ZM267.744 86.0239L268.1 84.1709L269.953 84.5261L269.597 86.3791L267.744 86.0239ZM269.485 86.9829L269.13 88.8359L267.277 88.4807L267.632 86.6277L269.485 86.9829ZM267.117 85.9055L265.264 85.5503L265.619 83.6973L267.472 84.0525L267.117 85.9055ZM268.194 83.5375L268.55 81.6845L270.403 82.0397L270.047 83.8927L268.194 83.5375ZM267.602 83.4191L265.749 83.0639L266.105 81.2109L267.958 81.5661L267.602 83.4191ZM264.684 85.4319L262.849 85.0767L263.204 83.2237L265.057 83.5789L264.684 85.4319ZM264.571 86.0239L264.216 87.8828L262.363 87.5217L262.718 85.6687L264.571 86.0239ZM265.163 86.1423L267.016 86.4975L266.661 88.3505L264.808 87.9953L265.163 86.1423ZM266.543 88.9543L266.188 90.8073L264.335 90.4521L264.69 88.5991L266.543 88.9543ZM267.135 89.0727L268.988 89.4279L268.632 91.2809L266.78 90.9257L267.135 89.0727ZM268.52 91.8847L268.165 93.7377L266.306 93.3825L266.661 91.5236L268.52 91.8847ZM269.592 89.5167L271.444 89.8719L271.089 91.7249L269.236 91.3697L269.592 89.5167ZM269.704 88.9247L270.065 87.0717L271.918 87.4269L271.563 89.2799L269.704 88.9247ZM272.99 85.0885L274.843 85.4437L274.487 87.2967L272.634 86.9415L272.99 85.0885ZM272.031 86.8231L270.178 86.4679L270.533 84.6149L272.386 84.9701L272.031 86.8231ZM270.651 84.0111L271.006 82.1581L272.859 82.5133L272.504 84.3663L270.651 84.0111ZM271.119 81.5543L271.474 79.7013L273.333 80.0565L272.972 81.9095L271.119 81.5543ZM270.527 81.4418L268.674 81.0866L269.029 79.2337L270.888 79.5889L270.527 81.4418ZM268.076 80.9682L266.217 80.613L266.572 78.7601L268.431 79.1153L268.076 80.9682ZM265.619 80.5005L263.76 80.1453L264.116 78.2865L265.974 78.6476L265.619 80.5005ZM265.501 81.0925L265.146 82.9514L263.293 82.5962L263.648 80.7373L265.501 81.0925ZM262.257 84.9642L260.404 84.609L260.759 82.7561L262.612 83.1113L262.257 84.9642ZM262.144 85.5562L261.789 87.4092L259.936 87.054L260.291 85.201L262.144 85.5562ZM261.671 88.013L261.315 89.866L259.462 89.5108L259.818 87.6578L261.671 88.013ZM262.263 88.1255L264.116 88.4807L263.76 90.3337L261.907 89.9785L262.263 88.1255ZM263.648 90.9375L263.293 92.7905L261.434 92.4353L261.795 90.5823L263.648 90.9375ZM264.24 91.0559L266.099 91.4111L265.744 93.2641L263.885 92.9089L264.24 91.0559ZM265.625 93.8679L265.27 95.7209L263.417 95.3657L263.772 93.5127L265.625 93.8679ZM266.217 93.9804L268.07 94.3415L267.715 96.1945L265.862 95.8393L266.217 93.9804ZM269.142 91.9972L271 92.3524L270.645 94.2053L268.786 93.8501L269.142 91.9972ZM272.072 90.014L273.925 90.3692L273.57 92.2221L271.717 91.8669L272.072 90.014ZM272.184 89.422L272.546 87.569L274.399 87.9242L274.043 89.7772L272.184 89.422ZM275.47 85.5799L277.323 85.9351L276.968 87.7881L275.115 87.4329L275.47 85.5799ZM275.588 84.9879L275.944 83.1349L277.797 83.4901L277.441 85.349L275.588 84.9879ZM274.996 84.8754L273.144 84.5202L273.499 82.6673L275.352 83.0225L274.996 84.8754ZM273.611 82.0634L273.966 80.2105L275.825 80.5657L275.464 82.4186L273.611 82.0634ZM274.085 79.6066L274.44 77.7537L276.293 78.1089L275.938 79.9618L274.085 79.6066ZM273.493 79.4882L271.64 79.133L271.995 77.2801L273.848 77.6353L273.493 79.4882ZM271.036 79.0205L269.183 78.6653L269.538 76.8124L271.391 77.1676L271.036 79.0205ZM268.579 78.5469L266.726 78.1917L267.081 76.3388L268.934 76.694L268.579 78.5469ZM261.665 77.8425L263.518 78.1977L263.162 80.0506L261.304 79.6954L261.665 77.8425ZM261.191 80.2993L263.044 80.6545L262.689 82.5074L260.836 82.1522L261.191 80.2993ZM258.231 82.2825L260.09 82.6377L259.729 84.4906L257.876 84.1354L258.231 82.2825ZM257.763 84.7393L259.616 85.0945L259.261 86.9474L257.408 86.5922L257.763 84.7393ZM257.29 87.1961L259.143 87.5513L258.788 89.4042L256.935 89.049L257.29 87.1961ZM256.461 91.5058L256.822 89.6529L258.675 90.0081L258.32 91.861L256.461 91.5058ZM259.279 90.1265L261.132 90.4817L260.777 92.3346L258.918 91.9794L259.279 90.1265ZM258.45 94.4362L258.805 92.5833L260.658 92.9385L260.303 94.7914L258.45 94.4362ZM261.262 93.0509L263.115 93.4061L262.76 95.2591L260.907 94.9039L261.262 93.0509ZM260.433 97.3607L260.788 95.5077L262.647 95.8629L262.286 97.7159L260.433 97.3607ZM262.89 97.8343L263.245 95.9813L265.098 96.3365L264.743 98.1895L262.89 97.8343ZM267.2 98.6631L265.347 98.302L265.702 96.449L267.555 96.8042L267.2 98.6631ZM270.13 96.674L268.277 96.3188L268.632 94.4658L270.485 94.821L270.13 96.674ZM273.061 94.6908L271.202 94.3356L271.557 92.4826L273.416 92.8378L273.061 94.6908ZM275.985 92.7017L274.132 92.3465L274.487 90.4935L276.34 90.8487L275.985 92.7017ZM276.459 90.2449L274.6 89.8897L274.961 88.0367L276.814 88.3919L276.459 90.2449ZM279.383 88.2617L277.53 87.9065L277.885 86.0535L279.738 86.4087L279.383 88.2617ZM279.857 85.8049L278.004 85.4497L278.359 83.5967L280.212 83.9519L279.857 85.8049ZM280.68 81.4951L280.324 83.3481L278.472 82.9929L278.827 81.1399L280.68 81.4951ZM277.868 82.8804L276.015 82.5193L276.37 80.6663L278.223 81.0215L277.868 82.8804ZM278.341 80.4236L276.488 80.0684L276.844 78.2095L278.696 78.5647L278.341 80.4236ZM279.17 76.1138L278.815 77.9668L276.956 77.6116L277.311 75.7527L279.17 76.1138ZM276.713 75.6402L276.358 77.4932L274.499 77.138L274.854 75.285L276.713 75.6402ZM274.256 75.1666L273.901 77.0196L272.042 76.6644L272.398 74.8114L274.256 75.1666ZM271.8 74.6989L271.444 76.5519L269.592 76.1967L269.947 74.3437L271.8 74.6989ZM268.988 76.0783L267.135 75.7231L267.49 73.8701L269.343 74.2253L268.988 76.0783Z" fill="#263238"/>
<path d="M267.845 113.167C267.843 114.344 267.439 115.485 266.701 116.402C265.963 117.318 264.934 117.956 263.785 118.209C262.635 118.462 261.434 118.316 260.379 117.795C259.324 117.273 258.478 116.408 257.981 115.341C257.484 114.274 257.366 113.07 257.645 111.926C257.925 110.783 258.586 109.769 259.52 109.053C260.453 108.336 261.603 107.959 262.78 107.983C263.957 108.008 265.09 108.433 265.992 109.189C266.574 109.676 267.041 110.284 267.361 110.972C267.682 111.659 267.847 112.409 267.845 113.167Z" fill="white" stroke="#263238" stroke-width="0.592" stroke-linecap="round" stroke-linejoin="round"/>
<path d="M261.184 113.167C261.184 113.923 261.019 114.67 260.7 115.355C260.38 116.04 259.916 116.647 259.337 117.134C258.755 116.648 258.287 116.041 257.966 115.354C257.645 114.668 257.479 113.919 257.479 113.161C257.479 112.403 257.645 111.655 257.966 110.968C258.287 110.282 258.755 109.675 259.337 109.189C259.916 109.678 260.38 110.287 260.699 110.974C261.018 111.661 261.184 112.41 261.184 113.167Z" fill="white" stroke="#263238" stroke-width="0.592" stroke-linecap="round" stroke-linejoin="round"/>
<path d="M267.845 113.167C267.845 113.924 267.679 114.671 267.358 115.356C267.038 116.041 266.572 116.648 265.992 117.134C265.412 116.647 264.945 116.039 264.625 115.353C264.305 114.666 264.14 113.918 264.14 113.161C264.14 112.404 264.305 111.656 264.625 110.97C264.945 110.284 265.412 109.676 265.992 109.189C266.572 109.677 267.039 110.286 267.359 110.973C267.679 111.66 267.845 112.409 267.845 113.167Z" fill="white" stroke="#263238" stroke-width="0.592" stroke-linecap="round" stroke-linejoin="round"/>
<path d="M225.546 54.3874L245.04 42.8789" stroke="#263238" stroke-width="0.592" stroke-linecap="round" stroke-linejoin="round"/>
<path d="M238.126 44.7203C237.315 43.908 236.353 43.2635 235.294 42.8238C234.234 42.3841 233.098 42.1577 231.951 42.1577C230.804 42.1577 229.668 42.3841 228.608 42.8238C227.549 43.2635 226.586 43.908 225.776 44.7203L224.658 45.8332L223.545 44.7203C222.734 43.909 221.771 43.2654 220.711 42.8263C219.652 42.3871 218.516 42.1609 217.369 42.1606C216.222 42.1603 215.086 42.386 214.027 42.8247C212.967 43.2633 212.004 43.9065 211.192 44.7173C210.381 45.5282 209.738 46.4909 209.298 47.5505C208.859 48.61 208.633 49.7457 208.633 50.8927C208.633 52.0397 208.858 53.1756 209.297 54.2354C209.736 55.2951 210.379 56.2582 211.19 57.0694L212.308 58.1883L224.658 70.5374L237.013 58.2001L238.126 57.0812C238.936 56.2704 239.58 55.3078 240.018 54.2483C240.457 53.1889 240.683 52.0534 240.683 50.9067C240.683 49.76 240.457 48.6245 240.018 47.565C239.58 46.5056 238.936 45.543 238.126 44.7321V44.7203Z" fill="#00C29C" stroke="#263238" stroke-width="0.592" stroke-linecap="round" stroke-linejoin="round"/>
<path d="M211.545 51.3564C211.466 52.4523 211.638 53.5518 212.048 54.571" stroke="#263238" stroke-width="0.592" stroke-linecap="round" stroke-linejoin="round"/>
<path d="M218.684 44.7203C217.744 44.7172 216.812 44.9008 215.944 45.2606C215.075 45.6203 214.286 46.149 213.623 46.8159C213.041 47.3973 212.562 48.0741 212.208 48.8169" stroke="#263238" stroke-width="0.592" stroke-linecap="round" stroke-linejoin="round"/>
<path d="M201.724 68.9506L221.224 57.448" stroke="#263238" stroke-width="0.592" stroke-linecap="round" stroke-linejoin="round"/>
<path d="M208.058 65.1088L204.98 62.7822L200.013 65.6949L203.95 67.5833L208.058 65.1088Z" fill="white" stroke="#263238" stroke-width="0.592" stroke-linecap="round" stroke-linejoin="round"/>
<path d="M208.058 65.1084L208.934 68.3999L204.749 71.9578L204.121 67.6362L208.058 65.1084Z" fill="white" stroke="#263238" stroke-width="0.592" stroke-linecap="round" stroke-linejoin="round"/>
<path d="M240.108 42.5594L245.762 42.2161L243.021 47.5322" stroke="#263238" stroke-width="0.592" stroke-linecap="round" stroke-linejoin="round"/>
<path d="M151.169 46.6673C159.773 44.722 165.171 36.1701 163.226 27.5661C161.281 18.9621 152.729 13.5641 144.125 15.5094C135.521 17.4548 130.123 26.0067 132.068 34.6107C134.014 43.2147 142.565 48.6126 151.169 46.6673Z" fill="white" stroke="#263238" stroke-width="0.592" stroke-linecap="round" stroke-linejoin="round"/>
<path d="M149.546 43.1381C156.206 42.0916 160.757 35.8442 159.71 29.1841C158.664 22.5241 152.416 17.9734 145.756 19.0199C139.096 20.0664 134.546 26.3138 135.592 32.9739C136.639 39.6339 142.886 44.1846 149.546 43.1381Z" fill="white" stroke="#263238" stroke-width="0.592" stroke-linecap="round" stroke-linejoin="round"/>
<path d="M146.739 24.1127V23.053H148.592V24.1127C150.155 24.456 150.96 25.64 150.96 27.5936V28.0435H148.84V27.4515C148.84 26.4333 148.438 26.0485 147.722 26.0485C147.005 26.0485 146.603 26.4333 146.603 27.4515C146.603 30.3819 150.978 30.524 150.978 34.597C150.978 36.5269 150.143 37.7701 148.556 38.0957V39.1317H146.727V38.072C145.117 37.7464 144.306 36.5032 144.306 34.5733V33.6202H146.419V34.7391C146.419 35.7573 146.869 36.1243 147.603 36.1243C148.337 36.1243 148.787 35.7573 148.787 34.7391C148.787 31.8087 144.412 31.6666 144.412 27.5936C144.377 25.6815 145.17 24.456 146.739 24.1127Z" fill="#00C29C" stroke="#263238" stroke-width="0.592" stroke-linecap="round" stroke-linejoin="round"/>
<path d="M181.987 43.7668H156.294V47.0643H181.987V43.7668Z" fill="white" stroke="#263238" stroke-width="0.592" stroke-linecap="round" stroke-linejoin="round"/>
<path d="M158.1 44.0334V46.6738" stroke="#263238" stroke-width="0.592" stroke-linecap="round" stroke-linejoin="round"/>
<path d="M160.857 44.0334V45.5963" stroke="#263238" stroke-width="0.592" stroke-linecap="round" stroke-linejoin="round"/>
<path d="M163.859 45.4778V46.9163" stroke="#263238" stroke-width="0.592" stroke-linecap="round" stroke-linejoin="round"/>
<path d="M176.102 43.7966V44.8741" stroke="#263238" stroke-width="0.592" stroke-linecap="round" stroke-linejoin="round"/>
<path d="M179.459 46.9163V45.9573" stroke="#263238" stroke-width="0.592" stroke-linecap="round" stroke-linejoin="round"/>
<path d="M181.987 40.4102H156.294V43.7076H181.987V40.4102Z" fill="white" stroke="#263238" stroke-width="0.592" stroke-linecap="round" stroke-linejoin="round"/>
<path d="M158.1 40.6768V43.3171" stroke="#263238" stroke-width="0.592" stroke-linecap="round" stroke-linejoin="round"/>
<path d="M160.857 40.6768V42.2337" stroke="#263238" stroke-width="0.592" stroke-linecap="round" stroke-linejoin="round"/>
<path d="M163.859 42.1152V43.5538" stroke="#263238" stroke-width="0.592" stroke-linecap="round" stroke-linejoin="round"/>
<path d="M176.102 40.4338V41.5172" stroke="#263238" stroke-width="0.592" stroke-linecap="round" stroke-linejoin="round"/>
<path d="M179.459 43.5538V42.5947" stroke="#263238" stroke-width="0.592" stroke-linecap="round" stroke-linejoin="round"/>
<path d="M181.987 37.0479H156.294V40.3453H181.987V37.0479Z" fill="white" stroke="#263238" stroke-width="0.592" stroke-linecap="round" stroke-linejoin="round"/>
<path d="M158.1 37.314V39.9543" stroke="#263238" stroke-width="0.592" stroke-linecap="round" stroke-linejoin="round"/>
<path d="M160.857 37.314V38.8768" stroke="#263238" stroke-width="0.592" stroke-linecap="round" stroke-linejoin="round"/>
<path d="M163.859 38.7527V40.1972" stroke="#263238" stroke-width="0.592" stroke-linecap="round" stroke-linejoin="round"/>
<path d="M176.102 37.0715V38.1549" stroke="#263238" stroke-width="0.592" stroke-linecap="round" stroke-linejoin="round"/>
<path d="M179.459 40.1971V39.2322" stroke="#263238" stroke-width="0.592" stroke-linecap="round" stroke-linejoin="round"/>
<path d="M181.987 33.6851H156.294V36.9825H181.987V33.6851Z" fill="white" stroke="#263238" stroke-width="0.592" stroke-linecap="round" stroke-linejoin="round"/>
<path d="M158.1 33.9517V36.592" stroke="#263238" stroke-width="0.592" stroke-linecap="round" stroke-linejoin="round"/>
<path d="M160.857 33.9517V35.5145" stroke="#263238" stroke-width="0.592" stroke-linecap="round" stroke-linejoin="round"/>
<path d="M163.859 35.396V36.8346" stroke="#263238" stroke-width="0.592" stroke-linecap="round" stroke-linejoin="round"/>
<path d="M176.102 33.7146V34.792" stroke="#263238" stroke-width="0.592" stroke-linecap="round" stroke-linejoin="round"/>
<path d="M179.459 36.8348V35.8757" stroke="#263238" stroke-width="0.592" stroke-linecap="round" stroke-linejoin="round"/>
<path d="M181.987 30.3286H156.294V33.6261H181.987V30.3286Z" fill="white" stroke="#263238" stroke-width="0.592" stroke-linecap="round" stroke-linejoin="round"/>
<path d="M158.1 30.5947V33.235" stroke="#263238" stroke-width="0.592" stroke-linecap="round" stroke-linejoin="round"/>
<path d="M160.857 30.5947V32.1517" stroke="#263238" stroke-width="0.592" stroke-linecap="round" stroke-linejoin="round"/>
<path d="M163.859 32.0334V33.472" stroke="#263238" stroke-width="0.592" stroke-linecap="round" stroke-linejoin="round"/>
<path d="M176.102 30.3523V31.4357" stroke="#263238" stroke-width="0.592" stroke-linecap="round" stroke-linejoin="round"/>
<path d="M179.459 33.472V32.5129" stroke="#263238" stroke-width="0.592" stroke-linecap="round" stroke-linejoin="round"/>
<path d="M181.987 26.9661H156.294V30.2635H181.987V26.9661Z" fill="white" stroke="#263238" stroke-width="0.592" stroke-linecap="round" stroke-linejoin="round"/>
<path d="M158.1 27.2324V29.8727" stroke="#263238" stroke-width="0.592" stroke-linecap="round" stroke-linejoin="round"/>
<path d="M160.857 27.2324V28.7953" stroke="#263238" stroke-width="0.592" stroke-linecap="round" stroke-linejoin="round"/>
<path d="M163.859 28.6707V30.1151" stroke="#263238" stroke-width="0.592" stroke-linecap="round" stroke-linejoin="round"/>
<path d="M176.102 26.9956V28.073" stroke="#263238" stroke-width="0.592" stroke-linecap="round" stroke-linejoin="round"/>
<path d="M179.459 30.1155V29.1565" stroke="#263238" stroke-width="0.592" stroke-linecap="round" stroke-linejoin="round"/>
<path d="M79.1678 68.3469H67.3278C66.4014 68.3469 65.513 67.9789 64.858 67.3239C64.2029 66.6689 63.835 65.7805 63.835 64.8541V42.4706C63.8376 41.1262 64.2507 39.8147 65.019 38.7114L69.5655 32.1106H76.9596L81.5062 38.7114C82.2744 39.8147 82.6875 41.1262 82.6902 42.4706V64.8541C82.6902 65.3153 82.5989 65.7719 82.4215 66.1976C82.2441 66.6233 81.9842 67.0097 81.6567 67.3344C81.3292 67.6591 80.9407 67.9158 80.5135 68.0896C80.0863 68.2634 79.6289 68.3508 79.1678 68.3469Z" fill="white" stroke="#263238" stroke-width="0.592" stroke-linecap="round" stroke-linejoin="round"/>
<path d="M76.7939 29.6182H69.7136C69.148 29.6182 68.6895 30.0767 68.6895 30.6423V31.3586C68.6895 31.9243 69.148 32.3828 69.7136 32.3828H76.7939C77.3596 32.3828 77.8181 31.9243 77.8181 31.3586V30.6423C77.8181 30.0767 77.3596 29.6182 76.7939 29.6182Z" fill="white" stroke="#263238" stroke-width="0.592" stroke-linecap="round" stroke-linejoin="round"/>
<path d="M76.5037 24.1716H70.418V29.4286H76.5037V24.1716Z" fill="#00C29C" stroke="#263238" stroke-width="0.592" stroke-linecap="round" stroke-linejoin="round"/>
<path d="M64.332 48.1536H72.0754" stroke="#263238" stroke-width="0.592" stroke-linecap="round" stroke-linejoin="round"/>
<path d="M73.7393 48.1536H77.6109" stroke="#263238" stroke-width="0.592" stroke-linecap="round" stroke-linejoin="round"/>
<path d="M64.332 60.053H72.0754" stroke="#263238" stroke-width="0.592" stroke-linecap="round" stroke-linejoin="round"/>
<path d="M73.7393 60.053H77.6109" stroke="#263238" stroke-width="0.592" stroke-linecap="round" stroke-linejoin="round"/>
<path d="M81.4823 53.9612H74.0586" stroke="#263238" stroke-width="0.592" stroke-linecap="round" stroke-linejoin="round"/>
<path d="M72.4726 53.9612H68.7607" stroke="#263238" stroke-width="0.592" stroke-linecap="round" stroke-linejoin="round"/>
<path d="M90.937 47.8635C90.937 47.8635 83.6198 43.9386 79.689 49.9533C76.0718 55.5003 79.8784 67.7725 87.2725 68.5125C88.7141 68.7069 90.1799 68.4308 91.452 67.7251C91.452 67.7251 94.0686 69.8149 98.5146 67.7251C102.96 65.6354 104.529 59.9759 104.529 54.9202C104.529 47.8635 95.9038 44.1991 90.937 47.8635Z" fill="#00C29C" stroke="#263238" stroke-width="0.592" stroke-linecap="round" stroke-linejoin="round"/>
<path d="M81.3525 56.4595C81.4019 57.3482 81.5448 58.2292 81.7788 59.088" stroke="#263238" stroke-width="0.592" stroke-linecap="round" stroke-linejoin="round"/>
<path d="M86.1301 49.2014C85.3641 49.3214 84.6335 49.6071 83.9893 50.0386C83.3451 50.4701 82.8029 51.037 82.4005 51.6997C81.9856 52.3604 81.6928 53.0903 81.5361 53.8545" stroke="#263238" stroke-width="0.592" stroke-linecap="round" stroke-linejoin="round"/>
<path d="M90.6762 48.6452C90.6762 48.6452 91.7241 47.5973 90.6762 44.9866C90.251 43.8113 89.7262 42.6745 89.1074 41.5885L90.8834 41.2393C90.8834 41.2393 94.0743 46.0285 90.6762 48.6452Z" fill="#263238" stroke="#263238" stroke-width="0.592" stroke-linecap="round" stroke-linejoin="round"/>
<path d="M91.9902 43.7254C91.9902 43.7254 93.0973 40.9607 95.3114 39.5814C97.5254 38.202 102.504 40.1378 102.504 40.1378C102.504 40.1378 98.9107 42.6242 97.2472 43.7313C95.5837 44.8383 91.9902 43.7254 91.9902 43.7254Z" fill="#263238" stroke="#263238" stroke-width="0.592" stroke-linecap="round" stroke-linejoin="round"/>
<path d="M99.7333 70.6793C102.627 70.6793 104.973 68.3337 104.973 65.4401C104.973 62.5466 102.627 60.2009 99.7333 60.2009C96.8398 60.2009 94.4941 62.5466 94.4941 65.4401C94.4941 68.3337 96.8398 70.6793 99.7333 70.6793Z" fill="white" stroke="#263238" stroke-width="0.592" stroke-linecap="round" stroke-linejoin="round"/>
<path d="M97.8867 63.2791L99.7338 66.0319L107.134 59.5791" stroke="#263238" stroke-width="1.776" stroke-linecap="round" stroke-linejoin="round"/>
<path d="M25.722 102.038H57.098V111.859H25.722C24.904 111.859 24.1195 111.534 23.5411 110.956C22.9626 110.377 22.6377 109.593 22.6377 108.775V105.116C22.6393 104.299 22.9649 103.516 23.5432 102.939C24.1214 102.362 24.905 102.038 25.722 102.038Z" fill="#00C29C" stroke="#263238" stroke-width="0.592" stroke-linecap="round" stroke-linejoin="round"/>
<path d="M43.7012 110.112C42.8623 110.112 42.0576 109.78 41.4638 109.187C40.87 108.594 40.5356 107.79 40.534 106.951C40.5356 106.112 40.8698 105.307 41.4634 104.713C42.057 104.12 42.8617 103.786 43.7012 103.784H62.5801V102.038H42.3929C41.3221 102.038 40.2952 102.463 39.538 103.22C38.7808 103.977 38.3555 105.004 38.3555 106.075V107.821C38.3555 108.892 38.7808 109.919 39.538 110.676C40.2952 111.434 41.3221 111.859 42.3929 111.859H62.5801V110.112H43.7012Z" fill="white" stroke="#263238" stroke-width="0.592" stroke-linecap="round" stroke-linejoin="round"/>
<path d="M42.9495 103.784H61.5679V110.112H42.9495C42.3089 110.112 41.6946 109.858 41.2416 109.405C40.7887 108.952 40.5342 108.338 40.5342 107.697V106.199C40.5342 105.559 40.7887 104.944 41.2416 104.491C41.6946 104.038 42.3089 103.784 42.9495 103.784Z" fill="white" stroke="#263238" stroke-width="0.592" stroke-linecap="round" stroke-linejoin="round"/>
<path d="M40.9717 105.749H46.649" stroke="#263238" stroke-width="0.592" stroke-linecap="round" stroke-linejoin="round"/>
<path d="M40.9717 107.496H52.3203" stroke="#263238" stroke-width="0.592" stroke-linecap="round" stroke-linejoin="round"/>
<path d="M24.2363 91.9438H55.6478V101.765H24.2718C23.4538 101.765 22.6693 101.44 22.0909 100.862C21.5125 100.283 21.1875 99.4988 21.1875 98.6808V95.0222C21.189 94.2114 21.5098 93.4337 22.0804 92.8576C22.651 92.2814 23.4255 91.9532 24.2363 91.9438Z" fill="white" stroke="#263238" stroke-width="0.592" stroke-linecap="round" stroke-linejoin="round"/>
<path d="M42.2149 100.036C41.3795 100.029 40.5809 99.6918 39.9924 99.0988C39.4038 98.5058 39.0729 97.7047 39.0714 96.8693C39.076 96.0365 39.4085 95.239 39.9969 94.6495C40.5852 94.0601 41.3821 93.7261 42.2149 93.7198H61.0938V91.9438H40.9066C39.8358 91.9438 38.8088 92.3692 38.0517 93.1264C37.2945 93.8836 36.8691 94.9105 36.8691 95.9813V97.7573C36.8691 98.8281 37.2945 99.855 38.0517 100.612C38.8088 101.369 39.8358 101.795 40.9066 101.795H61.0938V100.019L42.2149 100.036Z" fill="white" stroke="#263238" stroke-width="0.592" stroke-linecap="round" stroke-linejoin="round"/>
<path d="M41.4403 93.7197H60.0765V100.048H41.4403C40.8059 100.036 40.2019 99.7742 39.7588 99.32C39.3156 98.8658 39.0691 98.2555 39.0723 97.621V96.1232C39.0753 95.4928 39.3246 94.8886 39.767 94.4395C40.2095 93.9904 40.81 93.7321 41.4403 93.7197Z" fill="white" stroke="#263238" stroke-width="0.592" stroke-linecap="round" stroke-linejoin="round"/>
<path d="M39.4863 95.6675H45.1577" stroke="#263238" stroke-width="0.592" stroke-linecap="round" stroke-linejoin="round"/>
<path d="M39.4863 97.4141H50.835" stroke="#263238" stroke-width="0.592" stroke-linecap="round" stroke-linejoin="round"/>
<path d="M26.2074 81.8796H57.5834V91.7009H26.2074C25.8023 91.7009 25.4013 91.6211 25.027 91.4661C24.6528 91.3111 24.3128 91.0839 24.0264 90.7975C23.74 90.5111 23.5128 90.1711 23.3578 89.7969C23.2028 89.4227 23.123 89.0216 23.123 88.6166V84.958C23.1246 84.1411 23.4503 83.3581 24.0285 82.7809C24.6068 82.2038 25.3904 81.8796 26.2074 81.8796Z" fill="#00C29C" stroke="#263238" stroke-width="0.592" stroke-linecap="round" stroke-linejoin="round"/>
<path d="M44.1866 89.9545C43.3466 89.9545 42.541 89.6208 41.947 89.0269C41.3531 88.4329 41.0194 87.6273 41.0194 86.7873C41.0287 85.9535 41.3665 85.157 41.9595 84.5707C42.5525 83.9844 43.3527 83.6556 44.1866 83.6556H63.0655V81.8796H42.8783C41.8075 81.8796 40.7805 82.305 40.0234 83.0622C39.2662 83.8193 38.8408 84.8463 38.8408 85.9171V87.6931C38.8408 88.7639 39.2662 89.7908 40.0234 90.548C40.7805 91.3051 41.8075 91.7305 42.8783 91.7305H63.0655V89.9545H44.1866Z" fill="white" stroke="#263238" stroke-width="0.592" stroke-linecap="round" stroke-linejoin="round"/>
<path d="M43.4407 83.6265H62.0769V89.9549H43.4407C42.8002 89.9549 42.1858 89.7005 41.7328 89.2475C41.2799 88.7945 41.0254 88.1802 41.0254 87.5396V86.0241C41.0301 85.3866 41.2866 84.7768 41.7391 84.3276C42.1915 83.8785 42.8032 83.6264 43.4407 83.6265Z" fill="white" stroke="#263238" stroke-width="0.592" stroke-linecap="round" stroke-linejoin="round"/>
<path d="M41.458 85.5916H47.1353" stroke="#263238" stroke-width="0.592" stroke-linecap="round" stroke-linejoin="round"/>
<path d="M41.458 87.3379H52.8066" stroke="#263238" stroke-width="0.592" stroke-linecap="round" stroke-linejoin="round"/>
<path d="M250.274 201.63C250.274 201.665 252.216 200.12 252.323 200.008C253.601 198.723 255.318 195.485 254.383 193.679C254.22 193.384 253.996 193.126 253.727 192.922C253.457 192.719 253.148 192.574 252.819 192.498C252.49 192.422 252.149 192.417 251.817 192.481C251.486 192.546 251.172 192.68 250.896 192.874C249.712 193.656 249.203 195.355 249.12 196.704C248.996 198.291 250.274 201.624 250.274 201.63Z" fill="#263238"/>
<path d="M221.888 179.347C222.675 180.732 225.576 182.81 225.576 182.81C225.576 182.81 226.363 180.483 226.399 180.329C226.754 178.553 226.399 174.901 224.623 173.912C224.323 173.756 223.995 173.664 223.658 173.644C223.321 173.623 222.983 173.673 222.667 173.792C222.351 173.91 222.064 174.094 221.823 174.331C221.583 174.568 221.395 174.853 221.272 175.167C220.698 176.481 221.225 178.169 221.888 179.347Z" fill="#263238"/>
<path d="M216.672 188.351C217.75 189.434 220.852 190.607 221.1 190.719C220.425 192.489 219.869 194.303 219.437 196.148C219.176 197.219 218.951 198.309 218.738 199.404C218.738 198.889 218.78 198.433 218.774 198.368C218.65 196.556 217.341 193.134 215.37 192.643C215.04 192.571 214.698 192.57 214.367 192.639C214.036 192.708 213.724 192.846 213.449 193.043C213.175 193.241 212.946 193.494 212.776 193.786C212.606 194.078 212.499 194.403 212.463 194.739C212.262 196.16 213.215 197.645 214.168 198.61C215.121 199.575 217.762 200.635 218.46 200.907C218.383 201.328 218.3 201.748 218.223 202.168C217.856 204.187 217.501 206.206 217.093 208.177C216.95 208.87 216.785 209.551 216.619 210.225C216.619 209.77 216.654 209.385 216.619 209.326C216.495 207.514 215.186 204.092 213.215 203.607C212.885 203.535 212.544 203.534 212.213 203.602C211.883 203.671 211.571 203.808 211.297 204.005C211.023 204.202 210.793 204.454 210.623 204.746C210.452 205.037 210.345 205.361 210.308 205.697C210.107 207.117 211.06 208.609 212.013 209.568C212.966 210.527 215.352 211.492 216.157 211.818C215.968 212.511 215.784 213.197 215.565 213.86C215.411 214.31 215.293 214.748 215.109 215.192C214.926 215.636 214.766 216.069 214.6 216.501C214.245 217.318 213.884 218.164 213.517 218.957C213.268 219.508 213.02 220.029 212.771 220.556C212.919 219.869 213.185 218.513 213.197 218.395C213.345 216.589 212.605 213.008 210.699 212.226C210.384 212.105 210.046 212.052 209.709 212.07C209.372 212.088 209.042 212.176 208.741 212.33C208.44 212.483 208.175 212.698 207.962 212.961C207.75 213.224 207.595 213.528 207.508 213.854C207.094 215.228 207.81 216.844 208.609 217.939C209.485 219.123 212.256 220.722 212.599 220.899C212.185 221.764 211.77 222.61 211.374 223.392C209.989 226.121 208.734 228.341 207.822 229.904L208.923 230.732C208.953 230.685 208.976 230.638 209 230.59C209.876 229.016 211.102 226.742 212.439 223.954C212.866 223.072 213.298 222.125 213.742 221.142C214.731 221.41 215.735 221.617 216.749 221.764C216.903 223.291 218.241 225.943 218.419 226.286C217.59 226.784 216.785 227.257 216.015 227.689C213.357 229.205 211.084 230.359 209.503 231.153L210.687 232.058C212.238 231.241 214.275 230.129 216.607 228.731C217.448 228.228 218.336 227.678 219.242 227.103C219.502 227.399 221.61 229.785 222.983 230.395C224.22 230.951 225.943 231.313 227.21 230.626C227.511 230.473 227.777 230.259 227.99 229.997C228.204 229.735 228.359 229.431 228.447 229.105C228.534 228.779 228.552 228.437 228.499 228.104C228.446 227.77 228.324 227.452 228.139 227.169C226.991 225.493 223.326 225.481 221.586 225.985C221.485 225.985 220.402 226.47 219.739 226.772L220.846 226.061C221.592 225.576 222.326 225.067 223.113 224.528L224.244 223.693C224.629 223.421 224.996 223.101 225.381 222.782C226.251 222.06 227.091 221.29 227.932 220.491C228.358 221.142 229.903 223.451 231.052 224.185C232.2 224.919 233.84 225.541 235.196 225.049C235.517 224.944 235.812 224.773 236.062 224.547C236.313 224.32 236.512 224.044 236.649 223.735C236.785 223.426 236.855 223.092 236.853 222.754C236.852 222.417 236.779 222.083 236.64 221.775C235.758 219.946 232.135 219.378 230.342 219.626C230.229 219.626 228.956 219.97 228.264 220.165C228.761 219.68 229.264 219.2 229.75 218.691C231.158 217.229 232.538 215.731 233.923 214.192L235.202 212.813C235.35 213.049 237.138 215.826 238.416 216.655C239.553 217.389 241.211 218.01 242.56 217.519C242.881 217.414 243.176 217.243 243.427 217.016C243.677 216.79 243.877 216.514 244.014 216.205C244.151 215.896 244.221 215.562 244.221 215.225C244.22 214.887 244.149 214.553 244.011 214.245C243.123 212.416 239.5 211.848 237.706 212.096C237.57 212.096 235.746 212.588 235.285 212.73C236.226 211.717 237.173 210.723 238.144 209.77C239.448 208.487 240.832 207.289 242.288 206.182C242.359 206.289 244.206 209.195 245.52 210.042C246.657 210.776 248.315 211.398 249.664 210.906C249.985 210.802 250.281 210.63 250.531 210.404C250.781 210.177 250.981 209.901 251.117 209.592C251.254 209.283 251.323 208.949 251.322 208.611C251.32 208.274 251.248 207.94 251.109 207.633C250.227 205.803 246.604 205.235 244.81 205.489C244.692 205.489 243.3 205.862 242.643 206.046L242.59 205.939C244.095 204.872 245.689 203.937 247.356 203.145C248.267 202.701 249.167 202.328 250.043 201.961C250.333 202.553 251.683 205.158 252.778 206.052C253.874 206.946 255.407 207.709 256.798 207.366C257.126 207.294 257.436 207.154 257.707 206.955C257.978 206.756 258.205 206.503 258.372 206.211C258.539 205.92 258.644 205.596 258.678 205.262C258.713 204.928 258.678 204.59 258.574 204.27C257.893 202.358 254.359 201.393 252.542 201.446C252.447 201.446 251.446 201.588 250.718 201.701C251.121 201.553 251.529 201.393 251.902 201.257C253.353 200.742 254.708 200.357 255.916 200.031C256.603 199.854 257.224 199.7 257.81 199.564C258.402 199.984 260.741 201.641 262.102 201.932C263.464 202.222 265.193 202.186 266.246 201.245C266.503 201.031 266.713 200.766 266.862 200.466C267.011 200.167 267.096 199.839 267.112 199.505C267.127 199.171 267.073 198.838 266.953 198.525C266.832 198.213 266.648 197.93 266.412 197.693C264.926 196.308 261.345 197.101 259.764 197.959C259.622 198.036 257.621 199.475 257.65 199.498H257.686C257.094 199.617 256.502 199.753 255.851 199.907C254.667 200.215 253.27 200.564 251.802 201.049C250.217 201.55 248.663 202.143 247.148 202.825C245.449 203.584 243.821 204.491 242.282 205.537L242.229 205.578C242.596 205.111 243.573 203.761 243.638 203.648C244.532 202.074 245.325 198.492 243.952 197C243.717 196.762 243.434 196.575 243.123 196.452C242.812 196.329 242.479 196.273 242.144 196.286C241.81 196.3 241.482 196.383 241.182 196.53C240.881 196.678 240.615 196.886 240.4 197.142C239.446 198.22 239.417 199.984 239.683 201.286C239.985 202.79 241.921 205.478 242.081 205.691C240.54 206.796 239.075 208.002 237.694 209.302C236.889 210.054 236.102 210.835 235.326 211.634C235.634 211.22 235.918 210.841 235.918 210.788C236.812 209.207 237.611 205.632 236.232 204.134C235.997 203.896 235.714 203.71 235.403 203.587C235.091 203.465 234.758 203.409 234.423 203.423C234.089 203.437 233.761 203.52 233.461 203.668C233.161 203.816 232.895 204.025 232.68 204.282C231.733 205.353 231.703 207.117 231.97 208.426C232.236 209.734 233.846 212.096 234.278 212.706L233.384 213.629C231.97 215.115 230.561 216.589 229.134 218.016C228.631 218.519 228.116 218.993 227.601 219.467C227.873 219.1 228.092 218.786 228.122 218.733C229.015 217.152 229.815 213.576 228.441 212.084C228.206 211.846 227.924 211.66 227.613 211.537C227.302 211.414 226.968 211.357 226.634 211.37C226.299 211.384 225.972 211.467 225.671 211.614C225.371 211.762 225.104 211.97 224.889 212.226C223.936 213.298 223.906 215.068 224.173 216.37C224.439 217.673 225.896 219.816 226.405 220.544C225.866 221.012 225.327 221.485 224.783 221.917C224.404 222.208 224.06 222.509 223.67 222.776L222.592 223.682C221.846 224.167 221.077 224.676 220.337 225.132C219.822 225.458 219.324 225.724 218.827 226.056C219.336 225.564 220.307 224.581 220.378 224.487C221.319 223.199 221.912 221.69 222.101 220.106C222.21 219.965 222.309 219.817 222.397 219.662C222.564 219.368 222.667 219.043 222.7 218.707C222.733 218.371 222.695 218.032 222.588 217.711C222.481 217.391 222.309 217.096 222.081 216.847C221.853 216.598 221.576 216.399 221.266 216.264C219.384 215.5 216.317 217.513 215.157 218.904C215.086 218.987 214.446 219.964 214.05 220.585C214.227 220.183 214.399 219.798 214.577 219.401C214.938 218.579 215.269 217.756 215.624 216.868C215.784 216.43 215.944 215.992 216.11 215.548C216.276 215.104 216.4 214.624 216.554 214.162C216.879 213.079 217.146 211.966 217.412 210.841C218.129 211.149 220.692 212.221 222.054 212.203C223.415 212.185 225.132 211.794 225.984 210.64C226.199 210.375 226.355 210.069 226.442 209.739C226.529 209.41 226.545 209.066 226.489 208.731C226.433 208.395 226.306 208.075 226.117 207.791C225.928 207.508 225.681 207.268 225.392 207.088C223.646 206.052 220.313 207.573 218.951 208.775C218.869 208.852 217.986 209.823 217.513 210.362C217.661 209.687 217.815 209.006 217.945 208.319C218.312 206.318 218.626 204.288 218.946 202.263C219.04 201.641 219.147 201.026 219.247 200.404C219.502 200.523 222.521 201.855 224.043 201.837C225.398 201.837 227.121 201.428 227.974 200.274C228.188 200.01 228.344 199.703 228.431 199.373C228.518 199.044 228.534 198.7 228.478 198.365C228.422 198.029 228.295 197.709 228.106 197.425C227.917 197.142 227.67 196.903 227.382 196.722C225.635 195.686 222.302 197.207 220.941 198.409C220.84 198.498 219.579 199.901 219.271 200.268C219.496 198.906 219.739 197.557 220.023 196.231C220.404 194.438 220.902 192.672 221.515 190.944C221.633 190.991 224.777 192.4 226.34 192.383C227.695 192.383 229.418 191.974 230.27 190.82C230.485 190.555 230.641 190.248 230.728 189.919C230.815 189.59 230.831 189.246 230.775 188.91C230.719 188.575 230.592 188.254 230.403 187.971C230.214 187.688 229.967 187.448 229.678 187.268C227.902 186.232 224.599 187.753 223.238 188.955C223.149 189.032 222.184 190.097 221.74 190.618L221.639 190.559C222.3 188.836 223.115 187.176 224.072 185.598C224.587 184.722 225.126 183.917 225.671 183.141C226.233 183.461 228.802 184.917 230.205 185.042C231.608 185.166 233.313 184.977 234.284 183.923C234.52 183.684 234.702 183.398 234.82 183.085C234.938 182.771 234.989 182.436 234.97 182.101C234.95 181.766 234.86 181.439 234.707 181.141C234.553 180.843 234.338 180.581 234.077 180.371C232.455 179.145 228.974 180.294 227.488 181.336C227.411 181.395 226.653 182.064 226.109 182.555C226.363 182.212 226.612 181.851 226.861 181.525C227.784 180.294 228.708 179.228 229.53 178.293C230.004 177.76 230.442 177.293 230.857 176.854C231.573 176.884 234.444 176.967 235.735 176.458C237.025 175.949 238.458 174.966 238.837 173.581C238.938 173.259 238.97 172.919 238.931 172.584C238.892 172.248 238.782 171.925 238.61 171.635C238.437 171.345 238.205 171.095 237.929 170.901C237.653 170.706 237.339 170.573 237.007 170.508C235.001 170.171 232.443 172.787 231.608 174.404C231.531 174.54 230.655 176.849 230.691 176.849H230.738C230.33 177.263 229.898 177.707 229.436 178.204C228.589 179.122 227.66 180.176 226.683 181.383C225.638 182.693 224.667 184.061 223.776 185.48C222.779 187.052 221.921 188.708 221.213 190.429V190.494C221.254 189.902 221.331 188.233 221.319 188.126C221.195 186.315 219.887 182.893 217.915 182.401C217.586 182.33 217.244 182.328 216.914 182.397C216.583 182.466 216.271 182.604 215.997 182.802C215.724 183 215.495 183.253 215.325 183.545C215.156 183.837 215.05 184.161 215.015 184.497C214.766 185.9 215.719 187.386 216.672 188.351Z" fill="#263238"/>
<path opacity="0.3" d="M221.888 179.347C222.675 180.732 225.576 182.81 225.576 182.81C225.576 182.81 226.363 180.483 226.399 180.329C226.754 178.553 226.399 174.901 224.623 173.912C224.323 173.756 223.995 173.664 223.658 173.644C223.321 173.623 222.983 173.673 222.667 173.792C222.351 173.91 222.064 174.094 221.823 174.331C221.583 174.568 221.395 174.853 221.272 175.167C220.698 176.481 221.225 178.169 221.888 179.347Z" fill="#263238"/>
<path opacity="0.3" d="M250.274 201.63C250.274 201.665 252.216 200.12 252.323 200.008C253.601 198.723 255.318 195.485 254.383 193.679C254.22 193.384 253.996 193.126 253.727 192.922C253.457 192.719 253.148 192.574 252.819 192.498C252.49 192.422 252.149 192.417 251.817 192.481C251.486 192.546 251.172 192.68 250.896 192.874C249.712 193.656 249.203 195.355 249.12 196.704C248.996 198.291 250.274 201.624 250.274 201.63Z" fill="#263238"/>
<path opacity="0.3" d="M216.672 188.351C217.75 189.434 220.852 190.607 221.1 190.719C220.425 192.489 219.869 194.303 219.437 196.148C219.176 197.219 218.951 198.309 218.738 199.404C218.738 198.889 218.78 198.433 218.774 198.368C218.65 196.556 217.341 193.134 215.37 192.643C215.04 192.571 214.698 192.57 214.367 192.639C214.036 192.708 213.724 192.846 213.449 193.043C213.175 193.241 212.946 193.494 212.776 193.786C212.606 194.078 212.499 194.403 212.463 194.739C212.262 196.16 213.215 197.645 214.168 198.61C215.121 199.575 217.762 200.635 218.46 200.907C218.383 201.328 218.3 201.748 218.223 202.168C217.856 204.187 217.501 206.206 217.093 208.177C216.95 208.87 216.785 209.551 216.619 210.225C216.619 209.77 216.654 209.385 216.619 209.326C216.495 207.514 215.186 204.092 213.215 203.607C212.885 203.535 212.544 203.534 212.213 203.602C211.883 203.671 211.571 203.808 211.297 204.005C211.023 204.202 210.793 204.454 210.623 204.746C210.452 205.037 210.345 205.361 210.308 205.697C210.107 207.117 211.06 208.609 212.013 209.568C212.966 210.527 215.352 211.492 216.157 211.818C215.968 212.511 215.784 213.197 215.565 213.86C215.411 214.31 215.293 214.748 215.109 215.192C214.926 215.636 214.766 216.069 214.6 216.501C214.245 217.318 213.884 218.164 213.517 218.957C213.268 219.508 213.02 220.029 212.771 220.556C212.919 219.869 213.185 218.513 213.197 218.395C213.345 216.589 212.605 213.008 210.699 212.226C210.384 212.105 210.046 212.052 209.709 212.07C209.372 212.088 209.042 212.176 208.741 212.33C208.44 212.483 208.175 212.698 207.962 212.961C207.75 213.224 207.595 213.528 207.508 213.854C207.094 215.228 207.81 216.844 208.609 217.939C209.485 219.123 212.256 220.722 212.599 220.899C212.185 221.764 211.77 222.61 211.374 223.392C209.989 226.121 208.734 228.341 207.822 229.904L208.923 230.732C208.953 230.685 208.976 230.638 209 230.59C209.876 229.016 211.102 226.742 212.439 223.954C212.866 223.072 213.298 222.125 213.742 221.142C214.731 221.41 215.735 221.617 216.749 221.764C216.903 223.291 218.241 225.943 218.419 226.286C217.59 226.784 216.785 227.257 216.015 227.689C213.357 229.205 211.084 230.359 209.503 231.153L210.687 232.058C212.238 231.241 214.275 230.129 216.607 228.731C217.448 228.228 218.336 227.678 219.242 227.103C219.502 227.399 221.61 229.785 222.983 230.395C224.22 230.951 225.943 231.313 227.21 230.626C227.511 230.473 227.777 230.259 227.99 229.997C228.204 229.735 228.359 229.431 228.447 229.105C228.534 228.779 228.552 228.437 228.499 228.104C228.446 227.77 228.324 227.452 228.139 227.169C226.991 225.493 223.326 225.481 221.586 225.985C221.485 225.985 220.402 226.47 219.739 226.772L220.846 226.061C221.592 225.576 222.326 225.067 223.113 224.528L224.244 223.693C224.629 223.421 224.996 223.101 225.381 222.782C226.251 222.06 227.091 221.29 227.932 220.491C228.358 221.142 229.903 223.451 231.052 224.185C232.2 224.919 233.84 225.541 235.196 225.049C235.517 224.944 235.812 224.773 236.062 224.547C236.313 224.32 236.512 224.044 236.649 223.735C236.785 223.426 236.855 223.092 236.853 222.754C236.852 222.417 236.779 222.083 236.64 221.775C235.758 219.946 232.135 219.378 230.342 219.626C230.229 219.626 228.956 219.97 228.264 220.165C228.761 219.68 229.264 219.2 229.75 218.691C231.158 217.229 232.538 215.731 233.923 214.192L235.202 212.813C235.35 213.049 237.138 215.826 238.416 216.655C239.553 217.389 241.211 218.01 242.56 217.519C242.881 217.414 243.176 217.243 243.427 217.016C243.677 216.79 243.877 216.514 244.014 216.205C244.151 215.896 244.221 215.562 244.221 215.225C244.22 214.887 244.149 214.553 244.011 214.245C243.123 212.416 239.5 211.848 237.706 212.096C237.57 212.096 235.746 212.588 235.285 212.73C236.226 211.717 237.173 210.723 238.144 209.77C239.448 208.487 240.832 207.289 242.288 206.182C242.359 206.289 244.206 209.195 245.52 210.042C246.657 210.776 248.315 211.398 249.664 210.906C249.985 210.802 250.281 210.63 250.531 210.404C250.781 210.177 250.981 209.901 251.117 209.592C251.254 209.283 251.323 208.949 251.322 208.611C251.32 208.274 251.248 207.94 251.109 207.633C250.227 205.803 246.604 205.235 244.81 205.489C244.692 205.489 243.3 205.862 242.643 206.046L242.59 205.939C244.095 204.872 245.689 203.937 247.356 203.145C248.267 202.701 249.167 202.328 250.043 201.961C250.333 202.553 251.683 205.158 252.778 206.052C253.874 206.946 255.407 207.709 256.798 207.366C257.126 207.294 257.436 207.154 257.707 206.955C257.978 206.756 258.205 206.503 258.372 206.211C258.539 205.92 258.644 205.596 258.678 205.262C258.713 204.928 258.678 204.59 258.574 204.27C257.893 202.358 254.359 201.393 252.542 201.446C252.447 201.446 251.446 201.588 250.718 201.701C251.121 201.553 251.529 201.393 251.902 201.257C253.353 200.742 254.708 200.357 255.916 200.031C256.603 199.854 257.224 199.7 257.81 199.564C258.402 199.984 260.741 201.641 262.102 201.932C263.464 202.222 265.193 202.186 266.246 201.245C266.503 201.031 266.713 200.766 266.862 200.466C267.011 200.167 267.096 199.839 267.112 199.505C267.127 199.171 267.073 198.838 266.953 198.525C266.832 198.213 266.648 197.93 266.412 197.693C264.926 196.308 261.345 197.101 259.764 197.959C259.622 198.036 257.621 199.475 257.65 199.498H257.686C257.094 199.617 256.502 199.753 255.851 199.907C254.667 200.215 253.27 200.564 251.802 201.049C250.217 201.55 248.663 202.143 247.148 202.825C245.449 203.584 243.821 204.491 242.282 205.537L242.229 205.578C242.596 205.111 243.573 203.761 243.638 203.648C244.532 202.074 245.325 198.492 243.952 197C243.717 196.762 243.434 196.575 243.123 196.452C242.812 196.329 242.479 196.273 242.144 196.286C241.81 196.3 241.482 196.383 241.182 196.53C240.881 196.678 240.615 196.886 240.4 197.142C239.446 198.22 239.417 199.984 239.683 201.286C239.985 202.79 241.921 205.478 242.081 205.691C240.54 206.796 239.075 208.002 237.694 209.302C236.889 210.054 236.102 210.835 235.326 211.634C235.634 211.22 235.918 210.841 235.918 210.788C236.812 209.207 237.611 205.632 236.232 204.134C235.997 203.896 235.714 203.71 235.403 203.587C235.091 203.465 234.758 203.409 234.423 203.423C234.089 203.437 233.761 203.52 233.461 203.668C233.161 203.816 232.895 204.025 232.68 204.282C231.733 205.353 231.703 207.117 231.97 208.426C232.236 209.734 233.846 212.096 234.278 212.706L233.384 213.629C231.97 215.115 230.561 216.589 229.134 218.016C228.631 218.519 228.116 218.993 227.601 219.467C227.873 219.1 228.092 218.786 228.122 218.733C229.015 217.152 229.815 213.576 228.441 212.084C228.206 211.846 227.924 211.66 227.613 211.537C227.302 211.414 226.968 211.357 226.634 211.37C226.299 211.384 225.972 211.467 225.671 211.614C225.371 211.762 225.104 211.97 224.889 212.226C223.936 213.298 223.906 215.068 224.173 216.37C224.439 217.673 225.896 219.816 226.405 220.544C225.866 221.012 225.327 221.485 224.783 221.917C224.404 222.208 224.06 222.509 223.67 222.776L222.592 223.682C221.846 224.167 221.077 224.676 220.337 225.132C219.822 225.458 219.324 225.724 218.827 226.056C219.336 225.564 220.307 224.581 220.378 224.487C221.319 223.199 221.912 221.69 222.101 220.106C222.21 219.965 222.309 219.817 222.397 219.662C222.564 219.368 222.667 219.043 222.7 218.707C222.733 218.371 222.695 218.032 222.588 217.711C222.481 217.391 222.309 217.096 222.081 216.847C221.853 216.598 221.576 216.399 221.266 216.264C219.384 215.5 216.317 217.513 215.157 218.904C215.086 218.987 214.446 219.964 214.05 220.585C214.227 220.183 214.399 219.798 214.577 219.401C214.938 218.579 215.269 217.756 215.624 216.868C215.784 216.43 215.944 215.992 216.11 215.548C216.276 215.104 216.4 214.624 216.554 214.162C216.879 213.079 217.146 211.966 217.412 210.841C218.129 211.149 220.692 212.221 222.054 212.203C223.415 212.185 225.132 211.794 225.984 210.64C226.199 210.375 226.355 210.069 226.442 209.739C226.529 209.41 226.545 209.066 226.489 208.731C226.433 208.395 226.306 208.075 226.117 207.791C225.928 207.508 225.681 207.268 225.392 207.088C223.646 206.052 220.313 207.573 218.951 208.775C218.869 208.852 217.986 209.823 217.513 210.362C217.661 209.687 217.815 209.006 217.945 208.319C218.312 206.318 218.626 204.288 218.946 202.263C219.04 201.641 219.147 201.026 219.247 200.404C219.502 200.523 222.521 201.855 224.043 201.837C225.398 201.837 227.121 201.428 227.974 200.274C228.188 200.01 228.344 199.703 228.431 199.373C228.518 199.044 228.534 198.7 228.478 198.365C228.422 198.029 228.295 197.709 228.106 197.425C227.917 197.142 227.67 196.903 227.382 196.722C225.635 195.686 222.302 197.207 220.941 198.409C220.84 198.498 219.579 199.901 219.271 200.268C219.496 198.906 219.739 197.557 220.023 196.231C220.404 194.438 220.902 192.672 221.515 190.944C221.633 190.991 224.777 192.4 226.34 192.383C227.695 192.383 229.418 191.974 230.27 190.82C230.485 190.555 230.641 190.248 230.728 189.919C230.815 189.59 230.831 189.246 230.775 188.91C230.719 188.575 230.592 188.254 230.403 187.971C230.214 187.688 229.967 187.448 229.678 187.268C227.902 186.232 224.599 187.753 223.238 188.955C223.149 189.032 222.184 190.097 221.74 190.618L221.639 190.559C222.3 188.836 223.115 187.176 224.072 185.598C224.587 184.722 225.126 183.917 225.671 183.141C226.233 183.461 228.802 184.917 230.205 185.042C231.608 185.166 233.313 184.977 234.284 183.923C234.52 183.684 234.702 183.398 234.82 183.085C234.938 182.771 234.989 182.436 234.97 182.101C234.95 181.766 234.86 181.439 234.707 181.141C234.553 180.843 234.338 180.581 234.077 180.371C232.455 179.145 228.974 180.294 227.488 181.336C227.411 181.395 226.653 182.064 226.109 182.555C226.363 182.212 226.612 181.851 226.861 181.525C227.784 180.294 228.708 179.228 229.53 178.293C230.004 177.76 230.442 177.293 230.857 176.854C231.573 176.884 234.444 176.967 235.735 176.458C237.025 175.949 238.458 174.966 238.837 173.581C238.938 173.259 238.97 172.919 238.931 172.584C238.892 172.248 238.782 171.925 238.61 171.635C238.437 171.345 238.205 171.095 237.929 170.901C237.653 170.706 237.339 170.573 237.007 170.508C235.001 170.171 232.443 172.787 231.608 174.404C231.531 174.54 230.655 176.849 230.691 176.849H230.738C230.33 177.263 229.898 177.707 229.436 178.204C228.589 179.122 227.66 180.176 226.683 181.383C225.638 182.693 224.667 184.061 223.776 185.48C222.779 187.052 221.921 188.708 221.213 190.429V190.494C221.254 189.902 221.331 188.233 221.319 188.126C221.195 186.315 219.887 182.893 217.915 182.401C217.586 182.33 217.244 182.328 216.914 182.397C216.583 182.466 216.271 182.604 215.997 182.802C215.724 183 215.495 183.253 215.325 183.545C215.156 183.837 215.05 184.161 215.015 184.497C214.766 185.9 215.719 187.386 216.672 188.351Z" fill="#263238"/>
<path d="M55.3459 201.63C55.3459 201.665 53.4042 200.12 53.2917 200.008C52.013 198.723 50.2962 195.485 51.2315 193.679C51.3946 193.384 51.6182 193.126 51.8876 192.922C52.157 192.719 52.4663 192.574 52.7953 192.498C53.1242 192.422 53.4655 192.417 53.7969 192.481C54.1282 192.546 54.4422 192.68 54.7184 192.874C55.9024 193.656 56.4115 195.355 56.4944 196.704C56.6187 198.291 55.3459 201.624 55.3459 201.63Z" fill="#263238"/>
<path d="M83.7265 179.347C82.9451 180.732 80.0384 182.81 80.0384 182.81C80.0384 182.81 79.251 180.483 79.2214 180.33C78.8662 178.554 79.2214 174.901 80.9974 173.912C81.2971 173.756 81.6263 173.664 81.9636 173.644C82.3009 173.623 82.6389 173.673 82.9554 173.792C83.272 173.91 83.5601 174.094 83.8011 174.331C84.042 174.568 84.2305 174.853 84.3541 175.167C84.9165 176.482 84.3955 178.169 83.7265 179.347Z" fill="#263238"/>
<path d="M88.9422 188.351C87.8648 189.434 84.7627 190.607 84.52 190.719C85.1909 192.49 85.7446 194.304 86.1776 196.148C86.438 197.219 86.663 198.309 86.8761 199.404C86.8761 198.889 86.8406 198.433 86.8406 198.368C86.9708 196.556 88.2792 193.134 90.2505 192.643C90.5804 192.571 90.9218 192.57 91.2523 192.639C91.5828 192.708 91.895 192.846 92.1687 193.043C92.4424 193.241 92.6713 193.494 92.8406 193.786C93.0099 194.079 93.1158 194.403 93.1513 194.739C93.3526 196.16 92.4054 197.645 91.4464 198.61C90.4873 199.575 87.8588 200.635 87.1603 200.907C87.2372 201.328 87.3201 201.748 87.3912 202.168C87.7582 204.187 88.1134 206.206 88.5219 208.177C88.664 208.87 88.8297 209.551 88.9955 210.225C88.9955 209.77 88.9659 209.385 88.9659 209.326C89.0961 207.514 90.3985 204.092 92.3758 203.607C92.7053 203.535 93.0461 203.534 93.3763 203.602C93.7064 203.671 94.0184 203.808 94.292 204.005C94.5656 204.202 94.7946 204.455 94.9642 204.746C95.1339 205.038 95.2403 205.361 95.2766 205.697C95.4779 207.117 94.5307 208.609 93.5716 209.568C92.6126 210.527 90.2387 211.492 89.4276 211.818C89.6171 212.511 89.8065 213.197 90.0196 213.86C90.1736 214.31 90.2979 214.748 90.4814 215.192C90.6649 215.636 90.8188 216.069 90.9905 216.501C91.3457 217.318 91.7009 218.164 92.068 218.957C92.3225 219.508 92.5712 220.029 92.8198 220.556C92.6659 219.869 92.3995 218.513 92.3876 218.395C92.2396 216.589 93.0152 213.008 94.8918 212.226C95.2068 212.105 95.5437 212.052 95.8806 212.07C96.2176 212.088 96.547 212.177 96.8474 212.33C97.1478 212.484 97.4126 212.699 97.6244 212.961C97.8362 213.224 97.9903 213.528 98.0768 213.854C98.4912 215.228 97.7748 216.844 96.9816 217.939C96.0995 219.123 93.3348 220.722 92.9856 220.899C93.4 221.764 93.8144 222.61 94.2169 223.392C95.5963 226.121 96.8513 228.341 97.7689 229.904L96.6678 230.732C96.6678 230.685 96.6204 230.638 96.5908 230.59C95.7147 229.016 94.4952 226.742 93.1513 223.954C92.731 223.072 92.2929 222.125 91.8548 221.142C90.8657 221.409 89.8615 221.617 88.8475 221.764C88.6876 223.291 87.3497 225.943 87.1721 226.286C88.0009 226.784 88.806 227.257 89.5756 227.689C92.2337 229.205 94.507 230.359 96.0876 231.153L94.9036 232.058C93.3526 231.241 91.3161 230.129 88.9836 228.731C88.143 228.228 87.255 227.678 86.3492 227.103C86.0888 227.399 83.9812 229.785 82.6078 230.395C81.3705 230.951 79.6478 231.313 78.3809 230.626C78.0801 230.473 77.8148 230.258 77.6022 229.996C77.3897 229.734 77.2345 229.43 77.1469 229.104C77.0593 228.778 77.0411 228.437 77.0936 228.104C77.1461 227.77 77.268 227.452 77.4515 227.169C78.6 225.493 82.2644 225.481 84.0049 225.985C84.1056 225.985 85.1889 226.47 85.8579 226.772C85.4849 226.535 85.1238 226.31 84.7508 226.061C83.999 225.576 83.2649 225.067 82.4776 224.528L81.3468 223.693C80.968 223.421 80.595 223.101 80.2161 222.782C79.3459 222.06 78.4993 221.29 77.6646 220.491C77.2384 221.142 75.6873 223.451 74.5448 224.185C73.4022 224.919 71.7505 225.541 70.4008 225.049C70.0799 224.944 69.7846 224.773 69.5343 224.547C69.284 224.32 69.0842 224.044 68.9479 223.735C68.8116 223.426 68.742 223.092 68.7434 222.754C68.7448 222.417 68.8174 222.083 68.9563 221.775C69.8443 219.946 73.4614 219.378 75.2611 219.626C75.3736 219.626 76.6404 219.97 77.3331 220.165C76.8358 219.68 76.3385 219.2 75.8472 218.691C74.4382 217.229 73.0588 215.731 71.7032 214.192L70.4244 212.813C70.2764 213.049 68.4945 215.826 67.2099 216.655C66.0732 217.389 64.4216 218.01 63.0659 217.519C62.745 217.414 62.4498 217.243 62.1994 217.016C61.9491 216.79 61.7493 216.513 61.613 216.204C61.4768 215.896 61.4071 215.561 61.4085 215.224C61.41 214.886 61.4825 214.553 61.6214 214.245C62.5035 212.416 66.1265 211.848 67.9203 212.096C68.0564 212.096 69.8798 212.588 70.3416 212.73C69.4003 211.717 68.4531 210.723 67.4822 209.77C66.1797 208.486 64.7955 207.287 63.3382 206.182C63.2672 206.289 61.4201 209.195 60.1118 210.042C58.9692 210.776 57.3176 211.398 55.9678 210.906C55.6417 210.808 55.3402 210.641 55.0833 210.418C54.8264 210.194 54.6201 209.918 54.4779 209.608C54.3357 209.299 54.2609 208.963 54.2586 208.622C54.2562 208.281 54.3263 207.944 54.4641 207.633C55.3462 205.803 58.9692 205.235 60.763 205.489C60.8814 205.489 62.2726 205.862 62.9297 206.046L62.983 205.939C61.4891 204.871 59.9043 203.936 58.247 203.145C57.3353 202.701 56.471 202.328 55.5593 201.961C55.2692 202.553 53.9195 205.158 52.8243 206.052C51.7291 206.946 50.2017 207.709 48.8046 207.366C48.4758 207.295 48.1655 207.156 47.894 206.957C47.6224 206.758 47.3956 206.505 47.2282 206.213C47.0608 205.921 46.9565 205.597 46.9221 205.263C46.8878 204.928 46.924 204.59 47.0286 204.27C47.7035 202.358 51.2436 201.393 53.0552 201.446C53.1558 201.446 54.1504 201.588 54.8785 201.701C54.4819 201.553 54.0675 201.393 53.6945 201.257C52.2441 200.742 50.8884 200.357 49.6867 200.031C49 199.854 48.3724 199.7 47.7864 199.564C47.1944 199.984 44.8264 201.641 43.4944 201.932C42.1624 202.222 40.4041 202.186 39.3504 201.245C39.0933 201.031 38.8836 200.766 38.7346 200.466C38.5856 200.167 38.5006 199.839 38.485 199.505C38.4694 199.171 38.5236 198.838 38.644 198.525C38.7645 198.213 38.9486 197.93 39.1846 197.693C40.6705 196.308 44.2521 197.101 45.8387 197.959C45.9748 198.036 47.9817 199.475 47.9521 199.498H47.9166C48.481 199.617 49.0907 199.753 49.7459 199.907C50.9299 200.215 52.3329 200.564 53.7952 201.049C55.3801 201.549 56.9339 202.142 58.4483 202.825C60.148 203.582 61.7766 204.49 63.3145 205.537L63.3678 205.578C63.0067 205.111 62.024 203.761 61.9648 203.648C61.0708 202.074 60.2716 198.492 61.6451 197C61.88 196.762 62.1622 196.575 62.4734 196.452C62.7846 196.329 63.1181 196.273 63.4525 196.286C63.7868 196.3 64.1147 196.383 64.4151 196.53C64.7156 196.678 64.9819 196.886 65.1971 197.142C66.1502 198.22 66.1798 199.984 65.9134 201.286C65.6115 202.79 63.6756 205.478 63.5454 205.691C65.0842 206.796 66.5477 208.002 67.9262 209.302C68.7313 210.054 69.5246 210.835 70.2942 211.634C69.9923 211.22 69.7022 210.841 69.7022 210.788C68.8083 209.207 68.0091 205.632 69.3884 204.134C69.6238 203.896 69.9063 203.71 70.2177 203.587C70.5292 203.465 70.8628 203.409 71.1972 203.423C71.5315 203.437 71.8593 203.52 72.1595 203.668C72.4597 203.816 72.7257 204.025 72.9404 204.282C73.8936 205.353 73.9232 207.117 73.6568 208.426C73.3904 209.734 71.7742 212.096 71.342 212.706L72.236 213.629C73.6568 215.115 75.0657 216.589 76.4924 218.016C76.9956 218.519 77.5048 218.993 78.0198 219.467C77.7534 219.1 77.5284 218.786 77.4988 218.733C76.6049 217.152 75.8057 213.576 77.1851 212.084C77.4201 211.846 77.7022 211.66 78.0134 211.537C78.3246 211.414 78.6581 211.357 78.9925 211.37C79.3269 211.384 79.6547 211.467 79.9552 211.614C80.2556 211.762 80.5219 211.97 80.7371 212.226C81.6843 213.298 81.7139 215.068 81.4475 216.37C81.1811 217.673 79.7248 219.816 79.2156 220.544C79.7544 221.012 80.2931 221.485 80.8377 221.917C81.2166 222.208 81.56 222.509 81.9566 222.776L83.0992 223.587C83.851 224.072 84.6147 224.581 85.3606 225.037C85.8697 225.363 86.367 225.629 86.8643 225.961C86.3611 225.469 85.3902 224.487 85.3192 224.392C84.379 223.103 83.7839 221.595 83.5905 220.011C83.4809 219.872 83.3839 219.723 83.3004 219.567C83.1326 219.274 83.0283 218.949 82.9945 218.613C82.9606 218.277 82.998 217.938 83.1041 217.617C83.2103 217.296 83.3828 217.002 83.6104 216.752C83.838 216.503 84.1157 216.304 84.4252 216.169C86.3078 215.405 89.3744 217.418 90.5347 218.809C90.6057 218.892 91.251 219.869 91.6476 220.491C91.47 220.088 91.2924 219.703 91.1148 219.307C90.7596 218.484 90.4281 217.661 90.067 216.773L89.5875 215.453C89.4158 215.015 89.2915 214.529 89.1376 214.068C88.812 212.984 88.5456 211.871 88.2792 210.746C87.5628 211.054 84.9995 212.126 83.6379 212.108C82.2763 212.09 80.5595 211.7 79.707 210.545C79.4934 210.28 79.3383 209.973 79.2519 209.644C79.1655 209.315 79.1498 208.972 79.2057 208.636C79.2616 208.301 79.388 207.981 79.5764 207.698C79.7648 207.414 80.0111 207.174 80.299 206.993C82.075 205.957 85.3843 207.479 86.74 208.68C86.8288 208.757 87.7049 209.728 88.1785 210.267C88.0305 209.592 87.8766 208.911 87.7523 208.225C87.3793 206.224 87.0715 204.193 86.7518 202.168C86.6512 201.547 86.5446 200.931 86.444 200.309C86.1894 200.428 83.1702 201.76 81.6488 201.742C80.2931 201.742 78.5704 201.334 77.7179 200.179C77.5043 199.914 77.3492 199.607 77.2628 199.278C77.1764 198.949 77.1606 198.606 77.2166 198.27C77.2725 197.935 77.3988 197.615 77.5873 197.332C77.7757 197.049 78.022 196.808 78.3099 196.627C80.0563 195.591 83.3892 197.113 84.7508 198.314C84.8515 198.403 86.1184 199.806 86.4203 200.173C86.1953 198.812 85.9585 197.462 85.6684 196.136C85.2878 194.343 84.7894 192.577 84.1766 190.849C84.0582 190.897 80.9147 192.306 79.3577 192.288C78.002 192.288 76.2793 191.879 75.4268 190.725C75.2124 190.461 75.0565 190.154 74.9695 189.824C74.8826 189.495 74.8666 189.151 74.9226 188.816C74.9785 188.48 75.1052 188.16 75.2942 187.877C75.4832 187.593 75.7302 187.354 76.0188 187.173C77.7652 186.137 81.0982 187.658 82.4598 188.86C82.5486 188.937 83.5136 190.003 83.9576 190.524L84.0582 190.465C83.3969 188.742 82.5826 187.081 81.6251 185.504C81.11 184.627 80.5713 183.822 80.0267 183.047C79.4702 183.366 76.9009 184.823 75.492 184.947C74.083 185.071 72.3899 184.882 71.4131 183.828C71.1786 183.589 70.9968 183.303 70.8793 182.989C70.7618 182.676 70.7112 182.341 70.7307 182.006C70.7502 181.672 70.8394 181.345 70.9926 181.047C71.1458 180.749 71.3596 180.487 71.6203 180.276C73.2424 179.051 76.7233 180.199 78.2092 181.241C78.2921 181.3 79.044 181.969 79.5886 182.461C79.34 182.117 79.0854 181.756 78.8368 181.431C77.9132 180.199 76.9897 179.134 76.1668 178.198C75.6932 177.665 75.2552 177.198 74.8408 176.76C74.1304 176.789 71.2532 176.872 69.9627 176.363C68.6721 175.854 67.2395 174.871 66.8606 173.486C66.7603 173.164 66.729 172.824 66.7686 172.489C66.8081 172.155 66.9177 171.832 67.0903 171.542C67.2628 171.252 67.4944 171.002 67.77 170.807C68.0456 170.613 68.359 170.479 68.6899 170.413C70.6968 170.076 73.2542 172.693 74.0948 174.309C74.1659 174.445 75.042 176.754 75.0065 176.754H74.9651C75.3676 177.168 75.8057 177.612 76.2675 178.109C77.114 179.027 78.0435 180.081 79.0144 181.289C80.0583 182.584 81.025 183.94 81.9092 185.35C82.9088 186.92 83.7667 188.576 84.4726 190.299C84.471 190.32 84.471 190.342 84.4726 190.364C84.4252 189.772 84.3542 188.102 84.3601 187.996C84.4844 186.184 85.7928 182.763 87.7641 182.271C88.0943 182.2 88.4356 182.2 88.7661 182.269C89.0966 182.338 89.4088 182.476 89.6828 182.674C89.9566 182.871 90.1861 183.124 90.3563 183.416C90.5265 183.707 90.6336 184.031 90.6708 184.367C90.8484 185.9 89.8953 187.386 88.9422 188.351Z" fill="#263238"/>
<path opacity="0.3" d="M83.7265 179.347C82.9451 180.732 80.0384 182.81 80.0384 182.81C80.0384 182.81 79.251 180.483 79.2214 180.33C78.8662 178.554 79.2214 174.901 80.9974 173.912C81.2971 173.756 81.6263 173.664 81.9636 173.644C82.3009 173.623 82.6389 173.673 82.9554 173.792C83.272 173.91 83.5601 174.094 83.8011 174.331C84.042 174.568 84.2305 174.853 84.3541 175.167C84.9165 176.482 84.3955 178.169 83.7265 179.347Z" fill="#263238"/>
<path opacity="0.3" d="M55.3459 201.63C55.3459 201.665 53.4042 200.12 53.2917 200.008C52.013 198.723 50.2962 195.485 51.2315 193.679C51.3946 193.384 51.6182 193.126 51.8876 192.922C52.157 192.719 52.4663 192.574 52.7953 192.498C53.1242 192.422 53.4655 192.417 53.7969 192.481C54.1282 192.546 54.4422 192.68 54.7184 192.874C55.9024 193.656 56.4115 195.355 56.4944 196.704C56.6187 198.291 55.3459 201.624 55.3459 201.63Z" fill="#263238"/>
<path opacity="0.3" d="M88.9422 188.351C87.8648 189.434 84.7627 190.607 84.52 190.719C85.1909 192.49 85.7446 194.304 86.1776 196.148C86.438 197.219 86.663 198.309 86.8761 199.404C86.8761 198.889 86.8406 198.433 86.8406 198.368C86.9708 196.556 88.2792 193.134 90.2505 192.643C90.5804 192.571 90.9218 192.57 91.2523 192.639C91.5828 192.708 91.895 192.846 92.1687 193.043C92.4424 193.241 92.6713 193.494 92.8406 193.786C93.0099 194.079 93.1158 194.403 93.1513 194.739C93.3526 196.16 92.4054 197.645 91.4464 198.61C90.4873 199.575 87.8588 200.635 87.1603 200.907C87.2372 201.328 87.3201 201.748 87.3912 202.168C87.7582 204.187 88.1134 206.206 88.5219 208.177C88.664 208.87 88.8297 209.551 88.9955 210.225C88.9955 209.77 88.9659 209.385 88.9659 209.326C89.0961 207.514 90.3985 204.092 92.3758 203.607C92.7053 203.535 93.0461 203.534 93.3763 203.602C93.7064 203.671 94.0184 203.808 94.292 204.005C94.5656 204.202 94.7946 204.455 94.9642 204.746C95.1339 205.038 95.2403 205.361 95.2766 205.697C95.4779 207.117 94.5307 208.609 93.5716 209.568C92.6126 210.527 90.2387 211.492 89.4276 211.818C89.6171 212.511 89.8065 213.197 90.0196 213.86C90.1736 214.31 90.2979 214.748 90.4814 215.192C90.6649 215.636 90.8188 216.069 90.9905 216.501C91.3457 217.318 91.7009 218.164 92.068 218.957C92.3225 219.508 92.5712 220.029 92.8198 220.556C92.6659 219.869 92.3995 218.513 92.3876 218.395C92.2396 216.589 93.0152 213.008 94.8918 212.226C95.2068 212.105 95.5437 212.052 95.8806 212.07C96.2176 212.088 96.547 212.177 96.8474 212.33C97.1478 212.484 97.4126 212.699 97.6244 212.961C97.8362 213.224 97.9903 213.528 98.0768 213.854C98.4912 215.228 97.7748 216.844 96.9816 217.939C96.0995 219.123 93.3348 220.722 92.9856 220.899C93.4 221.764 93.8144 222.61 94.2169 223.392C95.5963 226.121 96.8513 228.341 97.7689 229.904L96.6678 230.732C96.6678 230.685 96.6204 230.638 96.5908 230.59C95.7147 229.016 94.4952 226.742 93.1513 223.954C92.731 223.072 92.2929 222.125 91.8548 221.142C90.8657 221.409 89.8615 221.617 88.8475 221.764C88.6876 223.291 87.3497 225.943 87.1721 226.286C88.0009 226.784 88.806 227.257 89.5756 227.689C92.2337 229.205 94.507 230.359 96.0876 231.153L94.9036 232.058C93.3526 231.241 91.3161 230.129 88.9836 228.731C88.143 228.228 87.255 227.678 86.3492 227.103C86.0888 227.399 83.9812 229.785 82.6078 230.395C81.3705 230.951 79.6478 231.313 78.3809 230.626C78.0801 230.473 77.8148 230.258 77.6022 229.996C77.3897 229.734 77.2345 229.43 77.1469 229.104C77.0593 228.778 77.0411 228.437 77.0936 228.104C77.1461 227.77 77.268 227.452 77.4515 227.169C78.6 225.493 82.2644 225.481 84.0049 225.985C84.1056 225.985 85.1889 226.47 85.8579 226.772C85.4849 226.535 85.1238 226.31 84.7508 226.061C83.999 225.576 83.2649 225.067 82.4776 224.528L81.3468 223.693C80.968 223.421 80.595 223.101 80.2161 222.782C79.3459 222.06 78.4993 221.29 77.6646 220.491C77.2384 221.142 75.6873 223.451 74.5448 224.185C73.4022 224.919 71.7505 225.541 70.4008 225.049C70.0799 224.944 69.7846 224.773 69.5343 224.547C69.284 224.32 69.0842 224.044 68.9479 223.735C68.8116 223.426 68.742 223.092 68.7434 222.754C68.7448 222.417 68.8174 222.083 68.9563 221.775C69.8443 219.946 73.4614 219.378 75.2611 219.626C75.3736 219.626 76.6404 219.97 77.3331 220.165C76.8358 219.68 76.3385 219.2 75.8472 218.691C74.4382 217.229 73.0588 215.731 71.7032 214.192L70.4244 212.813C70.2764 213.049 68.4945 215.826 67.2099 216.655C66.0732 217.389 64.4216 218.01 63.0659 217.519C62.745 217.414 62.4498 217.243 62.1994 217.016C61.9491 216.79 61.7493 216.513 61.613 216.204C61.4768 215.896 61.4071 215.561 61.4085 215.224C61.41 214.886 61.4825 214.553 61.6214 214.245C62.5035 212.416 66.1265 211.848 67.9203 212.096C68.0564 212.096 69.8798 212.588 70.3416 212.73C69.4003 211.717 68.4531 210.723 67.4822 209.77C66.1797 208.486 64.7955 207.287 63.3382 206.182C63.2672 206.289 61.4201 209.195 60.1118 210.042C58.9692 210.776 57.3176 211.398 55.9678 210.906C55.6417 210.808 55.3402 210.641 55.0833 210.418C54.8264 210.194 54.6201 209.918 54.4779 209.608C54.3357 209.299 54.2609 208.963 54.2586 208.622C54.2562 208.281 54.3263 207.944 54.4641 207.633C55.3462 205.803 58.9692 205.235 60.763 205.489C60.8814 205.489 62.2726 205.862 62.9297 206.046L62.983 205.939C61.4891 204.871 59.9043 203.936 58.247 203.145C57.3353 202.701 56.471 202.328 55.5593 201.961C55.2692 202.553 53.9195 205.158 52.8243 206.052C51.7291 206.946 50.2017 207.709 48.8046 207.366C48.4758 207.295 48.1655 207.156 47.894 206.957C47.6224 206.758 47.3956 206.505 47.2282 206.213C47.0608 205.921 46.9565 205.597 46.9221 205.263C46.8878 204.928 46.924 204.59 47.0286 204.27C47.7035 202.358 51.2436 201.393 53.0552 201.446C53.1558 201.446 54.1504 201.588 54.8785 201.701C54.4819 201.553 54.0675 201.393 53.6945 201.257C52.2441 200.742 50.8884 200.357 49.6867 200.031C49 199.854 48.3724 199.7 47.7864 199.564C47.1944 199.984 44.8264 201.641 43.4944 201.932C42.1624 202.222 40.4041 202.186 39.3504 201.245C39.0933 201.031 38.8836 200.766 38.7346 200.466C38.5856 200.167 38.5006 199.839 38.485 199.505C38.4694 199.171 38.5236 198.838 38.644 198.525C38.7645 198.213 38.9486 197.93 39.1846 197.693C40.6705 196.308 44.2521 197.101 45.8387 197.959C45.9748 198.036 47.9817 199.475 47.9521 199.498H47.9166C48.481 199.617 49.0907 199.753 49.7459 199.907C50.9299 200.215 52.3329 200.564 53.7952 201.049C55.3801 201.549 56.9339 202.142 58.4483 202.825C60.148 203.582 61.7766 204.49 63.3145 205.537L63.3678 205.578C63.0067 205.111 62.024 203.761 61.9648 203.648C61.0708 202.074 60.2716 198.492 61.6451 197C61.88 196.762 62.1622 196.575 62.4734 196.452C62.7846 196.329 63.1181 196.273 63.4525 196.286C63.7868 196.3 64.1147 196.383 64.4151 196.53C64.7156 196.678 64.9819 196.886 65.1971 197.142C66.1502 198.22 66.1798 199.984 65.9134 201.286C65.6115 202.79 63.6756 205.478 63.5454 205.691C65.0842 206.796 66.5477 208.002 67.9262 209.302C68.7313 210.054 69.5246 210.835 70.2942 211.634C69.9923 211.22 69.7022 210.841 69.7022 210.788C68.8083 209.207 68.0091 205.632 69.3884 204.134C69.6238 203.896 69.9063 203.71 70.2177 203.587C70.5292 203.465 70.8628 203.409 71.1972 203.423C71.5315 203.437 71.8593 203.52 72.1595 203.668C72.4597 203.816 72.7257 204.025 72.9404 204.282C73.8936 205.353 73.9232 207.117 73.6568 208.426C73.3904 209.734 71.7742 212.096 71.342 212.706L72.236 213.629C73.6568 215.115 75.0657 216.589 76.4924 218.016C76.9956 218.519 77.5048 218.993 78.0198 219.467C77.7534 219.1 77.5284 218.786 77.4988 218.733C76.6049 217.152 75.8057 213.576 77.1851 212.084C77.4201 211.846 77.7022 211.66 78.0134 211.537C78.3246 211.414 78.6581 211.357 78.9925 211.37C79.3269 211.384 79.6547 211.467 79.9552 211.614C80.2556 211.762 80.5219 211.97 80.7371 212.226C81.6843 213.298 81.7139 215.068 81.4475 216.37C81.1811 217.673 79.7248 219.816 79.2156 220.544C79.7544 221.012 80.2931 221.485 80.8377 221.917C81.2166 222.208 81.56 222.509 81.9566 222.776L83.0992 223.587C83.851 224.072 84.6147 224.581 85.3606 225.037C85.8697 225.363 86.367 225.629 86.8643 225.961C86.3611 225.469 85.3902 224.487 85.3192 224.392C84.379 223.103 83.7839 221.595 83.5905 220.011C83.4809 219.872 83.3839 219.723 83.3004 219.567C83.1326 219.274 83.0283 218.949 82.9945 218.613C82.9606 218.277 82.998 217.938 83.1041 217.617C83.2103 217.296 83.3828 217.002 83.6104 216.752C83.838 216.503 84.1157 216.304 84.4252 216.169C86.3078 215.405 89.3744 217.418 90.5347 218.809C90.6057 218.892 91.251 219.869 91.6476 220.491C91.47 220.088 91.2924 219.703 91.1148 219.307C90.7596 218.484 90.4281 217.661 90.067 216.773L89.5875 215.453C89.4158 215.015 89.2915 214.529 89.1376 214.068C88.812 212.984 88.5456 211.871 88.2792 210.746C87.5628 211.054 84.9995 212.126 83.6379 212.108C82.2763 212.09 80.5595 211.7 79.707 210.545C79.4934 210.28 79.3383 209.973 79.2519 209.644C79.1655 209.315 79.1498 208.972 79.2057 208.636C79.2616 208.301 79.388 207.981 79.5764 207.698C79.7648 207.414 80.0111 207.174 80.299 206.993C82.075 205.957 85.3843 207.479 86.74 208.68C86.8288 208.757 87.7049 209.728 88.1785 210.267C88.0305 209.592 87.8766 208.911 87.7523 208.225C87.3793 206.224 87.0715 204.193 86.7518 202.168C86.6512 201.547 86.5446 200.931 86.444 200.309C86.1894 200.428 83.1702 201.76 81.6488 201.742C80.2931 201.742 78.5704 201.334 77.7179 200.179C77.5043 199.914 77.3492 199.607 77.2628 199.278C77.1764 198.949 77.1606 198.606 77.2166 198.27C77.2725 197.935 77.3988 197.615 77.5873 197.332C77.7757 197.049 78.022 196.808 78.3099 196.627C80.0563 195.591 83.3892 197.113 84.7508 198.314C84.8515 198.403 86.1184 199.806 86.4203 200.173C86.1953 198.812 85.9585 197.462 85.6684 196.136C85.2878 194.343 84.7894 192.577 84.1766 190.849C84.0582 190.897 80.9147 192.306 79.3577 192.288C78.002 192.288 76.2793 191.879 75.4268 190.725C75.2124 190.461 75.0565 190.154 74.9695 189.824C74.8826 189.495 74.8666 189.151 74.9226 188.816C74.9785 188.48 75.1052 188.16 75.2942 187.877C75.4832 187.593 75.7302 187.354 76.0188 187.173C77.7652 186.137 81.0982 187.658 82.4598 188.86C82.5486 188.937 83.5136 190.003 83.9576 190.524L84.0582 190.465C83.3969 188.742 82.5826 187.081 81.6251 185.504C81.11 184.627 80.5713 183.822 80.0267 183.047C79.4702 183.366 76.9009 184.823 75.492 184.947C74.083 185.071 72.3899 184.882 71.4131 183.828C71.1786 183.589 70.9968 183.303 70.8793 182.989C70.7618 182.676 70.7112 182.341 70.7307 182.006C70.7502 181.672 70.8394 181.345 70.9926 181.047C71.1458 180.749 71.3596 180.487 71.6203 180.276C73.2424 179.051 76.7233 180.199 78.2092 181.241C78.2921 181.3 79.044 181.969 79.5886 182.461C79.34 182.117 79.0854 181.756 78.8368 181.431C77.9132 180.199 76.9897 179.134 76.1668 178.198C75.6932 177.665 75.2552 177.198 74.8408 176.76C74.1304 176.789 71.2532 176.872 69.9627 176.363C68.6721 175.854 67.2395 174.871 66.8606 173.486C66.7603 173.164 66.729 172.824 66.7686 172.489C66.8081 172.155 66.9177 171.832 67.0903 171.542C67.2628 171.252 67.4944 171.002 67.77 170.807C68.0456 170.613 68.359 170.479 68.6899 170.413C70.6968 170.076 73.2542 172.693 74.0948 174.309C74.1659 174.445 75.042 176.754 75.0065 176.754H74.9651C75.3676 177.168 75.8057 177.612 76.2675 178.109C77.114 179.027 78.0435 180.081 79.0144 181.289C80.0583 182.584 81.025 183.94 81.9092 185.35C82.9088 186.92 83.7667 188.576 84.4726 190.299C84.471 190.32 84.471 190.342 84.4726 190.364C84.4252 189.772 84.3542 188.102 84.3601 187.996C84.4844 186.184 85.7928 182.763 87.7641 182.271C88.0943 182.2 88.4356 182.2 88.7661 182.269C89.0966 182.338 89.4088 182.476 89.6828 182.674C89.9566 182.871 90.1861 183.124 90.3563 183.416C90.5265 183.707 90.6336 184.031 90.6708 184.367C90.8484 185.9 89.8953 187.386 88.9422 188.351Z" fill="#263238"/>
<path d="M153.891 285.694C192.399 285.694 223.617 254.476 223.617 215.968C223.617 177.459 192.399 146.242 153.891 146.242C115.382 146.242 84.165 177.459 84.165 215.968C84.165 254.476 115.382 285.694 153.891 285.694Z" fill="#263238" stroke="#263238" stroke-width="0.592" stroke-linecap="round" stroke-linejoin="round"/>
<path d="M153.89 277.649C187.956 277.649 215.571 250.033 215.571 215.968C215.571 181.903 187.956 154.288 153.89 154.288C119.825 154.288 92.21 181.903 92.21 215.968C92.21 250.033 119.825 277.649 153.89 277.649Z" fill="white"/>
<path opacity="0.2" d="M210.699 191.897C166.986 242.697 117.844 250.831 103.92 252.127C112.809 264.401 125.905 272.974 140.71 276.21C155.516 279.447 170.994 277.12 184.194 269.675C197.394 262.229 207.391 250.186 212.28 235.841C217.168 221.496 216.605 205.854 210.699 191.897Z" fill="black"/>
<path d="M154.986 215.85H179.548" stroke="#263238" stroke-width="2.96" stroke-linecap="round" stroke-linejoin="round"/>
<path d="M153.891 215.968V262.683" stroke="#263238" stroke-width="2.96" stroke-linecap="round" stroke-linejoin="round"/>
<path d="M153.891 219.336C155.751 219.336 157.259 217.828 157.259 215.968C157.259 214.107 155.751 212.599 153.891 212.599C152.031 212.599 150.522 214.107 150.522 215.968C150.522 217.828 152.031 219.336 153.891 219.336Z" fill="white" stroke="#263238" stroke-width="0.592" stroke-linecap="round" stroke-linejoin="round"/>
<path opacity="0.2" d="M170.863 148.113C170.863 148.113 170.336 154.139 166.672 157.022C163.007 159.905 161.427 160.693 161.427 160.693C162.233 165.28 162.672 169.924 162.741 174.581C162.741 181.389 160.787 186.261 160.906 187.942C161.024 189.624 161.427 196.586 161.166 198.681C160.906 200.777 160.379 206.283 158.023 208.118C155.667 209.953 152.257 205.75 152.257 205.75C152.257 205.75 152.784 219.899 152.784 223.569C152.784 227.239 149.64 230.904 148.048 228.305C146.455 225.706 146.739 220.183 146.739 217.56C146.739 214.938 146.479 189.263 145.952 181.928C145.425 174.593 144.644 152.843 144.644 152.843L145.165 146.816C145.165 146.816 156.17 141.838 170.845 148.125" fill="black"/>
<path d="M146.082 206.2C145.959 208.42 145.524 210.612 144.791 212.712C143.501 216.767 142.944 224.333 145.342 225.44C147.74 226.547 151.061 223.226 151.061 220.828V215.5C151.061 213.842 151.801 211.261 151.617 209.414C151.434 207.567 148.112 205.306 146.082 206.2Z" fill="#00C29C" stroke="#263238" stroke-width="0.592" stroke-linecap="round" stroke-linejoin="round"/>
<path d="M168.59 122.295C168.59 122.295 169.324 130.583 170.247 132.626C171.171 134.668 178.914 148.118 178.914 148.118C178.914 148.118 178.547 151.078 179.104 151.623C179.66 152.168 182.425 155.128 182.425 155.128C182.425 155.128 182.975 155.868 183.526 155.495C183.925 155.096 184.185 154.579 184.266 154.021C185.105 154.259 185.983 154.321 186.847 154.204C188.327 154.021 188.138 150.149 187.587 149.592C187.037 149.036 181.152 145.721 181.152 145.721C181.152 145.721 177.837 129.488 176.913 127.831C176.263 126.428 175.828 124.935 175.623 123.402V121.372L168.59 122.295Z" fill="white" stroke="#263238" stroke-width="0.592" stroke-linecap="round" stroke-linejoin="round"/>
<path d="M184.266 154.021L182.425 150.883" stroke="#263238" stroke-width="0.592" stroke-linecap="round" stroke-linejoin="round"/>
<path d="M138.333 130.424C138.333 130.424 129.648 139.635 129.648 143.507C129.648 147.378 131.123 150.516 134.976 157.342C137.383 161.614 139.48 166.054 141.252 170.626C141.252 170.626 139.221 178.743 138.884 184.461C138.546 190.18 146.443 209.361 146.443 209.361C146.443 209.361 148.841 211.575 149.581 208.81C150.321 206.046 150.688 179.85 150.872 177.263C151.055 174.676 151.612 168.412 151.612 168.412L152.346 152.363C152.346 152.363 163.594 153.097 166.921 152.914C170.248 152.73 171.899 145.721 172.249 144.981C172.481 144.459 172.606 143.895 172.616 143.323C173.363 141.479 173.919 139.563 174.273 137.605C174.646 135.023 169.851 133.176 169.295 132.809C168.738 132.442 165.974 131.146 165.974 131.146L138.333 130.424Z" fill="white" stroke="#263238" stroke-width="0.592" stroke-linecap="round" stroke-linejoin="round"/>
<path d="M169.312 132.792C168.762 132.425 165.991 131.128 165.991 131.128L138.333 130.424C138.333 130.424 129.648 139.635 129.648 143.507C129.648 146.224 130.377 148.58 132.147 152.097C134.982 149.243 141.897 143.862 150.309 148.485C152.46 149.645 154.486 151.024 156.354 152.6C159.906 152.795 164.89 153.026 166.909 152.914C170.23 152.73 171.888 145.721 172.237 144.981C172.469 144.459 172.594 143.895 172.604 143.323C173.352 141.479 173.907 139.563 174.262 137.605C174.676 135.023 169.904 133.176 169.312 132.792Z" fill="#00C29C" stroke="#263238" stroke-width="0.592" stroke-linecap="round" stroke-linejoin="round"/>
<path d="M134.828 140.559C134.828 140.559 142.027 138.345 149.22 139.635" stroke="#263238" stroke-width="0.592" stroke-linecap="round" stroke-linejoin="round"/>
<path d="M139.812 141.293C142.485 141.266 145.13 141.835 147.556 142.956" stroke="#263238" stroke-width="0.592" stroke-linecap="round" stroke-linejoin="round"/>
<path d="M154.382 138.345C154.382 138.345 160.302 135.385 168.957 138.345" stroke="#263238" stroke-width="0.592" stroke-linecap="round" stroke-linejoin="round"/>
<path d="M148.16 95.4126C148.16 95.4126 134.384 96.1881 134.017 96.6794C133.65 97.1708 120.649 105.672 120.649 105.672L122.834 118.66L136.331 113.131C136.331 113.131 135.947 122.26 135.816 124.971C135.686 127.682 134.662 129.34 135.432 129.979C136.201 130.619 139.801 131.909 139.801 131.909H165.896C165.896 131.909 168.341 129.725 168.465 128.949C168.59 128.174 167.441 125.474 167.441 124.705V123.319C167.441 123.319 170.265 125.095 173.361 124.734C175.113 124.551 176.766 123.834 178.097 122.68C178.097 122.68 176.682 113.421 176.428 110.722C176.173 108.022 177.327 99.7993 176.552 99.5388C175.776 99.2783 163.83 96.8393 160.746 95.9394C157.661 95.0396 148.16 95.4126 148.16 95.4126Z" fill="#00C29C" stroke="#263238" stroke-width="0.592" stroke-linecap="round" stroke-linejoin="round"/>
<path d="M152.209 105.057C156.572 105.057 160.112 101.86 160.112 97.923C160.11 97.168 159.978 96.419 159.721 95.7089C155.956 95.1169 148.16 95.4129 148.16 95.4129C148.16 95.4129 146.703 95.4957 144.726 95.626C144.447 96.3597 144.302 97.1379 144.3 97.923C144.3 101.86 147.84 105.057 152.209 105.057Z" fill="white" stroke="#263238" stroke-width="0.592" stroke-linecap="round" stroke-linejoin="round"/>
<path d="M136.332 113.155L133.633 103.511" stroke="#263238" stroke-width="0.592" stroke-linecap="round" stroke-linejoin="round"/>
<path d="M136.202 111.994L132.218 105.571" stroke="#263238" stroke-width="0.592" stroke-linecap="round" stroke-linejoin="round"/>
<path d="M167.441 123.308L169.756 115.855L171.041 108.271" stroke="#263238" stroke-width="0.592" stroke-linecap="round" stroke-linejoin="round"/>
<path d="M170.396 113.925C170.396 113.925 172.172 110.195 173.356 107.371" stroke="#263238" stroke-width="0.592" stroke-linecap="round" stroke-linejoin="round"/>
<path d="M151.369 131.791C154.337 131.023 157.187 129.856 159.841 128.322" stroke="#263238" stroke-width="0.592" stroke-linecap="round" stroke-linejoin="round"/>
<path d="M155.868 129.476C155.868 129.476 158.313 127.7 161.267 125.238" stroke="#263238" stroke-width="0.592" stroke-linecap="round" stroke-linejoin="round"/>
<path d="M146.484 98.3726C146.664 97.6585 146.752 96.9244 146.745 96.1882C146.745 94.9035 145.561 90.5286 145.561 90.5286C145.561 90.5286 139.777 90.2741 139.392 89.5045C139.007 88.7349 140.162 81.8085 140.162 81.8085C140.162 81.8085 138.753 79.8786 138.753 79.2333C138.753 78.588 140.422 78.4637 141.192 77.9486C141.962 77.4336 143.376 76.664 143.376 76.0246C143.376 75.3853 145.561 73.7099 145.561 73.7099C145.561 73.7099 147.621 71.3952 152.375 72.1648C157.129 72.9344 160.473 77.0488 160.734 81.0448C160.994 85.0408 157.774 89.1434 157.519 90.6885C157.265 92.2336 157.644 95.833 158.159 96.9874" fill="white"/>
<path d="M146.484 98.3726C146.664 97.6585 146.752 96.9244 146.745 96.1882C146.745 94.9035 145.561 90.5286 145.561 90.5286C145.561 90.5286 139.777 90.2741 139.392 89.5045C139.007 88.7349 140.162 81.8085 140.162 81.8085C140.162 81.8085 138.753 79.8786 138.753 79.2333C138.753 78.588 140.422 78.4637 141.192 77.9486C141.962 77.4336 143.376 76.664 143.376 76.0246C143.376 75.3853 145.561 73.7099 145.561 73.7099C145.561 73.7099 147.621 71.3952 152.375 72.1648C157.129 72.9344 160.473 77.0488 160.734 81.0448C160.994 85.0408 157.774 89.1434 157.519 90.6885C157.265 92.2336 157.644 95.833 158.159 96.9874" stroke="#263238" stroke-width="0.592" stroke-linecap="round" stroke-linejoin="round"/>
<path d="M145.585 90.5288L148.385 90.292L146.064 92.4173L145.585 90.5288Z" fill="#263238" stroke="#263238" stroke-width="0.592" stroke-linecap="round" stroke-linejoin="round"/>
<path d="M144.815 74.3317C144.815 74.3317 142.761 69.4477 147.13 67.133C151.499 64.8183 158.313 68.6781 163.197 73.1773C168.081 77.6765 171.041 87.4445 170.011 89.7533C168.981 92.0621 159.355 94.8978 156.898 95.6733C154.441 96.4488 151.114 97.6032 150.86 96.7034C150.605 95.8036 148.93 76.7767 148.415 75.6223C147.9 74.4679 148.03 72.4077 144.815 74.3317Z" fill="#263238" stroke="#263238" stroke-width="0.592" stroke-linecap="round" stroke-linejoin="round"/>
<path d="M145.797 78.1061C146.043 77.6318 146.062 77.1547 145.841 77.0404C145.62 76.9261 145.242 77.2179 144.997 77.6922C144.751 78.1665 144.732 78.6437 144.953 78.758C145.174 78.8723 145.552 78.5804 145.797 78.1061Z" fill="#263238"/>
<path d="M140.831 83.5907C141.169 83.7813 141.555 83.8703 141.942 83.8473C142.33 83.8242 142.702 83.6899 143.016 83.4604" stroke="#263238" stroke-width="0.592" stroke-linecap="round" stroke-linejoin="round"/>
<path d="M144.945 75.7465C144.945 75.7465 146.36 74.5921 146.875 76.5161" stroke="#263238" stroke-width="0.592" stroke-linecap="round" stroke-linejoin="round"/>
<path d="M120.769 106.744L113.44 82.7083C113.44 82.7083 112.155 79.2333 110.995 77.8243C109.834 76.4154 108.035 74.0948 107.141 73.5797C106.247 73.0647 106.111 74.225 106.496 74.7637C106.88 75.3024 107.68 76.4332 108.171 77.0725C108.662 77.7119 108.686 79.9023 108.686 79.9023C108.686 79.9023 105.986 83.1168 107.011 84.1469C108.035 85.177 110.74 87.3555 110.74 87.3555C110.74 87.3555 113.955 111.781 114.085 113.836C114.112 114.389 114.316 114.918 114.667 115.346C115.017 115.775 115.496 116.079 116.033 116.216L122.077 114.801L120.769 106.744Z" fill="white" stroke="#263238" stroke-width="0.592" stroke-linecap="round" stroke-linejoin="round"/>
<path d="M108.437 78.8308L106.661 79.4761C106.661 79.4761 105.258 82.5071 105.258 83.1524C105.258 83.7977 106.661 84.7449 107.43 84.7449C108.2 84.7449 108.845 81.6606 108.845 81.6606L108.437 78.8308Z" fill="white" stroke="#263238" stroke-width="0.592" stroke-linecap="round" stroke-linejoin="round"/>
<path d="M105.513 82.3711C105.513 82.3711 107.076 83.5551 108.141 83.5551" stroke="#263238" stroke-width="0.592" stroke-linecap="round" stroke-linejoin="round"/>
<path d="M106.223 80.8081C106.441 81.2427 106.762 81.6182 107.156 81.9026C107.551 82.187 108.009 82.3721 108.49 82.442" stroke="#263238" stroke-width="0.592" stroke-linecap="round" stroke-linejoin="round"/>
<path d="M110.213 80.1039C110.213 80.1039 108.182 79.7191 107.537 80.1039C106.892 80.4887 104.968 81.5188 104.968 81.8799C104.968 82.241 105.868 82.6554 106.507 82.2706C106.832 82.0636 107.177 81.891 107.537 81.7556H108.336C108.441 82.4436 108.78 83.0746 109.295 83.5424C109.81 84.0103 110.471 84.2866 111.166 84.3248" fill="white"/>
<path d="M110.213 80.1039C110.213 80.1039 108.182 79.7191 107.537 80.1039C106.892 80.4887 104.968 81.5188 104.968 81.8799C104.968 82.241 105.868 82.6554 106.507 82.2706C106.832 82.0636 107.177 81.891 107.537 81.7556H108.336C108.441 82.4436 108.78 83.0746 109.295 83.5424C109.81 84.0103 110.471 84.2866 111.166 84.3248" stroke="#263238" stroke-width="0.592" stroke-linecap="round" stroke-linejoin="round"/>
<path d="M154.199 181.335V190.186C154.199 194.43 152.352 198.308 153.275 199.599C154.199 200.889 156.963 201.256 159.195 199.042C161.427 196.828 161.593 193.122 161.042 189.635C160.492 186.148 159.385 181.702 159.385 181.702C159.385 181.702 155.306 178.186 154.199 181.335Z" fill="#00C29C" stroke="#263238" stroke-width="0.592" stroke-linecap="round" stroke-linejoin="round"/>
<path d="M167.667 152.92C167.667 152.92 167.85 146.834 166.003 143.146C164.156 139.458 156.963 136.87 151.617 136.32C146.272 135.769 145.159 139.641 144.792 142.406C144.425 145.17 145.715 156.614 147.16 159.745C148.604 162.877 153.985 178.932 154.169 181.33C154.352 183.727 155.46 185.758 157.307 185.201C159.154 184.645 159.337 181.88 159.337 178.749C159.337 175.617 159.888 170.999 160.444 164.724C160.789 161.539 160.85 158.33 160.628 155.134C160.628 155.134 164.345 156.235 167.667 152.92Z" fill="white" stroke="#263238" stroke-width="0.592" stroke-linecap="round" stroke-linejoin="round"/>
<path d="M160.657 155.128C160.657 155.128 159.55 146.461 155.329 142.216" stroke="#263238" stroke-width="0.592" stroke-linecap="round" stroke-linejoin="round"/>
</g>
<defs>
<clipPath id="clip0_1_26">
<rect width="296" height="324.778" fill="white" transform="translate(0 0.944336)"/>
</clipPath>
</defs>
</svg>
