<svg width="332" height="332" viewBox="0 0 332 332" fill="none" xmlns="http://www.w3.org/2000/svg">
<path d="M91.4 72.3759C91.4 72.3759 59.8201 102.98 50.4644 137.7C41.1086 172.421 54.6409 208.868 86.4664 229.04C118.292 249.212 160.755 231.696 202.985 237.46C245.216 243.223 284.378 226.796 289.604 184.472C294.83 142.149 264.279 136.664 245.86 95.4964C227.44 54.3284 167.435 4.52842 91.4 72.3759Z" fill="#00C29C"/>
<path opacity="0.7" d="M91.4 72.3759C91.4 72.3759 59.8201 102.98 50.4644 137.7C41.1086 172.421 54.6409 208.868 86.4664 229.04C118.292 249.212 160.755 231.696 202.985 237.46C245.216 243.223 284.378 226.796 289.604 184.472C294.83 142.149 264.279 136.664 245.86 95.4964C227.44 54.3284 167.435 4.52842 91.4 72.3759Z" fill="white"/>
<path d="M169.638 294.059C240.415 294.059 297.79 283.868 297.79 271.297C297.79 258.726 240.415 248.535 169.638 248.535C98.8619 248.535 41.4863 258.726 41.4863 271.297C41.4863 283.868 98.8619 294.059 169.638 294.059Z" fill="#00C29C"/>
<path opacity="0.5" d="M169.638 294.059C240.415 294.059 297.79 283.868 297.79 271.297C297.79 258.726 240.415 248.535 169.638 248.535C98.8619 248.535 41.4863 258.726 41.4863 271.297C41.4863 283.868 98.8619 294.059 169.638 294.059Z" fill="white"/>
<path d="M295.308 153.603C295.308 153.603 295.308 150.814 291.404 146.903C287.499 142.992 284.983 140.768 284.983 140.768C284.983 140.768 283.031 147.182 286.656 151.093C289.32 153.838 292.207 156.357 295.288 158.623L295.308 153.603Z" fill="#00C29C"/>
<path d="M289.637 171.027C289.637 171.027 289.637 168.238 285.733 164.333C281.829 160.429 279.319 158.191 279.319 158.191C279.319 158.191 277.327 164.612 280.992 168.517C283.654 171.263 286.542 173.781 289.624 176.046L289.637 171.027Z" fill="#00C29C"/>
<path d="M295.062 158.357C295.062 158.357 295.355 155.582 299.657 152.109C303.96 148.636 306.682 146.684 306.682 146.684C306.682 146.684 307.951 153.271 303.927 156.77C300.983 159.219 297.84 161.418 294.531 163.344L295.062 158.357Z" fill="#00C29C"/>
<path d="M288.216 178.935C288.216 178.935 288.8 176.206 293.435 173.204C298.07 170.203 300.998 168.556 300.998 168.556C300.998 168.556 301.562 175.243 297.2 178.304C294.013 180.429 290.655 182.286 287.16 183.855L288.216 178.935Z" fill="#00C29C"/>
<path d="M289.504 201.371C289.504 201.371 289.504 198.576 293.408 194.671C297.313 190.767 299.822 188.536 299.822 188.536C299.822 188.536 301.775 194.95 298.149 198.855C295.488 201.604 292.6 204.125 289.517 206.391L289.504 201.371Z" fill="#00C29C"/>
<path d="M289.438 206.843C289.438 206.843 289.829 204.08 286.523 199.658C283.216 195.236 281.045 192.673 281.045 192.673C281.045 192.673 278.196 198.748 281.231 203.131C283.48 206.23 285.986 209.135 288.721 211.816L289.438 206.843Z" fill="#00C29C"/>
<path d="M285.587 223.104C285.587 223.104 285.587 220.315 289.491 216.411C293.396 212.507 295.905 210.276 295.905 210.276C295.905 210.276 297.864 216.69 294.232 220.594C291.571 223.344 288.683 225.865 285.6 228.131L285.587 223.104Z" fill="#00C29C"/>
<path d="M288.177 237.792C288.177 237.792 287.466 235.089 290.255 230.322C293.044 225.554 294.903 222.759 294.903 222.759C294.903 222.759 298.416 228.469 295.899 233.17C294.012 236.502 291.851 239.672 289.438 242.646L288.177 237.792Z" fill="#00C29C"/>
<path d="M295.66 152.886C295.465 155.792 295.108 158.685 294.591 161.551C293.05 169.519 289.186 174.672 287.646 181.883C286.105 189.094 290.534 198.37 289.345 207.626C288.157 216.882 284.558 222.028 285.587 228.21C286.616 234.392 292.141 251.716 292.141 251.716" stroke="#263238" stroke-width="0.75" stroke-linecap="round" stroke-linejoin="round"/>
<path d="M295.022 160.21L299.232 156.976" stroke="#263238" stroke-width="0.75" stroke-linecap="round" stroke-linejoin="round"/>
<path d="M295.221 156.491L293.455 153.357" stroke="#263238" stroke-width="0.75" stroke-linecap="round" stroke-linejoin="round"/>
<path d="M287.878 181.551C287.878 181.551 291.404 178.895 295.023 176.239" stroke="#263238" stroke-width="0.75" stroke-linecap="round" stroke-linejoin="round"/>
<path d="M289.452 175.555C287.734 172.332 285.699 169.289 283.376 166.471" stroke="#263238" stroke-width="0.75" stroke-linecap="round" stroke-linejoin="round"/>
<path d="M289.637 205.335C291.649 201.628 294.19 198.232 297.18 195.256" stroke="#263238" stroke-width="0.75" stroke-linecap="round" stroke-linejoin="round"/>
<path d="M288.954 209.253C287.885 206.736 286.608 204.313 285.136 202.009C283.084 198.974 282.785 198.583 282.785 198.583" stroke="#263238" stroke-width="0.75" stroke-linecap="round" stroke-linejoin="round"/>
<path d="M285.587 228.204C286.478 225.985 287.539 223.838 288.761 221.783C289.981 219.878 291.356 218.077 292.871 216.398" stroke="#263238" stroke-width="0.75" stroke-linecap="round" stroke-linejoin="round"/>
<path d="M289.465 242.646C289.262 240.53 289.626 238.398 290.521 236.47C291.988 233.628 293.655 229.91 294.339 228.443" stroke="#263238" stroke-width="0.75" stroke-linecap="round" stroke-linejoin="round"/>
<path d="M269.73 190.873C269.73 190.873 269.425 189.127 271.45 186.225C273.475 183.324 274.81 181.677 274.81 181.677C274.81 181.677 276.729 185.495 274.883 188.317C273.507 190.33 271.965 192.224 270.275 193.981L269.73 190.873Z" fill="#00C29C"/>
<path d="M275.176 201.192C275.176 201.192 274.877 199.446 276.902 196.544C278.927 193.642 280.255 191.996 280.255 191.996C280.255 191.996 282.181 195.807 280.328 198.636C278.953 200.647 277.411 202.539 275.72 204.293L275.176 201.192Z" fill="#00C29C"/>
<path d="M270.401 193.828C270.401 193.828 269.916 192.122 266.842 190.409C263.768 188.696 261.842 187.753 261.842 187.753C261.842 187.753 261.769 192.022 264.671 193.775C266.782 194.994 268.992 196.034 271.277 196.883L270.401 193.828Z" fill="#00C29C"/>
<path d="M276.928 205.986C276.928 205.986 276.264 204.339 273.031 202.965C269.797 201.59 267.785 200.867 267.785 200.867C267.785 200.867 268.157 205.116 271.225 206.564C273.454 207.551 275.762 208.35 278.124 208.954L276.928 205.986Z" fill="#00C29C"/>
<path d="M278.555 220.196C278.555 220.196 278.256 218.449 275.381 216.424C272.506 214.399 270.687 213.27 270.687 213.27C270.687 213.27 270.162 217.507 272.858 219.565C274.831 220.996 276.919 222.262 279.1 223.35L278.555 220.196Z" fill="#00C29C"/>
<path d="M279.192 223.622C279.192 223.622 278.641 221.935 280.241 218.801C281.842 215.667 282.897 213.828 282.897 213.828C282.897 213.828 285.341 217.327 283.913 220.401C282.84 222.59 281.585 224.684 280.162 226.663L279.192 223.622Z" fill="#00C29C"/>
<path d="M284.093 237.712C284.093 237.712 284.299 235.946 287.048 233.728C289.796 231.51 291.549 230.315 291.549 230.315C291.549 230.315 292.32 234.512 289.743 236.716C287.858 238.262 285.846 239.646 283.728 240.853L284.093 237.712Z" fill="#00C29C"/>
<path d="M283.369 233.383C283.369 233.383 283.063 231.636 280.195 229.611C277.326 227.586 275.5 226.457 275.5 226.457C275.5 226.457 274.976 230.694 277.671 232.745C279.642 234.182 281.73 235.45 283.913 236.537L283.369 233.383Z" fill="#00C29C"/>
<path d="M283.329 242.898C283.329 242.898 283.482 241.125 281.211 238.436C278.94 235.747 277.473 234.199 277.473 234.199C277.473 234.199 275.892 238.183 277.984 240.839C279.527 242.725 281.226 244.478 283.064 246.078L283.329 242.898Z" fill="#00C29C"/>
<path d="M269.432 190.469C269.872 192.267 270.409 194.04 271.039 195.781C272.878 200.614 275.853 203.423 277.605 207.779C279.358 212.135 277.605 218.403 279.332 224.107C281.058 229.811 283.9 232.613 283.927 236.597C283.953 240.581 282.38 251.656 282.38 251.656" stroke="#263238" stroke-width="0.75" stroke-linecap="round" stroke-linejoin="round"/>
<path d="M270.626 194.99L267.632 193.417" stroke="#263238" stroke-width="0.75" stroke-linecap="round" stroke-linejoin="round"/>
<path d="M270.096 192.673L270.866 190.521" stroke="#263238" stroke-width="0.75" stroke-linecap="round" stroke-linejoin="round"/>
<path d="M277.426 207.593C277.426 207.593 274.923 206.318 272.366 205.057" stroke="#263238" stroke-width="0.75" stroke-linecap="round" stroke-linejoin="round"/>
<path d="M275.7 203.788C276.497 201.665 277.469 199.613 278.609 197.653" stroke="#263238" stroke-width="0.75" stroke-linecap="round" stroke-linejoin="round"/>
<path d="M278.88 222.699C277.214 220.594 275.253 218.74 273.057 217.195" stroke="#263238" stroke-width="0.75" stroke-linecap="round" stroke-linejoin="round"/>
<path d="M279.757 225.096C280.153 223.401 280.69 221.742 281.364 220.136C282.32 218.011 282.466 217.739 282.466 217.739" stroke="#263238" stroke-width="0.75" stroke-linecap="round" stroke-linejoin="round"/>
<path d="M283.787 239.624C284.761 238.425 285.838 237.314 287.007 236.304C287.75 235.754 288.447 235.146 289.092 234.485" stroke="#263238" stroke-width="0.75" stroke-linecap="round" stroke-linejoin="round"/>
<path d="M283.927 236.597C283.126 235.303 282.227 234.073 281.238 232.918C280.266 231.857 279.209 230.878 278.077 229.99" stroke="#263238" stroke-width="0.75" stroke-linecap="round" stroke-linejoin="round"/>
<path d="M283.064 246.078C282.962 244.73 282.504 243.433 281.736 242.32C280.507 240.7 279.08 238.549 278.469 237.672" stroke="#263238" stroke-width="0.75" stroke-linecap="round" stroke-linejoin="round"/>
<path d="M277.446 250.222H296.496V260.069C296.496 260.508 296.322 260.928 296.012 261.238C295.702 261.548 295.282 261.722 294.843 261.722H279.1C278.661 261.722 278.241 261.548 277.931 261.238C277.62 260.928 277.446 260.508 277.446 260.069V250.222Z" fill="#263238" stroke="#263238" stroke-linecap="round" stroke-linejoin="round"/>
<path d="M53.2799 166.77C53.2799 166.77 53.2799 164.393 49.9599 161.073C46.6399 157.753 44.4886 155.854 44.4886 155.854C44.4886 155.854 42.8286 161.312 45.9095 164.632C48.1801 166.968 50.641 169.112 53.2666 171.04L53.2799 166.77Z" fill="#00C29C"/>
<path d="M48.4723 181.584C48.4723 181.584 48.4723 179.214 45.1523 175.894C41.8323 172.574 39.6809 170.648 39.6809 170.648C39.6809 170.648 38.021 176.099 41.1019 179.426C43.3748 181.771 45.8402 183.921 48.4723 185.854V181.584Z" fill="#00C29C"/>
<path d="M53.0742 170.807C53.0742 170.807 53.3199 168.45 56.9785 165.495C60.6371 162.541 62.9545 160.887 62.9545 160.887C62.9545 160.887 64.0302 166.485 60.6106 169.466C58.1141 171.547 55.4489 173.417 52.6426 175.057L53.0742 170.807Z" fill="#00C29C"/>
<path d="M47.2509 188.31C47.2509 188.31 47.7489 185.986 51.6864 183.437C55.6239 180.887 58.1206 179.453 58.1206 179.453C58.1206 179.453 58.5987 185.13 54.8869 187.733C52.1793 189.543 49.3252 191.125 46.3545 192.46L47.2509 188.31Z" fill="#00C29C"/>
<path d="M48.3461 207.387C48.3461 207.387 48.3461 205.017 51.6661 201.69C54.9861 198.363 57.1043 196.471 57.1043 196.471C57.1043 196.471 58.7643 201.929 55.6767 205.249C53.4112 207.588 50.9523 209.731 48.3262 211.657L48.3461 207.387Z" fill="#00C29C"/>
<path d="M48.286 212.042C48.286 212.042 48.6247 209.698 45.8093 205.933C42.994 202.168 41.1613 199.99 41.1613 199.99C41.1613 199.99 38.7444 205.156 41.3207 208.888C43.2357 211.523 45.368 213.992 47.6951 216.272L48.286 212.042Z" fill="#00C29C"/>
<path d="M45.0125 225.846C45.0125 225.846 45.0125 223.476 48.3325 220.149C51.6525 216.823 53.7839 214.93 53.7839 214.93C53.7839 214.93 55.4439 220.388 52.363 223.708C50.0924 226.044 47.6315 228.188 45.0059 230.116L45.0125 225.846Z" fill="#00C29C"/>
<path d="M47.2307 238.376C47.2307 238.376 46.6265 236.085 49.0036 232.028C51.3808 227.971 52.9876 225.594 52.9876 225.594C52.9876 225.594 55.9491 230.408 53.7844 234.432C52.1806 237.264 50.3438 239.958 48.2932 242.486L47.2307 238.376Z" fill="#00C29C"/>
<path d="M53.5786 166.159C53.4132 168.631 53.1095 171.092 52.6689 173.53C51.3409 180.309 48.074 184.685 46.766 190.794C45.4579 196.903 49.2228 204.817 48.2135 212.706C47.2042 220.594 44.1365 224.95 45.013 230.202C45.8895 235.454 50.5906 250.195 50.5906 250.195" stroke="#263238" stroke-width="0.75" stroke-linecap="round" stroke-linejoin="round"/>
<path d="M53.041 172.388L56.62 169.639" stroke="#263238" stroke-width="0.75" stroke-linecap="round" stroke-linejoin="round"/>
<path d="M53.2067 169.221L51.7061 166.558" stroke="#263238" stroke-width="0.75" stroke-linecap="round" stroke-linejoin="round"/>
<path d="M46.9648 190.568C46.9648 190.568 49.9595 188.317 53.0404 186.073" stroke="#263238" stroke-width="0.75" stroke-linecap="round" stroke-linejoin="round"/>
<path d="M48.2995 185.435C46.8476 182.697 45.1259 180.11 43.1602 177.713" stroke="#263238" stroke-width="0.75" stroke-linecap="round" stroke-linejoin="round"/>
<path d="M48.4727 210.76C50.1846 207.607 52.3452 204.72 54.8869 202.188" stroke="#263238" stroke-width="0.75" stroke-linecap="round" stroke-linejoin="round"/>
<path d="M47.8749 214.093C46.9677 211.953 45.8838 209.892 44.6346 207.932C42.8816 205.349 42.6426 205.017 42.6426 205.017" stroke="#263238" stroke-width="0.75" stroke-linecap="round" stroke-linejoin="round"/>
<path d="M45.0127 230.202C45.7727 228.318 46.6739 226.493 47.7085 224.744C48.748 223.126 49.9183 221.596 51.2078 220.169" stroke="#263238" stroke-width="0.75" stroke-linecap="round" stroke-linejoin="round"/>
<path d="M48.3127 242.486C48.1389 240.687 48.4483 238.874 49.2091 237.234C50.4574 234.817 51.8651 231.656 52.4561 230.408" stroke="#263238" stroke-width="0.75" stroke-linecap="round" stroke-linejoin="round"/>
<path d="M31.5267 198.463C31.5267 198.463 31.2743 196.976 32.9941 194.532C34.7139 192.089 35.8493 190.668 35.8493 190.668C35.8493 190.668 37.4827 193.908 35.9091 196.325C34.7399 198.036 33.4294 199.647 31.9915 201.139L31.5267 198.463Z" fill="#00C29C"/>
<path d="M36.1622 207.234C36.1622 207.234 35.9033 205.747 37.6297 203.303C39.3561 200.86 40.4849 199.432 40.4849 199.432C40.4849 199.432 42.1183 202.679 40.5446 205.096C39.3755 206.808 38.065 208.418 36.627 209.91L36.1622 207.234Z" fill="#00C29C"/>
<path d="M32.0981 200.973C32.0981 200.973 31.6864 199.525 29.0769 198.071C26.4674 196.617 24.8273 195.827 24.8273 195.827C24.8273 195.827 24.7609 199.452 27.2244 200.953C29.0197 201.993 30.8987 202.881 32.8418 203.609L32.0981 200.973Z" fill="#00C29C"/>
<path d="M37.6487 211.318C37.6487 211.318 37.0843 209.917 34.3287 208.742C31.5731 207.566 29.8799 206.956 29.8799 206.956C29.8799 206.956 30.1986 210.574 32.8081 211.803C34.7025 212.644 36.6637 213.326 38.6712 213.841L37.6487 211.318Z" fill="#00C29C"/>
<path d="M39.0368 223.396C39.0368 223.396 38.7779 221.909 36.3344 220.189C33.8908 218.469 32.3504 217.533 32.3504 217.533C32.3504 217.533 31.8723 221.112 34.1896 222.858C35.8682 224.077 37.645 225.154 39.5016 226.079L39.0368 223.396Z" fill="#00C29C"/>
<path d="M39.575 226.311C39.575 226.311 39.1102 224.877 40.4648 222.214C41.8194 219.552 42.7423 217.985 42.7423 217.985C42.7423 217.985 44.8206 220.959 43.6055 223.575C42.6938 225.432 41.6276 227.209 40.4183 228.887L39.575 226.311Z" fill="#00C29C"/>
<path d="M43.7447 238.316C43.7447 238.316 43.9173 236.816 46.2613 234.956C48.6052 233.097 50.0859 232.055 50.0859 232.055C50.0859 232.055 50.7499 235.62 48.5521 237.499C46.9471 238.818 45.2346 239.999 43.4326 241.032L43.7447 238.316Z" fill="#00C29C"/>
<path d="M43.1599 234.611C43.1599 234.611 42.901 233.124 40.4574 231.404C38.0139 229.684 36.4734 228.748 36.4734 228.748C36.4734 228.748 36.0219 232.354 38.3194 234.1C39.9972 235.319 41.7741 236.397 43.6314 237.32L43.1599 234.611Z" fill="#00C29C"/>
<path d="M43.0943 242.699C43.0943 242.699 43.2204 241.198 41.2948 238.907C39.3692 236.616 38.1143 235.308 38.1143 235.308C38.1143 235.308 36.7863 238.675 38.5459 240.952C39.8603 242.555 41.3062 244.046 42.8685 245.408L43.0943 242.699Z" fill="#00C29C"/>
<path d="M31.2744 198.118C31.65 199.648 32.1066 201.158 32.6423 202.64C34.2027 206.75 36.7391 209.133 38.2265 212.839C39.7139 216.544 38.2265 221.896 39.6939 226.723C41.1614 231.55 43.5783 233.96 43.5983 237.347C43.6182 240.733 42.2703 250.155 42.2703 250.155" stroke="#263238" stroke-width="0.75" stroke-linecap="round" stroke-linejoin="round"/>
<path d="M32.2912 201.962L29.748 200.628" stroke="#263238" stroke-width="0.75" stroke-linecap="round" stroke-linejoin="round"/>
<path d="M31.8457 199.997L32.4964 198.164" stroke="#263238" stroke-width="0.75" stroke-linecap="round" stroke-linejoin="round"/>
<path d="M38.0742 212.679C38.0742 212.679 35.9494 211.597 33.7715 210.521" stroke="#263238" stroke-width="0.75" stroke-linecap="round" stroke-linejoin="round"/>
<path d="M36.6064 209.446C37.2866 207.641 38.115 205.895 39.0832 204.227" stroke="#263238" stroke-width="0.75" stroke-linecap="round" stroke-linejoin="round"/>
<path d="M39.3294 225.528C37.9107 223.748 36.2423 222.182 34.376 220.88" stroke="#263238" stroke-width="0.75" stroke-linecap="round" stroke-linejoin="round"/>
<path d="M40.0527 227.553C40.3915 226.112 40.849 224.702 41.4206 223.336C42.2373 221.53 42.3568 221.291 42.3568 221.291" stroke="#263238" stroke-width="0.75" stroke-linecap="round" stroke-linejoin="round"/>
<path d="M43.4854 239.917C44.3112 238.892 45.2267 237.943 46.221 237.081C46.8525 236.614 47.4454 236.097 47.9939 235.534" stroke="#263238" stroke-width="0.75" stroke-linecap="round" stroke-linejoin="round"/>
<path d="M43.5984 237.347C42.9187 236.247 42.1551 235.202 41.3142 234.22C40.4988 233.316 39.6104 232.481 38.6582 231.723" stroke="#263238" stroke-width="0.75" stroke-linecap="round" stroke-linejoin="round"/>
<path d="M42.868 245.408C42.7785 244.26 42.3868 243.155 41.7326 242.207C40.6901 240.833 39.455 239 38.957 238.283" stroke="#263238" stroke-width="0.75" stroke-linecap="round" stroke-linejoin="round"/>
<path d="M37.0781 250.222H56.1283V260.069C56.1283 260.288 56.0847 260.506 55.9999 260.708C55.9152 260.91 55.791 261.094 55.6347 261.248C55.4783 261.402 55.2929 261.523 55.0892 261.604C54.8856 261.686 54.6677 261.726 54.4484 261.722H38.7315C38.293 261.722 37.8724 261.548 37.5624 261.238C37.2523 260.928 37.0781 260.508 37.0781 260.069V250.222Z" fill="#263238" stroke="#263238" stroke-linecap="round" stroke-linejoin="round"/>
<path d="M218.549 126.824C216.225 129.717 214.647 133.138 213.954 136.784C212.732 142.979 209.725 154.619 210.103 158.656C210.481 162.693 211.431 164.944 215.076 165.602C218.722 166.259 220.8 163.065 221.557 160.343C222.037 158.551 222.411 156.733 222.679 154.898L223.429 140.104C223.429 140.104 222.101 131.213 221.471 129.341C220.84 127.468 218.549 126.824 218.549 126.824Z" fill="#00C29C" stroke="#263238" stroke-linecap="round" stroke-linejoin="round"/>
<path d="M267.379 123.863C267.379 123.863 268.707 123.57 269.969 128.179C271.231 132.787 272.751 139.4 275.241 147.554C277.731 155.708 278.216 158.397 278.023 160.217C277.831 162.036 276.397 164.054 271.383 164.054C266.37 164.054 264.079 162.135 262.751 157.819C261.423 153.503 261.616 140.17 261.523 138.444C261.43 136.718 265.839 122.999 267.379 123.863Z" fill="#00C29C" stroke="#263238" stroke-linecap="round" stroke-linejoin="round"/>
<path d="M233.131 267.087C233.131 267.087 229.87 270.54 227.952 272.751C226.033 274.962 225.362 276.297 228.523 277.638C231.683 278.98 236.584 276.974 238.024 274.763C239.465 272.552 242.533 270.062 242.533 270.062C242.533 270.062 244.16 268.243 242.048 265.653C239.937 263.063 234.087 266.032 233.131 267.087Z" fill="white" stroke="#263238" stroke-linecap="round" stroke-linejoin="round"/>
<path d="M252.698 269.969C252.698 269.969 255.959 270.447 257.685 271.961C259.411 273.475 265.46 276.855 269.484 275.221C273.508 273.588 270.925 270.905 268.721 268.986C267.482 267.888 266.131 266.924 264.69 266.111C264.69 266.111 258.263 265.633 255.394 267.067C252.526 268.502 252.698 269.969 252.698 269.969Z" fill="white" stroke="#263238" stroke-linecap="round" stroke-linejoin="round"/>
<path d="M229.386 225.355C229.386 225.355 230.926 236.869 230.156 240.321C229.386 243.774 227.181 245.793 228.828 249.153C230.047 251.75 230.939 254.489 231.484 257.307C231.676 258.455 230.621 258.741 231.484 259.963C232.113 260.75 232.629 261.622 233.018 262.552C233.018 262.844 231.869 264.471 231.869 264.856C231.869 265.241 232.447 267.638 232.447 267.638C232.447 267.638 235.514 266.974 237.719 267.831C239.316 268.519 240.829 269.388 242.227 270.421C242.227 270.421 244.219 269.65 244.916 268.502C245.292 267.9 245.52 267.217 245.58 266.51C245.673 266.124 246.636 264.106 246.543 262.572C246.45 261.038 245.388 257.778 245.388 255.859C245.388 253.94 246.829 251.829 246.829 248.761C246.829 245.693 245.388 226.026 245.388 226.026L246.716 225.541C246.716 225.541 248.827 237.247 248.827 242.718C248.827 248.19 247.201 254.996 248.256 256.337C249.312 257.678 250.554 258.834 250.554 259.119C250.554 259.405 249.306 261.516 249.598 262.572C250.053 263.959 250.437 265.369 250.746 266.795C250.746 267.373 251.802 269.577 252.665 269.962C253.529 270.348 253.993 269.478 259.093 268.429C264.192 267.379 267.061 267.658 266.576 266.124C266.091 264.591 265.62 262.572 265.042 262.187C264.465 261.802 265.235 261.523 265.042 260.082C264.85 258.641 263.794 257.107 262.838 254.803C261.882 252.499 263.216 250.009 263.601 247.606C263.987 245.202 263.409 241.63 262.453 237.725C261.497 233.821 262.353 224.2 262.353 224.2L262.838 220.461C262.838 220.461 248.157 221.789 239.14 221.703L229.452 221.61C229.452 221.61 228.814 222.287 229.386 225.355Z" fill="#263238" stroke="#263238" stroke-linecap="round" stroke-linejoin="round"/>
<path d="M266.61 185.256C266.61 185.256 267.938 202.719 269.677 211.816C270.678 216.95 271.313 222.149 271.576 227.373H264.598C264.305 227.373 265.076 195.043 265.262 192.181C265.515 189.839 265.966 187.522 266.61 185.256Z" fill="#00C29C" stroke="#263238" stroke-linecap="round" stroke-linejoin="round"/>
<path d="M237.712 114.208C237.712 114.208 229.558 119.673 225.341 121.592C221.125 123.511 218.814 126.007 218.529 126.904C218.243 127.8 223.13 141.578 223.13 141.578C223.13 141.578 222.845 187.148 222.845 194.824C222.845 202.5 220.448 225.614 220.733 225.614C221.019 225.614 228.701 230.607 239.245 230.893C249.79 231.178 253.189 229.644 256.509 229.644C259.829 229.644 266.469 229.644 266.582 228.688C266.695 227.732 266.775 206.524 266.868 196.644C266.961 186.763 267.06 179.758 266.868 178.131C266.675 176.505 263.993 141.386 263.993 141.386C263.993 141.386 265.985 135.536 267.16 130.835C268.335 126.133 268.309 125.556 266.868 123.451C265.427 121.346 254.617 115.609 252.698 114.872C250.34 114.047 247.885 113.531 245.394 113.338C243.588 113.212 237.712 114.208 237.712 114.208Z" fill="#00C29C" stroke="#263238" stroke-linecap="round" stroke-linejoin="round"/>
<path d="M219.698 153.218C219.698 153.218 220.946 156.093 222.48 157.341C224.014 158.59 227.566 159.167 228.33 161.086C229.093 163.005 228.33 164.44 227.466 166.744C226.603 169.048 227.088 172.886 223.921 173.384C220.753 173.882 219.797 172.72 217.201 170.887C214.605 169.054 212.985 168.776 211.451 165.993C209.917 163.211 209.459 159.353 210.787 157.268" fill="#00C29C"/>
<path d="M219.698 153.218C219.698 153.218 220.946 156.093 222.48 157.341C224.014 158.59 227.566 159.167 228.33 161.086C229.093 163.005 228.33 164.44 227.466 166.744C226.603 169.048 227.088 172.886 223.921 173.384C220.753 173.882 219.797 172.72 217.201 170.887C214.605 169.054 212.985 168.776 211.451 165.993C209.917 163.211 209.459 159.353 210.787 157.268" stroke="#263238" stroke-linecap="round" stroke-linejoin="round"/>
<path d="M237.353 110.43L237.047 118.491C237.047 118.491 236.284 119.639 240.885 119.925C243.843 120.08 246.809 119.857 249.71 119.261L248.946 110.536C248.946 110.536 244.146 112.528 241.363 111.592C240.059 111.101 238.718 110.712 237.353 110.43Z" fill="white" stroke="#263238" stroke-linecap="round" stroke-linejoin="round"/>
<path d="M235.527 108.418C235.527 108.418 234.863 117.714 234.378 120.503C233.893 123.292 233.993 125.011 235.042 125.682C236.091 126.353 242.233 128.756 245.401 128.564C248.568 128.371 253.369 125.489 253.747 124.626C254.126 123.763 250.879 110.224 250.879 110.224L250.394 110.802C250.394 110.802 251.257 117.9 250.972 118.106C250.686 118.312 239.557 117.528 237.539 117.442C235.52 117.355 236.105 117.249 236.105 117.249L236.005 109.095L235.527 108.418Z" fill="white" stroke="#263238" stroke-linecap="round" stroke-linejoin="round"/>
<path d="M235.222 119.48C235.222 119.48 245.706 121.027 251.994 119.812" stroke="#263238" stroke-width="0.5" stroke-miterlimit="10"/>
<path d="M234.783 121.91C234.783 121.91 242.087 124.998 251.994 122.236" stroke="#263238" stroke-width="0.5" stroke-miterlimit="10"/>
<path d="M235.554 124.779C235.554 124.779 242.506 128.53 251.994 124.553" stroke="#263238" stroke-width="0.5" stroke-miterlimit="10"/>
<path d="M252.512 98.6305C252.751 95.6823 252.951 92.6545 252.22 91.1472C251.072 88.7502 247.612 85.968 242.625 86.1606C237.639 86.3531 233.416 88.2721 233.515 94.4075C233.515 94.4075 233.728 96.2335 233.974 98.4712C233.517 99.4483 233.357 100.538 233.515 101.605C233.67 102.629 234.029 103.611 234.571 104.494C234.618 105.065 234.651 105.556 234.664 105.921C234.757 108.511 236.483 111.579 238.024 112.634C239.564 113.69 242.433 115.323 244.259 115.323C246.085 115.323 249.338 113.597 250.899 111.1C252.107 109.108 252.227 107.78 252.227 105.437H252.32C252.595 104.205 252.757 102.952 252.805 101.692C252.844 100.663 252.746 99.6333 252.512 98.6305Z" fill="white" stroke="#263238" stroke-linecap="round" stroke-linejoin="round"/>
<path d="M234.392 99.2083C234.392 99.2083 234.677 101.605 235.155 101.506C235.633 101.406 236.211 97.96 236.211 97.96L234.392 99.2083Z" fill="#263238" stroke="#263238" stroke-linecap="round" stroke-linejoin="round"/>
<path d="M250.687 98.936C250.687 98.936 250.687 101.625 251.351 102.01C252.015 102.395 252.499 99.7063 252.499 99.7063C251.955 99.326 251.338 99.0636 250.687 98.936Z" fill="#263238" stroke="#263238" stroke-linecap="round" stroke-linejoin="round"/>
<path d="M252.22 91.1472C251.071 88.7502 247.612 85.968 242.625 86.1606C237.638 86.3531 233.415 88.2721 233.515 94.4075C233.515 94.4075 233.728 96.2335 233.973 98.4712C233.671 99.1199 233.497 99.8212 233.462 100.536C235.328 99.0422 238.82 96.9041 243.203 97.2892C246.613 97.6779 249.891 98.8333 252.791 100.669C252.761 99.9824 252.667 99.3 252.512 98.6305C252.751 95.6823 252.984 92.6744 252.22 91.1472Z" fill="#00C29C" stroke="#263238" stroke-linecap="round" stroke-linejoin="round"/>
<path d="M241.955 100.928L241.377 104.381C241.377 104.381 240.321 104.474 240.713 105.144C241.105 105.815 243.11 106.585 244.073 106.3C245.036 106.014 245.992 105.051 245.892 104.666C245.863 104.551 245.803 104.446 245.719 104.362C245.635 104.278 245.529 104.218 245.414 104.188L244.166 100.636" stroke="#263238" stroke-linecap="round" stroke-linejoin="round"/>
<path d="M240.899 108.033C242.742 108.43 244.654 108.364 246.464 107.84" stroke="#263238" stroke-linecap="round" stroke-linejoin="round"/>
<path d="M239.843 100.789C239.843 101.293 239.584 101.698 239.265 101.698C238.947 101.698 238.694 101.293 238.694 100.789C238.694 100.284 238.953 99.8789 239.265 99.8789C239.577 99.8789 239.843 100.264 239.843 100.789Z" fill="#263238"/>
<path d="M247.134 100.742C247.134 101.247 246.875 101.652 246.563 101.652C246.251 101.652 245.985 101.247 245.985 100.742C245.985 100.237 246.244 99.8323 246.563 99.8323C246.882 99.8323 247.134 100.264 247.134 100.742Z" fill="#263238"/>
<path d="M237.639 99.4006C237.639 99.4006 238.303 97.7672 240.421 98.3449" stroke="#263238" stroke-linecap="round" stroke-linejoin="round"/>
<path d="M244.737 98.4381C244.737 98.4381 246.729 96.9972 248.19 99.4938" stroke="#263238" stroke-linecap="round" stroke-linejoin="round"/>
<path d="M226.603 165.21C226.603 165.21 232.46 166.538 233.801 166.266C235.559 165.937 237.169 165.064 238.402 163.769C240.135 162.043 241.57 160.602 241.57 162.043C241.576 162.611 241.468 163.175 241.254 163.702C241.04 164.229 240.723 164.707 240.321 165.11C239.657 165.88 238.402 166.744 238.117 167.992C237.831 169.24 238.217 170.196 239.75 170.774C241.284 171.352 246.078 172.208 246.078 173.43C246.078 174.652 245.693 177.56 243.967 178.516C242.24 179.473 238.024 178.802 238.024 178.802C238.024 178.802 241.477 180.721 240.806 181.206C240.135 181.69 238.117 181.013 237.161 180.15C236.205 179.287 235.833 179.187 233.031 177.175C230.229 175.163 227.851 172.759 226.51 171.996C225.783 171.656 225.112 171.208 224.518 170.668C223.748 170.004 223.462 168.676 224.033 167.122C224.228 166.662 224.516 166.247 224.88 165.904C225.243 165.561 225.674 165.298 226.145 165.13L226.603 165.21Z" fill="white" stroke="#263238" stroke-linecap="round" stroke-linejoin="round"/>
<path d="M272.174 154.274C272.174 154.274 265.268 155.602 264.598 156.093C263.927 156.584 264.598 158.59 264.598 158.59C264.598 158.59 258.741 161.372 256.537 162.906C254.332 164.44 256.344 167.514 256.444 167.892C256.444 167.892 258.17 173.556 261.045 175.475C263.92 177.394 266.895 176.717 269.777 173.649C272.659 170.582 274.478 166.345 275.819 164.918C277.161 163.49 278.601 162.135 278.123 158.942C277.645 155.748 275.149 155.389 275.149 155.389" fill="#00C29C"/>
<path d="M272.174 154.274C272.174 154.274 265.268 155.602 264.598 156.093C263.927 156.584 264.598 158.59 264.598 158.59C264.598 158.59 258.741 161.372 256.537 162.906C254.332 164.44 256.344 167.514 256.444 167.892C256.444 167.892 258.17 173.556 261.045 175.475C263.92 177.394 266.895 176.717 269.777 173.649C272.659 170.582 274.478 166.345 275.819 164.918C277.161 163.49 278.601 162.135 278.123 158.942C277.645 155.748 275.149 155.389 275.149 155.389" stroke="#263238" stroke-linecap="round" stroke-linejoin="round"/>
<path d="M258.07 166.936C258.07 166.936 253.661 168.085 252.413 168.185C251.164 168.284 250.972 168.47 250.208 167.892C249.445 167.315 245.886 165.236 244.232 163.291C242.579 161.345 241.351 160.987 241.543 162.043C241.736 163.098 241.351 163.862 242.506 164.632C243.661 165.402 244.803 167.514 244.803 168.377C244.803 169.24 244.71 169.526 242.313 170.369C239.916 171.212 234.445 172.288 235.009 172.959C235.574 173.629 236.736 173.822 237.984 173.729C239.232 173.636 244.412 172.866 244.79 173.151C244.915 173.279 245.009 173.434 245.063 173.605C245.117 173.775 245.131 173.956 245.104 174.133C245.076 174.309 245.007 174.477 244.903 174.623C244.799 174.768 244.663 174.887 244.505 174.971C243.641 175.548 240.574 175.548 238.748 175.741C236.922 175.933 236.829 176.405 237.599 176.797C238.836 177.258 240.151 177.472 241.47 177.427C243.004 177.427 244.79 177.275 244.026 177.753C243.263 178.231 242.2 178.331 240.281 178.616C238.363 178.902 237.692 178.045 237.984 178.809C238.276 179.572 240.574 179.579 243.449 179.473C246.066 179.339 248.607 178.549 250.839 177.175C252.758 176.02 259.757 174.293 260.241 173.915C260.726 173.536 261.483 171.319 261.005 168.636C260.527 165.954 258.07 166.936 258.07 166.936Z" fill="white" stroke="#263238" stroke-linecap="round" stroke-linejoin="round"/>
<path d="M265.653 155.708C267.523 154.161 269.548 152.812 271.696 151.684" stroke="#263238" stroke-linecap="round" stroke-linejoin="round"/>
<path d="M239.173 173.782C239.173 173.782 244.631 173.158 245.182 173.078C245.733 172.998 246.743 173.623 246.271 174.326C245.8 175.03 245.567 174.871 243.615 175.263C241.678 175.557 239.718 175.688 237.759 175.654" fill="white"/>
<path d="M239.173 173.782C239.173 173.782 244.631 173.158 245.182 173.078C245.733 172.998 246.743 173.623 246.271 174.326C245.8 175.03 245.567 174.871 243.615 175.263C241.678 175.557 239.718 175.688 237.759 175.654" stroke="#263238" stroke-linecap="round" stroke-linejoin="round"/>
<path d="M239.797 177.527C239.797 177.527 245.879 177.135 245.726 177.607C245.574 178.078 245.182 178.696 242.997 178.855C240.813 179.014 238.349 179.167 236.284 178.151" fill="white"/>
<path d="M239.797 177.527C239.797 177.527 245.879 177.135 245.726 177.607C245.574 178.078 245.182 178.696 242.997 178.855C240.813 179.014 238.349 179.167 236.284 178.151" stroke="#263238" stroke-linecap="round" stroke-linejoin="round"/>
<path d="M178.961 262.36C178.961 262.36 179.997 263.389 175.867 265.912C171.737 268.435 168.291 269.584 168.291 271.078C168.291 272.572 172.879 274.059 177.587 272.911C182.295 271.762 184.227 271.423 186.883 270.965C189.539 270.507 190.329 268.21 190.329 264.989C190.329 261.769 183.331 261.005 182.527 260.859C181.724 260.713 179.539 261.098 178.961 262.36Z" fill="white" stroke="#263238" stroke-linecap="round" stroke-linejoin="round"/>
<path d="M189.287 264.996C187.549 267.6 185.421 269.922 182.979 271.881C179.42 274.537 178.961 275.779 180.801 276.47C182.64 277.16 187.912 277.386 191.471 276.012C195.03 274.637 196.75 272.572 197.779 271.649C198.808 270.726 199.386 271.304 199.386 267.632C199.386 263.96 195.482 262.698 192.275 262.931C189.068 263.163 189.287 264.996 189.287 264.996Z" fill="white" stroke="#263238" stroke-linecap="round" stroke-linejoin="round"/>
<path d="M175.297 190.19C175.297 190.19 176.333 211.072 176.678 217.155C177.023 223.237 179.546 246.065 179.998 251.457C180.45 256.849 180.456 258.455 180.456 258.455C180.456 258.455 178.391 259.949 178.391 260.295C178.391 260.64 178.159 263.847 178.159 263.847C179.683 264.686 181.301 265.342 182.979 265.799C184.823 266.215 186.722 266.331 188.603 266.145C188.603 266.145 192.388 267.406 195.602 268.322C198.816 269.239 200.077 268.781 200.077 268.781C200.077 268.781 200.994 264.192 201.219 262.698C201.445 261.204 205.35 245.375 205.35 238.13C205.35 230.886 204.433 227.573 203.059 223.33C201.684 219.087 204.891 203.934 206.04 198.43C206.699 195.359 207.197 192.256 207.534 189.134C207.534 189.134 197.667 194.207 175.297 190.19Z" fill="#263238" stroke="#263238" stroke-linecap="round" stroke-linejoin="round"/>
<path d="M188.145 197.208C188.145 197.208 187.567 212.48 187.567 218.317C187.567 224.153 189.061 231.284 189.745 238.17C190.429 245.056 189.978 256.297 189.174 258.25C188.371 260.202 187.8 260.906 187.913 262.38C188.026 263.854 188.145 265.932 188.145 265.932" stroke="white" stroke-linecap="round" stroke-linejoin="round"/>
<path d="M186.306 108.378C186.306 108.378 185.642 106.313 184.579 107.117C183.517 107.92 184.241 109.414 185.157 110.908C186.073 112.402 187.102 112.741 187.222 111.937C187.341 111.134 186.306 108.378 186.306 108.378Z" fill="white" stroke="#263238" stroke-linecap="round" stroke-linejoin="round"/>
<path d="M186.306 109.301L185.157 105.981C185.157 105.981 180.343 104.029 181.837 99.2082C183.331 94.3876 194.805 90.0317 197.9 90.0317C200.994 90.0317 206.963 94.1618 207.999 98.9825C209.035 103.803 205.589 108.159 205.589 108.159C205.589 108.159 204.095 112.402 202.933 112.176C201.771 111.95 202.468 108.617 200.98 105.981C199.493 103.345 198.57 101.997 196.963 102.661C195.356 103.325 188.703 105.317 188.132 106.213C187.561 107.11 186.538 109.872 186.306 109.301Z" fill="#263238" stroke="#263238" stroke-linecap="round" stroke-linejoin="round"/>
<path d="M209.599 156.571L210.17 159.552L203.059 170.568L204.665 173.091C208.039 170.842 211.121 168.183 213.842 165.177C218.43 160.13 218.888 159.44 218.888 157.375C218.888 155.31 217.288 151.75 217.288 151.75C217.288 151.75 214.074 156.571 209.599 156.571Z" fill="white" stroke="#263238" stroke-linecap="round" stroke-linejoin="round"/>
<path d="M170.701 149.918C170.701 149.918 168.404 155.423 168.869 157.142C169.334 158.862 177.242 168.961 177.242 168.961L178.616 165.177C178.616 165.177 175.635 158.982 175.635 156.917C175.635 154.851 176.671 150.834 176.671 150.834L170.701 149.918Z" stroke="#263238" stroke-linecap="round" stroke-linejoin="round"/>
<path d="M191.013 122.608C191.013 122.608 181.146 126.392 179.307 126.97C177.468 127.548 176.206 127.886 176.093 128.458C175.98 129.029 170.476 143.145 169.453 145.097C168.431 147.05 167.043 149.227 167.043 149.227C168.38 150.063 169.758 150.83 171.173 151.525C172.616 152.156 174.114 152.654 175.648 153.012L176.312 160.934L169.54 190.761C169.54 190.761 183.079 194.545 192.116 194.207C197.869 194.011 203.558 192.927 208.981 190.993C210.708 190.415 213.344 189.386 213.344 189.386L204.712 156.917L205.376 152.096L205.834 156.804C205.834 156.804 210.422 157.833 213.058 157.142C215.694 156.452 219.034 153.822 219.034 153.822L210.542 127.322L194.712 122.96L191.013 122.608Z" fill="#00C29C" stroke="#263238" stroke-linecap="round" stroke-linejoin="round"/>
<path d="M202.162 124.978L194.798 122.953L191.013 122.608L187.607 123.936C187.54 125.742 187.454 128.816 187.454 132.501C187.454 138.477 188.118 143.749 189.864 142.714C191.611 141.678 199.824 130.556 201.219 127.442C201.596 126.646 201.911 125.822 202.162 124.978Z" fill="#00C29C" stroke="#263238" stroke-linecap="round" stroke-linejoin="round"/>
<path d="M205.469 152.096C205.236 151.87 204.207 141.996 204.207 141.996" stroke="#263238" stroke-linecap="round" stroke-linejoin="round"/>
<path d="M175.635 153.012C175.635 153.012 174.831 149.114 175.064 147.62C175.296 146.126 176.896 137.295 176.896 137.295" stroke="#263238" stroke-linecap="round" stroke-linejoin="round"/>
<path d="M179.54 169.539C179.54 169.539 174.261 171.259 174.261 171.604C174.261 171.949 174.142 173.55 174.142 173.55L179.54 171.026V169.539Z" stroke="#263238" stroke-linecap="round" stroke-linejoin="round"/>
<path d="M193.536 170.343L193.304 171.83L204.778 174.811L205.349 173.669L193.536 170.343Z" stroke="#263238" stroke-linecap="round" stroke-linejoin="round"/>
<path d="M197.321 147.528C197.165 147.528 197.014 147.465 196.904 147.355C196.793 147.244 196.73 147.093 196.73 146.937C196.73 144.945 197.72 140.137 198.683 135.489C199.446 131.791 200.17 128.292 200.17 127.196C200.2 126.592 200.1 125.989 199.878 125.427C199.656 124.865 199.316 124.356 198.882 123.936C197.507 122.661 195.064 122.143 191.624 122.395C184.446 122.926 183.922 138.995 183.915 139.148C183.912 139.302 183.848 139.449 183.738 139.557C183.627 139.665 183.479 139.726 183.324 139.726C183.247 139.723 183.17 139.705 183.1 139.673C183.029 139.641 182.965 139.595 182.912 139.539C182.859 139.482 182.818 139.415 182.791 139.342C182.763 139.27 182.751 139.192 182.753 139.115C182.753 138.411 183.318 121.851 191.558 121.187C195.343 120.914 198.085 121.532 199.705 123.046C200.257 123.577 200.691 124.219 200.978 124.93C201.265 125.64 201.399 126.404 201.372 127.169C201.372 128.384 200.675 131.778 199.865 135.702C198.955 140.078 197.932 145.038 197.932 146.91C197.936 146.992 197.923 147.073 197.894 147.149C197.864 147.225 197.819 147.295 197.762 147.353C197.705 147.411 197.636 147.456 197.56 147.486C197.484 147.516 197.403 147.53 197.321 147.528Z" fill="#263238" stroke="#263238" stroke-linecap="round" stroke-linejoin="round"/>
<path d="M189.745 119.055C189.745 119.055 189.745 122.375 189.632 123.039C189.52 123.703 189.632 126.598 189.632 130.503C189.632 134.407 190.296 137.036 191.239 136.12C192.182 135.204 198.238 127.056 198.583 125.45C198.786 124.546 198.901 123.626 198.928 122.701L199.387 118.106C199.387 118.106 192.275 120.171 189.287 119.254" fill="white"/>
<path d="M189.745 119.055C189.745 119.055 189.745 122.375 189.632 123.039C189.52 123.703 189.632 126.598 189.632 130.503C189.632 134.407 190.296 137.036 191.239 136.12C192.182 135.204 198.238 127.056 198.583 125.45C198.786 124.546 198.901 123.626 198.928 122.701L199.387 118.106C199.387 118.106 192.275 120.171 189.287 119.254" stroke="#263238" stroke-linecap="round" stroke-linejoin="round"/>
<path d="M201.564 112.169C202.162 116.155 202.315 120.195 202.022 124.214C201.564 131.213 200.734 134.493 198.702 135.502C196.67 136.512 199.293 137.654 202.387 137.767C205.482 137.88 210.076 137.421 210.88 128.245C211.683 119.068 205.03 113.099 204.452 111.95C204.305 111.684 204.083 111.465 203.815 111.32C203.546 111.175 203.242 111.111 202.938 111.134C202.634 111.157 202.343 111.267 202.099 111.45C201.856 111.634 201.67 111.883 201.564 112.169Z" fill="#263238" stroke="#263238" stroke-linecap="round" stroke-linejoin="round"/>
<path d="M179.194 147.182H179.148C179.067 147.178 178.989 147.156 178.917 147.12C178.845 147.083 178.781 147.032 178.73 146.97C178.679 146.907 178.641 146.835 178.619 146.757C178.598 146.68 178.592 146.598 178.603 146.518C178.603 146.193 179.267 138.51 183.324 138.51C187.381 138.51 187.474 145.901 187.474 146.22C187.474 146.376 187.412 146.527 187.301 146.637C187.19 146.748 187.04 146.81 186.883 146.81C186.727 146.81 186.576 146.748 186.465 146.637C186.355 146.527 186.292 146.376 186.292 146.22C186.292 146.153 186.206 139.699 183.331 139.699C180.861 139.699 179.938 144.686 179.792 146.611C179.785 146.765 179.719 146.91 179.608 147.017C179.496 147.123 179.348 147.182 179.194 147.182Z" fill="#263238"/>
<path d="M179.194 146.133C179.194 146.133 179.194 151.87 179.42 153.012C179.646 154.154 182.521 156.571 185.96 158.065" stroke="#263238" stroke-width="2" stroke-linecap="round" stroke-linejoin="round"/>
<path d="M186.651 145.416C186.651 145.416 186.877 151.153 185.735 153.676C184.593 156.199 181.146 157.235 179.652 157.806" stroke="#263238" stroke-width="2" stroke-linecap="round" stroke-linejoin="round"/>
<path d="M187.567 158.291C187.547 158.031 187.429 157.789 187.237 157.613C187.046 157.436 186.795 157.338 186.535 157.338C186.274 157.338 186.024 157.436 185.832 157.613C185.641 157.789 185.523 158.031 185.502 158.291C185.491 158.433 185.509 158.577 185.556 158.712C185.602 158.847 185.677 158.971 185.774 159.076C185.871 159.181 185.988 159.265 186.119 159.323C186.25 159.38 186.392 159.41 186.535 159.41C186.678 159.41 186.819 159.38 186.95 159.323C187.081 159.265 187.199 159.181 187.296 159.076C187.393 158.971 187.467 158.847 187.514 158.712C187.561 158.577 187.579 158.433 187.567 158.291Z" fill="white" stroke="#263238" stroke-linecap="round" stroke-linejoin="round"/>
<path d="M180.455 158.065C180.457 157.86 180.397 157.659 180.284 157.488C180.171 157.317 180.01 157.183 179.821 157.103C179.631 157.024 179.423 157.003 179.222 157.042C179.02 157.081 178.835 157.179 178.69 157.324C178.544 157.468 178.445 157.653 178.404 157.854C178.364 158.055 178.384 158.264 178.462 158.453C178.54 158.643 178.673 158.805 178.843 158.919C179.014 159.033 179.214 159.094 179.42 159.094C179.693 159.094 179.956 158.986 180.15 158.793C180.344 158.601 180.454 158.339 180.455 158.065Z" fill="white" stroke="#263238" stroke-linecap="round" stroke-linejoin="round"/>
<path d="M200.761 149.115C200.762 148.41 200.554 147.721 200.164 147.135C199.773 146.548 199.217 146.091 198.567 145.821C197.916 145.551 197.2 145.48 196.509 145.617C195.818 145.754 195.183 146.093 194.685 146.591C194.187 147.089 193.848 147.724 193.711 148.415C193.574 149.106 193.645 149.822 193.915 150.473C194.185 151.124 194.642 151.679 195.228 152.07C195.815 152.46 196.504 152.668 197.208 152.667C198.15 152.665 199.052 152.29 199.718 151.624C200.384 150.959 200.759 150.056 200.761 149.115Z" fill="white" stroke="#263238" stroke-linecap="round" stroke-linejoin="round"/>
<path d="M199.154 149.115C199.154 148.728 199.04 148.35 198.825 148.029C198.61 147.708 198.305 147.458 197.948 147.31C197.591 147.163 197.198 147.124 196.819 147.2C196.44 147.276 196.092 147.463 195.819 147.736C195.547 148.01 195.361 148.359 195.287 148.738C195.212 149.117 195.252 149.51 195.401 149.866C195.549 150.223 195.801 150.527 196.122 150.741C196.444 150.955 196.822 151.068 197.209 151.067C197.725 151.065 198.22 150.858 198.585 150.493C198.95 150.127 199.154 149.631 199.154 149.115Z" fill="white" stroke="#263238" stroke-linecap="round" stroke-linejoin="round"/>
<path d="M199.154 100.35C199.154 100.35 189.174 104.248 187.912 104.912C187.369 105.24 186.793 105.51 186.192 105.715C186.192 105.715 186.763 114.434 186.996 116.731C187.228 119.029 190.893 121.207 194.107 121.094C197.321 120.981 199.957 119.254 200.535 118.225C201.112 117.196 202.713 114.095 202.713 114.095C202.713 114.095 206.498 113.431 206.697 110.078C206.896 106.725 205.78 107.422 204.519 108.126C203.257 108.83 202.567 109.275 202.567 109.275C202.812 108.057 202.607 106.793 201.989 105.715C200.993 104.022 199.386 101.957 199.154 100.35Z" fill="white" stroke="#263238" stroke-linecap="round" stroke-linejoin="round"/>
<path d="M191.014 111.021C191.014 111.021 191.93 112.395 192.733 112.282" stroke="#263238" stroke-linecap="round" stroke-linejoin="round"/>
<path d="M190.668 113.086C190.668 113.086 192.613 114.925 195.98 113.431" stroke="#263238" stroke-linecap="round" stroke-linejoin="round"/>
<path d="M195.602 108.265C195.602 108.265 197.952 107.236 199.273 109.069" stroke="#263238" stroke-width="1.5" stroke-linecap="round" stroke-linejoin="round"/>
<path d="M191.014 108.039C191.014 108.039 189.174 106.891 187.8 107.807" stroke="#263238" stroke-width="1.5" stroke-linecap="round" stroke-linejoin="round"/>
<path d="M192.362 107.608C192.363 108.249 192.174 108.877 191.818 109.41C191.463 109.944 190.957 110.361 190.364 110.607C189.772 110.853 189.12 110.918 188.491 110.793C187.861 110.668 187.283 110.359 186.83 109.906C186.376 109.452 186.068 108.874 185.943 108.245C185.818 107.616 185.883 106.964 186.129 106.371C186.375 105.779 186.791 105.273 187.325 104.917C187.859 104.562 188.486 104.373 189.128 104.374C189.985 104.376 190.806 104.717 191.412 105.323C192.018 105.929 192.36 106.751 192.362 107.608Z" stroke="#263238" stroke-linecap="round" stroke-linejoin="round"/>
<path d="M200.429 108.518C200.43 109.159 200.241 109.786 199.886 110.32C199.531 110.853 199.025 111.27 198.433 111.516C197.841 111.762 197.189 111.827 196.56 111.703C195.931 111.579 195.353 111.271 194.9 110.818C194.446 110.365 194.137 109.788 194.011 109.159C193.885 108.53 193.949 107.878 194.194 107.286C194.439 106.693 194.855 106.187 195.388 105.83C195.921 105.474 196.547 105.284 197.189 105.284C198.046 105.286 198.868 105.627 199.476 106.233C200.083 106.838 200.425 107.66 200.429 108.518Z" stroke="#263238" stroke-linecap="round" stroke-linejoin="round"/>
<path d="M192.361 107.608C192.593 107.529 192.842 107.515 193.081 107.565C193.32 107.615 193.542 107.729 193.723 107.893" stroke="#263238" stroke-linecap="round" stroke-linejoin="round"/>
<path d="M200.542 109.029L203.723 108.577" stroke="#263238" stroke-linecap="round" stroke-linejoin="round"/>
<path d="M65.6431 263.196C64.7636 265.064 63.6814 266.83 62.416 268.462C60.4971 270.819 60.0124 272.499 62.0973 273.96C64.1823 275.42 67.9804 275.195 69.8927 272.838C71.805 270.48 74.886 263.98 74.886 263.98C74.886 263.98 68.1663 261.961 65.6431 263.196Z" fill="white" stroke="#263238" stroke-linecap="round" stroke-linejoin="round"/>
<path d="M89.0286 264.65C89.0286 264.65 92.3486 269.026 94.3406 271.29C96.3326 273.555 100.098 274.65 102.109 274.537C104.121 274.425 107.01 273.754 105.058 270.168C103.105 266.583 99.0285 263.103 99.0285 263.103C99.0285 263.103 94.7656 263.103 91.8373 262.765C88.9091 262.426 88.8826 263.98 89.0286 264.65Z" fill="white" stroke="#263238" stroke-linecap="round" stroke-linejoin="round"/>
<path d="M67.4753 182.235C67.4753 182.235 66.1473 197.507 66.5988 208.25C67.0504 218.994 65.0716 240.434 64.4076 245.68C63.7436 250.926 65.0119 259.584 65.0716 261.49C65.1314 263.395 65.1978 264.411 65.1978 264.411C65.1978 264.411 66.1805 263.747 69.7993 264.411C71.433 264.761 73.0914 264.983 74.7594 265.075C76.2524 262.55 77.487 259.88 78.4446 257.107C79.5269 253.522 78.916 249.803 78.8297 247.911C78.7434 246.019 78.4313 243.987 78.6438 243.648C78.8563 243.309 83.2918 211.245 83.5308 204.18C83.8025 199.391 84.5138 194.636 85.6556 189.977C85.6556 189.977 87.7738 199.844 87.9398 203.655C88.1058 207.467 87.5613 238.529 87.8336 244.823C88.1058 251.118 87.6211 252.791 86.904 254.358C86.1868 255.925 86.4458 256.709 86.9504 257.944C87.4551 259.179 89.042 264.67 89.042 264.67C89.042 264.67 97.1362 265.122 98.2318 264.557C99.3274 263.993 99.7524 263.442 99.7324 263.103C99.7125 262.765 103.63 254.69 103.258 251.331C102.886 247.971 102.461 248.528 102.083 242.473C101.705 236.417 104.181 185.369 104.175 182.713C104.168 180.057 103.723 185.176 87.216 182.049C70.709 178.921 67.9468 180.103 67.4753 182.235Z" fill="#00C29C" stroke="#263238" stroke-linecap="round" stroke-linejoin="round"/>
<path d="M89.5068 260.288C89.5068 260.288 94.6927 255.799 99.0153 254.677L89.5068 260.288Z" fill="white"/>
<path d="M89.5068 260.288C89.5068 260.288 94.6927 255.799 99.0153 254.677" stroke="#263238" stroke-linecap="round" stroke-linejoin="round"/>
<path d="M68.332 258.15C68.332 258.15 74.8127 255.009 76.6851 254.226L68.332 258.15Z" fill="white"/>
<path d="M68.332 258.15C68.332 258.15 74.8127 255.009 76.6851 254.226" stroke="#263238" stroke-linecap="round" stroke-linejoin="round"/>
<path d="M79.2088 99.2613C79.2088 99.2613 77.4691 95.337 76.181 96.6849C74.8928 98.0329 75.8689 99.819 77.6418 101.95C79.4147 104.082 80.8157 102.734 80.4439 101.838C80.072 100.941 79.2088 99.2613 79.2088 99.2613Z" fill="white" stroke="#263238" stroke-linecap="round" stroke-linejoin="round"/>
<path d="M96.048 97.1298C96.048 97.1298 97.7877 93.3185 99.2086 95.1378C100.63 96.9572 97.5752 101.419 96.8249 102.203C96.0746 102.986 95.5898 97.0435 95.5898 97.0435L96.048 97.1298Z" fill="white" stroke="#263238" stroke-linecap="round" stroke-linejoin="round"/>
<path d="M58.2792 146.246C58.2792 146.246 57.7945 153.198 57.2035 154.991C55.9971 159.216 55.4331 163.599 55.5303 167.992C55.7627 173.257 57.8277 184.698 57.8675 188.171C57.9074 191.644 56.8251 192.434 57.9871 193.33C59.1491 194.226 61.6191 196.922 62.5155 196.922C63.4119 196.922 64.7798 197.367 64.7466 196.697C64.7134 196.026 64.2751 196.132 63.8967 195.236C63.4135 193.929 63.0186 192.591 62.7147 191.232C62.9874 190.242 63.3178 189.268 63.7041 188.317C63.7041 188.317 64.5009 191.119 64.6536 192.022C64.8063 192.925 66.0547 193.25 65.9816 191.57C65.9086 189.891 65.8754 189.213 65.7957 187.42C65.716 185.628 64.3017 184.061 63.7041 183.158C63.1065 182.255 62.6351 181.703 62.6151 181.365C62.5952 181.026 64.5474 169.147 64.6071 164.997C64.6669 160.847 64.7267 157.481 65.0255 156.697C65.3243 155.914 66.8116 148.849 66.8116 148.849L58.2792 146.246Z" fill="white" stroke="#263238" stroke-linecap="round" stroke-linejoin="round"/>
<path d="M113.737 146.578C113.737 146.578 114.215 153.57 114.813 155.416C116.005 159.696 116.566 164.127 116.479 168.57C116.247 173.822 114.168 185.077 114.129 188.549C114.089 192.022 115.178 192.899 114.016 193.695C112.854 194.492 110.377 196.962 109.481 196.889C108.584 196.816 107.223 197.135 107.25 196.464C107.276 195.794 107.721 195.946 108.1 195.083C108.59 193.803 108.987 192.489 109.288 191.152C109.013 190.132 108.681 189.127 108.292 188.144C108.292 188.144 107.495 190.88 107.343 191.763C107.19 192.646 105.948 192.872 106.015 191.199C106.081 189.525 106.114 188.855 106.194 187.069C106.274 185.282 107.688 183.835 108.292 182.992C108.896 182.148 109.361 181.624 109.381 181.292C109.401 180.96 107.449 168.902 107.389 164.745C107.329 160.588 107.276 157.222 106.971 156.412C106.665 155.602 105.185 148.404 105.185 148.404L113.737 146.578Z" fill="white" stroke="#263238" stroke-linecap="round" stroke-linejoin="round"/>
<path d="M82.8004 112.156C82.8004 112.156 76.426 115.184 72.5748 116.864C68.7236 118.544 63.883 120.562 63.9428 121.353C64.0026 122.143 59.8393 137.833 58.5246 141.087C57.2098 144.34 55.9814 146.917 55.9814 146.917C55.9814 146.917 60.6892 150.064 63.7436 150.728C65.7121 151.145 67.7102 151.407 69.7196 151.512L66.0875 183.808C66.0875 183.808 73.3915 186.723 84.8322 186.836C91.931 186.889 99.0265 186.514 106.08 185.714C106.08 185.714 107.156 159.154 107.043 156.558C106.965 155.135 107.016 153.708 107.196 152.295C108.938 152.675 110.75 152.6 112.455 152.076C113.954 151.518 115.424 150.882 116.857 150.17C116.857 150.17 111.286 127.966 110.37 124.938C109.453 121.91 109.878 121.466 109.082 121.127C108.285 120.788 99.4801 116.977 96.605 115.297C93.7299 113.617 92.621 113.61 90.1044 112.827C87.5878 112.043 84.0952 111.034 82.8004 112.156Z" fill="#00C29C" stroke="#263238" stroke-linecap="round" stroke-linejoin="round"/>
<path d="M107.209 152.295L105.788 132.382" stroke="#263238" stroke-linecap="round" stroke-linejoin="round"/>
<path d="M69.9855 162.726L82.4222 162.388C82.4222 162.388 81.8711 177.978 81.4926 179.652C81.1142 181.325 78.591 182.454 75.3307 182.341C72.0705 182.228 70.0984 180.661 69.7266 179.877" stroke="#263238" stroke-linecap="round" stroke-linejoin="round"/>
<path d="M69.2881 164.745L82.4021 164.632" stroke="#263238" stroke-linecap="round" stroke-linejoin="round"/>
<path d="M103.817 182.347C102.595 182.686 99.6798 182.686 99.0424 180.893C98.4049 179.101 98.8232 163.065 98.8232 163.065L105.224 163.284" stroke="#263238" stroke-linecap="round" stroke-linejoin="round"/>
<path d="M98.7695 164.406L104.858 165.303" stroke="#263238" stroke-linecap="round" stroke-linejoin="round"/>
<path d="M69.7197 151.511C69.7197 151.511 70.1712 136.153 69.992 132.116" stroke="#263238" stroke-linecap="round" stroke-linejoin="round"/>
<path d="M80.9014 104.64C80.9014 104.64 81.8708 113.936 81.9107 114.958C81.9505 115.981 83.0859 118.77 84.1616 120.23C85.2373 121.691 88.2452 126.399 89.4404 125.496C90.6356 124.593 94.0021 119.553 94.3274 116.751C94.6528 113.949 94.8122 107.335 94.8122 107.335C94.8122 107.335 90.4497 107.561 87.143 106.439C83.8363 105.317 80.9014 104.64 80.9014 104.64Z" fill="white" stroke="#263238" stroke-linecap="round" stroke-linejoin="round"/>
<path d="M76.254 90.7355L78.7307 98.5906C78.7307 98.5906 79.6603 104.421 81.3336 106.771C83.0069 109.122 88.87 112.495 91.5326 111.818C94.1953 111.14 97.336 108.677 97.2165 105.988C97.097 103.298 96.5525 95.4499 96.6255 92.4221C96.6986 89.3942 95.9615 83.2257 94.1289 81.5457C92.2962 79.8658 86.1609 78.8499 81.7586 80.6493C77.3562 82.4488 74.3682 85.802 76.254 90.7355Z" fill="#263238" stroke="#263238" stroke-linecap="round" stroke-linejoin="round"/>
<path d="M78.8699 99.2612C78.8699 99.2612 78.6508 99.3741 79.2284 97.1298C79.8061 94.8855 81.5458 93.7633 81.7184 92.6478C81.8911 91.5323 79.5272 91.187 79.7862 89.5071C80.0452 87.8272 82.3559 86.5921 87.2628 86.0277C92.1698 85.4633 95.4367 88.3849 95.2773 89.8391C95.118 91.2932 94.6797 91.5256 95.3968 92.5349C96.114 93.5442 96.4194 95.4499 96.4725 96.572C96.5256 97.6942 97.1365 101.725 96.0741 102.96C95.0117 104.195 94.2149 103.969 93.1592 102.96C92.1034 101.95 91.7116 100.609 89.3611 100.609C87.0105 100.609 86.2602 101.506 85.8485 102.402C85.4368 103.298 85.0384 104.394 83.6972 104.394C82.3559 104.394 81.3997 103.159 80.4436 101.811C79.8609 100.998 79.3351 100.146 78.8699 99.2612Z" fill="white" stroke="#263238" stroke-linecap="round" stroke-linejoin="round"/>
<path d="M88.9758 93.7634C88.9758 93.7634 91.1471 99.8191 91.0541 100.271C90.9611 100.722 89.8987 102.063 88.6571 101.951C87.4154 101.838 86.7979 100.383 86.7979 100.383" stroke="#263238" stroke-linecap="round" stroke-linejoin="round"/>
<path d="M89.5868 92.96C89.5274 92.7573 89.5146 92.5438 89.5494 92.3355C89.5842 92.1272 89.6656 91.9294 89.7875 91.757C89.9095 91.5846 90.0689 91.442 90.2537 91.3399C90.4386 91.2377 90.6441 91.1787 90.855 91.1672C91.5489 91.1335 92.242 91.2462 92.8895 91.4979C93.537 91.7496 94.1243 92.1346 94.6132 92.628" stroke="#263238" stroke-width="2" stroke-linecap="round" stroke-linejoin="round"/>
<path d="M86.3202 92.2959C85.9998 92.0577 85.6304 91.8936 85.2389 91.8155C84.8473 91.7374 84.4433 91.7473 84.056 91.8444C82.728 92.183 81.1277 94.2016 81.1476 94.5402" stroke="#263238" stroke-width="2" stroke-linecap="round" stroke-linejoin="round"/>
<path d="M85.8882 95.5627C85.8882 96.1205 85.6558 96.572 85.3105 96.572C84.9652 96.572 84.6465 96.1205 84.6465 95.5627C84.6465 95.005 84.8789 94.5535 85.2175 94.5535C85.5562 94.5535 85.8616 95.005 85.8882 95.5627Z" fill="#263238"/>
<path d="M92.3757 95.2241C92.3757 95.7819 92.1433 96.2334 91.8046 96.2334C91.466 96.2334 91.1406 95.7819 91.1406 95.2241C91.1406 94.6664 91.373 94.2148 91.7117 94.2148C92.0503 94.2148 92.3491 94.6664 92.3757 95.2241Z" fill="#263238"/>
<path d="M86.6123 104.421C86.6123 104.421 88.7836 105.43 92.0837 103.969" stroke="white" stroke-width="2" stroke-linecap="round" stroke-linejoin="round"/>
<path d="M78.624 114.208C78.624 114.208 81.944 125.642 85.5097 133.159C89.0754 140.675 91.904 145.941 91.904 145.941C91.904 145.941 97.2758 127.886 97.2492 122.037C97.2227 116.187 97.1895 115.536 97.1895 115.536" stroke="#263238" stroke-linecap="round" stroke-linejoin="round"/>
<path d="M95.8819 157.341H89.0361L88.5381 145.907H95.3773L95.8819 157.341Z" fill="white" stroke="#263238" stroke-linecap="round" stroke-linejoin="round"/>
<path d="M146.173 268.13C146.173 268.13 149.759 271.045 152.335 271.828C154.912 272.612 156.26 273.063 155.702 274.298C155.144 275.533 153.345 275.978 148.079 276.091C142.814 276.204 141.798 275.082 139.779 274.517C137.76 273.953 134.958 274.517 134.062 273.402C133.166 272.286 133.498 270.593 133.498 268.8C133.498 267.008 141.24 266.224 143.258 266.895C144.272 267.201 145.249 267.615 146.173 268.13Z" fill="white" stroke="#263238" stroke-linecap="round" stroke-linejoin="round"/>
<path d="M135.967 270.374C135.967 270.374 139.334 273.96 142.136 275.527C144.938 277.094 146.505 278.223 145.835 279.006C145.164 279.79 143.032 280.799 137.422 280.241C131.811 279.683 130.695 278.442 128.006 276.536C125.317 274.63 124.082 274.856 123.185 273.847C122.289 272.837 122.289 270.593 122.289 270.593L135.967 270.374Z" fill="white" stroke="#263238" stroke-linecap="round" stroke-linejoin="round"/>
<path d="M152.786 187.394C152.786 187.394 150.794 214.08 149.984 218.901C149.174 223.721 148.411 226.417 148.523 229.777C148.636 233.137 149.646 242.785 147.627 248.509C145.609 254.232 145.635 261.178 145.834 263.196C146.033 265.215 146.731 267.904 146.618 268.356C146.505 268.807 143.258 270.593 140.901 271.045C139.419 271.317 137.918 271.466 136.412 271.49C134.131 272.295 131.761 272.823 129.354 273.063C125.987 273.289 121.386 272.28 121.386 272.28C121.386 272.28 121.386 263.98 120.934 258.595C120.483 253.21 118.942 244.584 120.821 238.077C122.701 231.57 122.282 228.117 122.149 225.966C122.017 223.814 122.149 214.193 122.037 213.854C121.924 213.516 121.253 185.488 121.253 185.488C121.253 185.488 133.471 187.281 141.658 186.498C149.845 185.714 151.976 185.714 151.976 185.714C151.976 185.714 153.796 183.696 152.786 187.394Z" fill="#263238" stroke="#263238" stroke-linecap="round" stroke-linejoin="round"/>
<path d="M136.977 269.923C136.971 268.107 136.748 266.3 136.313 264.537C135.649 262.3 135.523 254.338 135.861 251.085C136.2 247.831 137.853 239.651 137.853 235.049C137.853 230.448 138.305 223.389 138.305 223.389" stroke="white" stroke-linecap="round" stroke-linejoin="round"/>
<path d="M160.184 220.919L147.408 220.806C146.851 220.806 146.851 212.287 146.851 212.287L160.184 220.919Z" fill="white" stroke="#263238" stroke-linecap="round" stroke-linejoin="round"/>
<path d="M133.165 188.968C133.165 188.968 145.947 189.751 153.125 188.516L150.655 128.192C150.655 128.192 148.975 125.39 144.486 123.816C139.998 122.242 134.619 124.48 132.714 126.618C130.808 128.756 132.156 188.742 132.156 188.742L133.165 188.968Z" fill="#00C29C" stroke="#263238" stroke-linecap="round" stroke-linejoin="round"/>
<path d="M133.723 123.816C133.723 123.816 121.054 130.21 119.148 131.333C117.243 132.455 117.156 136.485 117.156 138.398C117.156 140.31 117.714 225.182 117.714 225.182C122.509 225.496 127.324 225.004 131.957 223.728C136.526 222.533 140.826 220.477 144.626 217.673L142.494 172.036L140.104 132.003C140.104 132.003 138.657 120.901 133.723 123.816Z" fill="white" stroke="#263238" stroke-linecap="round" stroke-linejoin="round"/>
<path d="M137.535 119.666C137.535 119.666 134.62 120.005 133.385 121.658C132.661 122.634 132.129 123.738 131.817 124.912L130.695 135.004L134.507 134.108L132.601 138.59C132.601 138.59 134.507 144.201 136.638 148.909C138.77 153.616 141.91 163.258 141.91 163.258L140.449 133.099C140.449 133.099 140.449 124.354 139.785 122.475C139.121 120.596 138.431 119.666 137.535 119.666Z" fill="white" stroke="#263238" stroke-linecap="round" stroke-linejoin="round"/>
<path d="M144.826 125.835L147.07 217.221L160.184 220.919L158.278 151.292C158.278 151.292 158.617 133.364 157.495 130.881C156.373 128.398 146.286 123.371 145.277 123.504C144.268 123.637 144.826 125.835 144.826 125.835Z" fill="white" stroke="#263238" stroke-linecap="round" stroke-linejoin="round"/>
<path d="M144.825 121.24C145.642 121.439 146.405 121.813 147.063 122.335C147.721 122.858 148.258 123.517 148.637 124.268C149.759 126.731 152.674 134.36 152.674 134.36L148.975 134.805L152.9 137.607L145.947 163.736L145.164 135.456L144.5 123.796C144.5 123.796 143.703 121.91 144.825 121.24Z" fill="white" stroke="#263238" stroke-linecap="round" stroke-linejoin="round"/>
<path d="M136.638 115.855C136.638 115.855 137.09 119.108 136.413 120.901C135.735 122.694 138.544 128.305 139.666 131.777C140.788 135.25 141.911 138.059 142.581 137.72C143.252 137.382 145.609 124.268 145.496 122.581C145.383 120.894 146.505 115.855 146.505 115.855C146.505 115.855 140.337 117.648 136.638 115.855Z" fill="white" stroke="#263238" stroke-linecap="round" stroke-linejoin="round"/>
<path d="M128.763 112.435C132.295 112.435 135.158 109.444 135.158 105.755C135.158 102.066 132.295 99.0754 128.763 99.0754C125.232 99.0754 122.369 102.066 122.369 105.755C122.369 109.444 125.232 112.435 128.763 112.435Z" fill="#263238" stroke="#263238" stroke-linecap="round" stroke-linejoin="round"/>
<path d="M132.043 108.896C132.043 108.896 130.921 105.981 129.573 107.103C128.225 108.225 129.573 110.689 130.582 112.15C131.592 113.61 133.497 112.933 133.278 111.486C133.097 110.53 132.672 109.638 132.043 108.896Z" fill="white" stroke="#263238" stroke-linecap="round" stroke-linejoin="round"/>
<path d="M149.4 107.083C149.4 107.083 149.965 104.281 150.728 106.187C151.066 106.933 151.222 107.749 151.183 108.568C151.144 109.386 150.91 110.184 150.503 110.894C149.839 112.017 149.945 111.904 149.719 110.894C149.543 109.631 149.436 108.358 149.4 107.083Z" fill="white" stroke="#263238" stroke-linecap="round" stroke-linejoin="round"/>
<path d="M130.47 103.498C130.47 103.498 132.601 113.81 133.949 116.28C135.297 118.75 139.779 122.92 143.816 121.213C147.853 119.507 150.098 116.393 150.098 112.581C150.098 108.77 150.655 103.949 149.985 99.7925C149.646 97.8998 148.672 96.1793 147.223 94.9152C145.774 93.6511 143.938 92.9192 142.017 92.8404C138.424 92.7276 132.82 94.7461 131.698 98.3384C131.116 100.012 130.705 101.741 130.47 103.498Z" fill="white" stroke="#263238" stroke-linecap="round" stroke-linejoin="round"/>
<path d="M130.582 107.309C130.582 107.309 136.864 104.839 140.901 101.811C144.938 98.7832 146.173 96.5455 146.173 96.5455C146.173 96.5455 148.079 101.698 148.862 103.385C149.646 105.071 150.317 106.97 150.317 106.97C150.317 106.97 151.552 104.839 151.552 100.33C151.552 95.8218 150.317 92.2561 145.576 89.8989C140.835 87.5417 133.132 89.0025 129.64 92.369C126.147 95.7355 126.837 101.227 127.734 103.358C128.435 104.837 129.401 106.176 130.582 107.309Z" fill="#263238" stroke="#263238" stroke-linecap="round" stroke-linejoin="round"/>
<path d="M144.487 103.159C144.487 103.159 143.823 103.272 143.823 105.29C143.823 107.309 144.487 110.669 144.381 111.12C144.274 111.572 143.053 112.913 142.256 112.13" stroke="#263238" stroke-linecap="round" stroke-linejoin="round"/>
<path d="M139.44 114.148C139.44 114.148 142.355 115.383 146.08 113.139" stroke="#263238" stroke-linecap="round" stroke-linejoin="round"/>
<path d="M144.938 102.92C144.938 102.92 147.302 102.017 148.863 103.371" stroke="#263238" stroke-linecap="round" stroke-linejoin="round"/>
<path d="M141.014 103.385C139.987 103.08 138.904 103.023 137.851 103.218C136.798 103.413 135.807 103.855 134.958 104.507" stroke="#263238" stroke-linecap="round" stroke-linejoin="round"/>
<path d="M139.44 106.632C139.44 107.296 139.168 107.867 138.829 107.867C138.491 107.867 138.212 107.316 138.212 106.632C138.212 105.948 138.484 105.403 138.829 105.403C139.175 105.403 139.44 105.954 139.44 106.632Z" fill="#263238"/>
<path d="M146.744 106.187C146.744 106.851 146.465 107.422 146.126 107.422C145.788 107.422 145.509 106.871 145.509 106.187C145.509 105.503 145.788 104.952 146.126 104.952C146.465 104.952 146.744 105.503 146.744 106.187Z" fill="#263238"/>
<path d="M153.909 151.624L151.917 148.371C151.353 147.474 148.776 147.813 147.541 147.813C146.9 147.88 146.282 148.094 145.737 148.44C145.192 148.786 144.735 149.253 144.401 149.805C143.956 150.701 141.937 152.162 142.721 153.059C143.504 153.955 145.636 153.391 145.974 153.616C146.313 153.842 149.115 155.748 150.124 156.086C150.661 156.283 151.235 156.358 151.804 156.306L153.909 151.624Z" stroke="#263238" stroke-linecap="round" stroke-linejoin="round"/>
<path d="M156.936 130.21C158.064 130.731 159.073 131.477 159.902 132.402C160.731 133.326 161.363 134.411 161.757 135.589C162.992 139.513 167.135 165.641 166.239 168.125C165.343 170.608 163.105 172.494 159.181 171.153C155.256 169.811 149.221 163.41 149.221 163.41L153.928 151.638L157.627 153.543L156.843 143.006" fill="white"/>
<path d="M156.936 130.21C158.064 130.731 159.073 131.477 159.902 132.402C160.731 133.326 161.363 134.411 161.757 135.589C162.992 139.513 167.135 165.641 166.239 168.125C165.343 170.608 163.105 172.494 159.181 171.153C155.256 169.811 149.221 163.41 149.221 163.41L153.928 151.638L157.627 153.543L156.843 143.006" stroke="#263238" stroke-linecap="round" stroke-linejoin="round"/>
<path d="M157.607 153.53C157.607 153.53 163.55 157.009 164.115 158.244" stroke="#263238" stroke-linecap="round" stroke-linejoin="round"/>
<path d="M150.091 137.833H128.451V168.111H150.091V137.833Z" fill="#263238" stroke="#263238" stroke-linecap="round" stroke-linejoin="round"/>
<path d="M138.212 158.915C138.212 158.915 142.356 156.671 143.591 155.436C144.826 154.201 145.051 154.108 145.722 154.108C147.372 154.107 149.021 153.994 150.656 153.769C151.32 153.543 150.994 155.097 150.656 155.449C150.317 155.801 148.192 156.239 148.192 156.239C148.192 156.239 151.778 155.901 151.891 157.023C151.971 157.345 151.961 157.682 151.861 157.999C151.762 158.315 151.576 158.598 151.326 158.816L150.994 159.154C150.994 159.154 151.326 161.505 150.994 162.627C150.662 163.749 149.985 164.088 148.524 164.307C146.575 164.431 144.617 164.32 142.694 163.975C141.572 163.749 137.761 164.533 137.761 164.533L138.212 158.915Z" fill="white" stroke="#263238" stroke-linecap="round" stroke-linejoin="round"/>
<path d="M123.298 129.314C123.298 129.314 116.658 130.768 115.556 131.439C114.454 132.109 110.735 158.802 109.952 163.311C109.168 167.819 116.904 168.696 119.248 169.592C121.592 170.489 138.776 171.81 138.776 171.81L139.002 157.906L127.116 154.878L127.003 135.702" fill="white"/>
<path d="M123.298 129.314C123.298 129.314 116.658 130.768 115.556 131.439C114.454 132.109 110.735 158.802 109.952 163.311C109.168 167.819 116.904 168.696 119.248 169.592C121.592 170.489 138.776 171.81 138.776 171.81L139.002 157.906L127.116 154.878L127.003 135.702" stroke="#263238" stroke-linecap="round" stroke-linejoin="round"/>
<path d="M127.11 154.878C127.11 154.878 122.96 152.972 120.27 153.982C117.581 154.991 115.337 160.15 115.337 160.15" stroke="#263238" stroke-linecap="round" stroke-linejoin="round"/>
<path d="M122.508 153.53C122.508 153.53 118.584 153.304 116.678 154.094C115.506 154.59 114.468 155.357 113.65 156.332" stroke="#263238" stroke-linecap="round" stroke-linejoin="round"/>
<path d="M143.816 136.824H136.193V139.294H143.816V136.824Z" fill="white" stroke="#263238" stroke-linecap="round" stroke-linejoin="round"/>
</svg>
